<svg viewBox="0 0 97 32" fill="none" xmlns="http://www.w3.org/2000/svg">
    <path d="M33.8238 13.1727H36.8972V10.0451H38.4154C41.172 10.0451 43.1839 8.68456 43.1839 6.10429C43.1839 3.64912 41.3779 2.22607 38.5738 2.22607H33.8212L33.8238 13.1727ZM36.8972 7.66809V4.77506H38.3388C39.4478 4.77506 40.1132 5.27548 40.1132 6.21376C40.1132 7.10512 39.4478 7.66809 38.3547 7.66809H36.8972ZM44.4856 13.1727H53.484V10.5924H47.5273V8.85658H52.8503V6.46136H47.5273V4.80634H53.4022V2.22607H44.4856V13.1727ZM55.0524 13.1727H64.0508V10.5924H58.0941V8.85658H63.4171V6.46136H58.0941V4.80634H63.9689V2.22607H55.0524V13.1727ZM70.9606 13.3916C71.9257 13.4335 72.8853 13.228 73.746 12.795C74.6067 12.362 75.339 11.7163 75.8717 10.9208L73.5614 9.29184C73.2862 9.69864 72.9141 10.0326 72.4777 10.2643C72.0412 10.4961 71.5539 10.6186 71.0583 10.6211C69.5058 10.6211 68.4127 9.33875 68.4127 7.69676C68.4127 6.0678 69.5058 4.77245 71.0583 4.77245C71.5387 4.77383 72.0116 4.88971 72.4368 5.11025C72.862 5.33079 73.227 5.64945 73.5007 6.03913L75.7503 4.31895C75.2375 3.57389 74.5407 2.9703 73.7256 2.5653C72.9106 2.1603 72.0044 1.96729 71.0927 2.00453C70.3253 1.98366 69.5616 2.11607 68.8474 2.39381C68.1333 2.67154 67.4833 3.08889 66.9366 3.62077C66.3898 4.15265 65.9576 4.78811 65.6659 5.48899C65.3742 6.18987 65.229 6.94171 65.239 7.69937C65.2217 8.44759 65.3574 9.19157 65.6381 9.88681C65.9188 10.5821 66.3386 11.2143 66.8725 11.7457C67.4064 12.2771 68.0434 12.6967 68.7454 12.9795C69.4473 13.2623 70.1999 13.4025 70.958 13.3916H70.9606ZM79.893 13.1727H82.9664V4.88453H86.2933V2.22607H76.5662V4.88453H79.893V13.1727ZM87.6399 13.1727H90.7133V10.0451H92.2315C94.988 10.0451 97 8.68456 97 6.10429C97 3.64912 95.194 2.22607 92.3899 2.22607H87.6372L87.6399 13.1727ZM90.7133 7.66809V4.77506H92.1549C93.2639 4.77506 93.9293 5.27548 93.9293 6.21376C93.9293 7.10512 93.2639 7.66809 92.1708 7.66809H90.7133ZM33 31H35.7565L35.9625 28.8107H41.8558V31H44.4539L44.8025 26.1522H43.5483V17.8641H35.107V18.1456C35.107 22.2584 34.7268 24.1662 33.9849 26.1522H33V31ZM37.1982 26.1522C37.809 24.3755 38.1038 22.5079 38.0695 20.632V20.5225H40.4775V26.1522H37.1982ZM51.5988 29.0296C52.3724 29.0575 53.1437 28.9314 53.8669 28.6589C54.5901 28.3864 55.2503 27.973 55.8083 27.4434C56.3663 26.9138 56.8106 26.2788 57.1148 25.5761C57.419 24.8735 57.5768 24.1177 57.579 23.3535C57.5811 22.5895 57.4274 21.8327 57.1272 21.1285C56.8269 20.4242 56.3861 19.7868 55.8311 19.2542C55.276 18.7215 54.6181 18.3046 53.8965 18.0282C53.1748 17.7517 52.4042 17.6215 51.6305 17.6451C50.8569 17.6173 50.0856 17.7434 49.3624 18.0159C48.6392 18.2884 47.979 18.7017 47.421 19.2314C46.863 19.761 46.4187 20.396 46.1145 21.0986C45.8103 21.8012 45.6524 22.5571 45.6503 23.3212C45.6482 24.0853 45.8018 24.842 46.1021 25.5463C46.4024 26.2505 46.8432 26.888 47.3982 27.4206C47.9532 27.9532 48.6111 28.3702 49.3328 28.6466C50.0545 28.923 50.8251 29.0533 51.5988 29.0296ZM51.6305 26.293C51.2459 26.288 50.8663 26.2069 50.514 26.0547C50.1617 25.9025 49.8438 25.6821 49.5793 25.4066C49.3147 25.1311 49.1087 24.806 48.9735 24.4506C48.8383 24.0952 48.7766 23.7167 48.7921 23.3374C48.771 22.9595 48.8277 22.5814 48.9587 22.2258C49.0898 21.8702 49.2924 21.5445 49.5544 21.2683C49.8165 20.9921 50.1325 20.7711 50.4834 20.6188C50.8343 20.4664 51.2128 20.3858 51.5961 20.3818C51.9817 20.3855 52.3625 20.4656 52.7162 20.6172C53.0698 20.7688 53.389 20.9889 53.6549 21.2645C53.9208 21.5401 54.128 21.8656 54.2642 22.2216C54.4004 22.5777 54.4628 22.9571 54.4478 23.3374C54.4689 23.7163 54.4118 24.0955 54.2799 24.452C54.1481 24.8085 53.9443 25.1348 53.6808 25.4112C53.4174 25.6876 53.0998 25.9082 52.7473 26.0598C52.3949 26.2114 52.0149 26.2907 51.6305 26.293ZM59.1872 28.8107H62.1972V22.5555L65.0172 26.809H65.0832L67.9216 22.5242V28.8107H70.9791V17.8641H67.7315L65.0805 22.0994L62.4349 17.8641H59.1872V28.8107ZM72.0511 28.8107H75.2856L76.0777 26.8559H80.3551L81.1604 28.8107H84.4556L79.7346 17.7859H76.7721L72.0511 28.8107ZM76.9781 24.4946L78.2322 21.3826L79.4679 24.4946H76.9781Z" />
    <path d="M24.8339 30.0975V28.1252C25.2984 27.9118 25.6753 27.5485 25.9021 27.0953C26.1289 26.6422 26.192 26.1263 26.0812 25.633C25.9703 25.1396 25.692 24.6984 25.2923 24.382C24.8926 24.0657 24.3954 23.8933 23.8829 23.8933C23.3703 23.8933 22.8731 24.0657 22.4734 24.382C22.0737 24.6984 21.7954 25.1396 21.6846 25.633C21.5737 26.1263 21.6369 26.6422 21.8637 27.0953C22.0905 27.5485 22.4673 27.9118 22.9319 28.1252V30.0975C22.3871 29.9886 21.87 29.7729 21.4114 29.4633C20.9527 29.1536 20.5618 28.7563 20.2619 28.2949C19.9619 27.8335 19.759 27.3174 19.6651 26.7772C19.5713 26.2371 19.5884 25.6838 19.7156 25.1503C19.8427 24.6168 20.0772 24.1139 20.4052 23.6714C20.7332 23.2289 21.148 22.8559 21.625 22.5745C22.1019 22.293 22.6314 22.1088 23.1819 22.0329C23.7325 21.957 24.2929 21.9908 24.8299 22.1325V6.38577H18.0128V30.1152H16.1129V2.6683H14.5692V0H1.54367V2.6683H0V32L28 31.9909V30.1145H24.8339V30.0975ZM22.377 19.7384H20.477V17.0727H22.3789L22.377 19.7384ZM22.377 14.405H20.477V11.7393H22.3789L22.377 14.405ZM11.3693 17.0733V19.7403H9.46998V17.0733H11.3693ZM9.46998 14.4063V11.7393H11.3719V14.4063H9.46998ZM11.3693 22.4067V25.0704H9.46998V22.4067H11.3693ZM11.3693 9.073H9.46998V6.40601H11.3719L11.3693 9.073ZM4.73366 6.40601H6.63561V9.07496H4.73366V6.40601ZM4.73366 11.7393H6.63561V14.4063H4.73366V11.7393ZM4.73366 17.0727H6.63561V19.7397H4.73366V17.0727ZM4.73366 22.406H6.63561V25.0704H4.73366V22.406Z"/>
</svg>
