<svg width="112" height="16" viewBox="0 0 112 16" fill="none" xmlns="http://www.w3.org/2000/svg">
<path d="M45.097 11.7157V7.27966C45.097 5.57919 44.0619 4.47018 42.2875 4.47018C41.4003 4.47018 40.4392 4.76592 39.7738 5.72706C39.2562 4.91379 38.5169 4.47018 37.4079 4.47018C36.6686 4.47018 35.9292 4.692 35.3378 5.50526V4.61805H33.7852V11.7157H35.3378V7.79718C35.3378 6.54031 36.0032 5.94885 37.0382 5.94885C38.0733 5.94885 38.5908 6.61425 38.5908 7.79718V11.7157H40.1434V7.79718C40.1434 6.54031 40.8828 5.94885 41.8439 5.94885C42.879 5.94885 43.3965 6.61425 43.3965 7.79718V11.7157H45.097ZM68.0903 4.61805H65.5765V2.47399H64.0239V4.61805H62.6192V6.02279H64.0239V9.27585C64.0239 10.9024 64.6893 11.8635 66.4637 11.8635C67.1291 11.8635 67.8685 11.6417 68.386 11.346L67.9424 10.0152C67.4988 10.3109 66.9813 10.3849 66.6116 10.3849C65.8723 10.3849 65.5765 9.94127 65.5765 9.20194V6.02279H68.0903V4.61805ZM81.2504 4.47018C80.3632 4.47018 79.7717 4.9138 79.4021 5.50526V4.61805H77.8495V11.7157H79.4021V7.72327C79.4021 6.54033 79.9196 5.87493 80.8807 5.87493C81.1765 5.87493 81.5461 5.94885 81.8419 6.02279L82.2855 4.54412C81.9897 4.47018 81.5461 4.47018 81.2504 4.47018ZM61.3623 5.20951C60.623 4.69198 59.5879 4.47018 58.4789 4.47018C56.7045 4.47018 55.5216 5.35738 55.5216 6.76212C55.5216 7.94505 56.4088 8.61047 57.9614 8.83227L58.7007 8.90618C59.514 9.05405 59.9576 9.27585 59.9576 9.64552C59.9576 10.1631 59.3661 10.5327 58.331 10.5327C57.296 10.5327 56.4827 10.1631 55.9652 9.79339L55.2258 10.9763C56.0391 11.5678 57.1481 11.8635 58.2571 11.8635C60.3273 11.8635 61.5102 10.9024 61.5102 9.5716C61.5102 8.31473 60.549 7.64932 59.0704 7.42752L58.331 7.3536C57.6656 7.27967 57.1481 7.13178 57.1481 6.68818C57.1481 6.17065 57.6656 5.87493 58.4789 5.87493C59.3661 5.87493 60.2533 6.24459 60.6969 6.46639L61.3623 5.20951ZM102.617 4.47018C101.73 4.47018 101.138 4.9138 100.769 5.50526V4.61805H99.2162V11.7157H100.769V7.72327C100.769 6.54033 101.286 5.87493 102.247 5.87493C102.543 5.87493 102.913 5.94885 103.209 6.02279L103.652 4.54412C103.356 4.47018 102.913 4.47018 102.617 4.47018ZM82.803 8.16685C82.803 10.3109 84.2817 11.8635 86.5736 11.8635C87.6087 11.8635 88.348 11.6417 89.0873 11.0503L88.348 9.79339C87.7565 10.237 87.1651 10.4588 86.4997 10.4588C85.2428 10.4588 84.3556 9.57158 84.3556 8.16685C84.3556 6.83605 85.2428 5.94886 86.4997 5.87493C87.1651 5.87493 87.7565 6.09673 88.348 6.54033L89.0873 5.28345C88.348 4.69198 87.6087 4.47018 86.5736 4.47018C84.2817 4.47018 82.803 6.02278 82.803 8.16685ZM97.1461 8.16685V4.61805H95.5935V5.50526C95.076 4.83986 94.3366 4.47018 93.3755 4.47018C91.3793 4.47018 89.8267 6.02278 89.8267 8.16685C89.8267 10.3109 91.3793 11.8635 93.3755 11.8635C94.4106 11.8635 95.1499 11.4939 95.5935 10.8285V11.7157H97.1461V8.16685ZM91.4532 8.16685C91.4532 6.90998 92.2665 5.87493 93.5973 5.87493C94.8541 5.87493 95.7413 6.83605 95.7413 8.16685C95.7413 9.42372 94.8541 10.4588 93.5973 10.4588C92.2665 10.3849 91.4532 9.42372 91.4532 8.16685ZM72.8959 4.47018C70.8258 4.47018 69.3471 5.94885 69.3471 8.16685C69.3471 10.3849 70.8258 11.8635 72.9699 11.8635C74.0049 11.8635 75.04 11.5678 75.8533 10.9024L75.1139 9.79339C74.5225 10.237 73.7831 10.5327 73.0438 10.5327C72.0827 10.5327 71.1215 10.0891 70.8997 8.83227H76.149C76.149 8.61047 76.149 8.46259 76.149 8.24079C76.2229 5.94885 74.8921 4.47018 72.8959 4.47018ZM72.8959 5.80099C73.8571 5.80099 74.5225 6.39245 74.6703 7.50145H70.9737C71.1215 6.54032 71.7869 5.80099 72.8959 5.80099ZM111.415 8.16685V1.80859H109.863V5.50526C109.345 4.83986 108.606 4.47018 107.645 4.47018C105.648 4.47018 104.096 6.02278 104.096 8.16685C104.096 10.3109 105.648 11.8635 107.645 11.8635C108.68 11.8635 109.419 11.4939 109.863 10.8285V11.7157H111.415V8.16685ZM105.722 8.16685C105.722 6.90998 106.536 5.87493 107.866 5.87493C109.123 5.87493 110.011 6.83605 110.011 8.16685C110.011 9.42372 109.123 10.4588 107.866 10.4588C106.536 10.3849 105.722 9.42372 105.722 8.16685ZM53.8211 8.16685V4.61805H52.2685V5.50526C51.751 4.83986 51.0116 4.47018 50.0505 4.47018C48.0543 4.47018 46.5017 6.02278 46.5017 8.16685C46.5017 10.3109 48.0543 11.8635 50.0505 11.8635C51.0856 11.8635 51.8249 11.4939 52.2685 10.8285V11.7157H53.8211V8.16685ZM48.0543 8.16685C48.0543 6.90998 48.8676 5.87493 50.1984 5.87493C51.4552 5.87493 52.3424 6.83605 52.3424 8.16685C52.3424 9.42372 51.4552 10.4588 50.1984 10.4588C48.8676 10.3849 48.0543 9.42372 48.0543 8.16685Z" fill="black"/>
<path d="M16.4182 1.70898H9.4292V14.2671H16.4182V1.70898Z" fill="#FF5F00"/>
<path d="M9.8734 7.98747C9.8734 5.43592 11.0715 3.17281 12.9131 1.70843C11.5596 0.643438 9.85122 0 7.98747 0C3.57218 0 0 3.57218 0 7.98747C0 12.4028 3.57218 15.9749 7.98747 15.9749C9.85122 15.9749 11.5596 15.3315 12.9131 14.2665C11.0715 12.8243 9.8734 10.539 9.8734 7.98747Z" fill="#EB001B"/>
<path d="M25.8481 7.98747C25.8481 12.4028 22.2759 15.9749 17.8607 15.9749C15.9969 15.9749 14.2885 15.3315 12.9351 14.2665C14.7988 12.8022 15.9747 10.539 15.9747 7.98747C15.9747 5.43592 14.7766 3.17281 12.9351 1.70843C14.2885 0.643438 15.9969 0 17.8607 0C22.2759 0 25.8481 3.59436 25.8481 7.98747Z" fill="#F79E1B"/>
</svg>
