<svg width="57" height="16" viewBox="0 0 57 16" fill="none" xmlns="http://www.w3.org/2000/svg">
<path fill-rule="evenodd" clip-rule="evenodd" d="M15.3058 3.04414e-07V0.0069872C15.2988 0.0069872 13.0872 2.66529e-07 12.4974 2.10306C11.9568 4.03144 10.4332 9.35546 10.3911 9.50218H9.96984C9.96984 9.50218 8.41117 4.05939 7.86353 2.09607C7.27377 -0.00698666 5.05513 3.04414e-07 5.05513 3.04414e-07H0V16H5.05513V6.49782H5.26576H5.47639L8.42522 16H11.9357L14.8845 6.5048H15.3058V16H20.3609V3.04414e-07H15.3058Z" fill="#41C657"/>
<path fill-rule="evenodd" clip-rule="evenodd" d="M33.7707 0C33.7707 0 32.2893 0.132751 31.5942 1.67686L28.0135 9.50218H27.5922V0H22.5371V16H27.3114C27.3114 16 28.863 15.8603 29.5581 14.3231L33.0686 6.49782H33.4899V16H38.545V0H33.7707Z" fill="#41C657"/>
<path fill-rule="evenodd" clip-rule="evenodd" d="M40.791 7.26562V15.9993H45.8461V10.8988H51.3225C53.7097 10.8988 55.7317 9.38266 56.483 7.26562H40.791Z" fill="#41C657"/>
<path fill-rule="evenodd" clip-rule="evenodd" d="M51.3227 0H40.082C40.6437 3.04629 42.9396 5.4917 45.9095 6.28821C46.5835 6.46987 47.2926 6.56769 48.0228 6.56769H56.6867C56.764 6.20437 56.7991 5.83406 56.7991 5.44978C56.7991 2.43843 54.3487 0 51.3227 0Z" fill="#00B4E6"/>
</svg>
