<svg width="52" height="16" viewBox="0 0 52 16" fill="none" xmlns="http://www.w3.org/2000/svg">
<g clip-path="url(#clip0)">
<path d="M-0.0263672 0.61104C0.65856 0.271448 1.44182 0.408591 2.17761 0.39553C3.8628 0.437979 5.55138 0.356346 7.23657 0.428183C7.9961 0.424918 8.64712 1.03226 8.75223 1.74084C9.28118 4.20941 9.76606 6.68778 10.2848 9.16288C9.42698 6.26329 7.16198 3.89594 4.50026 2.39063C3.0931 1.57757 1.5232 1.1041 -0.0263672 0.61104Z" fill="#F4A929"/>
<path d="M14.6344 0.402344C16.0958 0.41867 17.5538 0.41214 19.0118 0.402344C16.7943 5.50602 14.7259 10.6685 12.4609 15.7526C11.0368 15.7101 9.61273 15.7297 8.18862 15.7297C6.92727 11.2921 5.75069 6.83173 4.49951 2.39092C7.16123 3.89622 9.42624 6.26357 10.2841 9.16316C10.4129 9.7248 10.5045 10.2995 10.6164 10.8677C11.9456 7.37704 13.2917 3.88969 14.6344 0.402344Z" fill="#1E5AC1"/>
<path d="M20.6505 0.394531C22.0237 0.404327 23.397 0.404327 24.7702 0.394531C23.9259 5.508 23.0376 10.6149 22.2136 15.7317C20.8472 15.7349 19.4807 15.7349 18.1108 15.7317C18.8975 10.6117 19.8232 5.51127 20.6505 0.394531Z" fill="#1E5AC1"/>
<path d="M28.6765 1.35791C31.1382 -0.199642 34.356 -0.153927 37.0787 0.708114C36.9533 1.84117 36.7566 2.96444 36.5532 4.08444C35.1053 3.41505 33.4168 3.11791 31.8435 3.50648C31.1009 3.67628 30.3685 4.56444 30.9856 5.23056C32.2537 6.48117 34.2509 6.76526 35.4444 8.12689C36.8278 9.42975 36.777 11.624 35.8343 13.1489C34.8375 14.7587 32.9183 15.6012 31.05 15.8428C28.9376 16.0551 26.737 15.9277 24.7568 15.1408C24.9671 13.9979 25.1434 12.8485 25.357 11.7057C27.0693 12.5579 29.0563 12.9857 30.9653 12.5775C31.6129 12.3685 32.2809 11.8559 32.2232 11.1244C32.0096 10.2526 31.0636 9.88036 30.3278 9.48526C28.9003 8.80934 27.3643 7.97995 26.7235 6.49424C25.9266 4.61668 26.9812 2.41913 28.6765 1.35791Z" fill="#1E5AC1"/>
<path fill-rule="evenodd" clip-rule="evenodd" d="M43.856 0.45094C42.9981 0.493389 42.4556 1.26074 42.181 1.96604C41.096 4.48087 40.0039 6.99276 38.9119 9.5044C38.0075 11.5845 37.1032 13.6644 36.2031 15.7456C37.6408 15.7424 39.0785 15.7424 40.5161 15.7424C40.8179 14.975 41.1095 14.2011 41.3909 13.4273C42.796 13.4351 44.201 13.4346 45.6078 13.4341C45.9596 13.4339 46.3115 13.4338 46.6635 13.4338C46.8263 14.2077 46.9958 14.9783 47.1755 15.7456C47.8096 15.744 48.4437 15.7432 49.0777 15.7424C49.7118 15.7416 50.3459 15.7407 50.9799 15.7391C50.5835 13.9187 50.1896 12.0979 49.7958 10.277C49.0847 6.98951 48.3735 3.70159 47.6468 0.415022C47.1719 0.423629 46.6959 0.418809 46.2198 0.413986C45.4314 0.406002 44.6424 0.398011 43.856 0.45094ZM43.4133 8.11534C43.1446 8.83724 42.8759 9.55911 42.5875 10.2731C43.7268 10.2764 44.8627 10.2764 46.002 10.2764C45.8933 9.7732 45.7785 9.27095 45.6637 8.76863C45.3449 7.37379 45.0259 5.97853 44.8389 4.56209C44.3039 5.72283 43.8586 6.91913 43.4133 8.11534Z" fill="#1E5AC1"/>
</g>
<defs>
<clipPath id="clip0">
<rect width="52" height="16" fill="white"/>
</clipPath>
</defs>
</svg>
