<svg width="24" height="24" viewBox="0 0 24 24" xmlns="http://www.w3.org/2000/svg">
<path fill-rule="evenodd" clip-rule="evenodd" d="M19 6C19 5.73478 18.8946 5.48043 18.7071 5.29289C18.5256 5.11141 18.2816 5.00688 18.0256 5.00033C14.3817 5.23032 10.9463 6.78159 8.36393 9.36393C5.78159 11.9463 4.23032 15.3817 4.00033 19.0256C4.00688 19.2816 4.11141 19.5256 4.29289 19.7071C4.48043 19.8946 4.73478 20 5 20L8.32297 20L9.75523 16.4193L7.9855 15.3575C7.53924 15.0897 7.37294 14.5244 7.60314 14.0577C8.77146 11.6887 10.6887 9.77146 13.0577 8.60314C13.5244 8.37294 14.0897 8.53924 14.3575 8.9855L15.4193 10.7552L19 9.32297L19 6ZM20.1213 3.87868C20.6839 4.44129 21 5.20435 21 6L21 10C21 10.4089 20.751 10.7766 20.3714 10.9285L15.3714 12.9285C14.9157 13.1108 14.395 12.9354 14.1425 12.5145L13.1381 10.8405C11.7945 11.6644 10.6644 12.7945 9.8405 14.1381L11.5145 15.1425C11.9354 15.395 12.1108 15.9157 11.9285 16.3714L9.92848 21.3714C9.77661 21.751 9.4089 22 9 22L5 22C4.20435 22 3.44129 21.6839 2.87868 21.1213C2.31607 20.5587 2 19.7956 2 19C2 18.9798 2.00061 18.9595 2.00184 18.9393C2.25371 14.7948 4.01369 10.8858 6.94972 7.94972C9.88575 5.01369 13.7948 3.25371 17.9393 3.00184C17.9595 3.00061 17.9798 3 18 3C18.7956 3 19.5587 3.31607 20.1213 3.87868Z"/>
</svg>
