<svg width="24" height="24" viewBox="0 0 24 24" xmlns="http://www.w3.org/2000/svg">
<path fill-rule="evenodd" clip-rule="evenodd" d="M12 4.95444C10.3401 4.95444 8.72133 5.47075 7.36799 6.43183C6.01464 7.3929 4.99375 8.75114 4.4468 10.3183C3.89984 11.8855 3.85391 13.584 4.31536 15.1785C4.74525 16.6639 5.59567 17.9904 6.76061 19H17.2394C18.4043 17.9904 19.2547 16.6639 19.6846 15.1785C20.1461 13.584 20.1002 11.8855 19.5532 10.3183C19.0062 8.75114 17.9854 7.3929 16.632 6.43183C15.2787 5.47075 13.6599 4.95444 12 4.95444ZM6.20998 4.80117C7.90167 3.59983 9.92515 2.95444 12 2.95444C14.0749 2.95444 16.0983 3.59983 17.79 4.80117C19.4817 6.00252 20.7578 7.70032 21.4415 9.65929C22.1252 11.6183 22.1826 13.7414 21.6058 15.7345C21.029 17.7275 19.8465 19.4918 18.2222 20.7828C18.0453 20.9235 17.826 21 17.6 21H6.4C6.17401 21 5.95469 20.9235 5.77778 20.7828C4.1535 19.4918 2.97101 17.7275 2.3942 15.7345C1.81738 13.7414 1.8748 11.6183 2.55849 9.65929C3.24219 7.70032 4.5183 6.00252 6.20998 4.80117ZM16.2071 8.7929C16.5976 9.18342 16.5976 9.81659 16.2071 10.2071L14.7076 11.7066C14.895 12.0982 15 12.5369 15 13C15 14.6569 13.6569 16 12 16C10.3431 16 9 14.6569 9 13C9 11.3431 10.3431 10 12 10C12.4631 10 12.9018 10.105 13.2934 10.2924L14.7929 8.7929C15.1834 8.40237 15.8166 8.40237 16.2071 8.7929ZM12 12C11.4477 12 11 12.4477 11 13C11 13.5523 11.4477 14 12 14C12.5523 14 13 13.5523 13 13C13 12.4477 12.5523 12 12 12Z"/>
</svg>
