<svg width="24" height="24" viewBox="0 0 24 24" xmlns="http://www.w3.org/2000/svg">
<path fill-rule="evenodd" clip-rule="evenodd" d="M6 18C5.44772 18 5 18.4477 5 19C5 19.5523 5.44772 20 6 20C6.55228 20 7 19.5523 7 19C7 18.4477 6.55228 18 6 18ZM3 19C3 17.3431 4.34315 16 6 16C7.65685 16 9 17.3431 9 19C9 20.6569 7.65685 22 6 22C4.34315 22 3 20.6569 3 19Z"/>
<path fill-rule="evenodd" clip-rule="evenodd" d="M17 18C16.4477 18 16 18.4477 16 19C16 19.5523 16.4477 20 17 20C17.5523 20 18 19.5523 18 19C18 18.4477 17.5523 18 17 18ZM14 19C14 17.3431 15.3431 16 17 16C18.6569 16 20 17.3431 20 19C20 20.6569 18.6569 22 17 22C15.3431 22 14 20.6569 14 19Z"/>
<path fill-rule="evenodd" clip-rule="evenodd" d="M3 3C3 2.44772 3.44772 2 4 2H6C6.55228 2 7 2.44772 7 3V16H17C17.5523 16 18 16.4477 18 17C18 17.5523 17.5523 18 17 18H6C5.44772 18 5 17.5523 5 17V4H4C3.44772 4 3 3.55228 3 3Z"/>
<path fill-rule="evenodd" clip-rule="evenodd" d="M5.00254 4.92875C5.04189 4.37787 5.52037 3.96319 6.07125 4.00254L20.0712 5.00254C20.348 5.02231 20.6041 5.15618 20.7783 5.37214C20.9525 5.58811 21.0292 5.86674 20.9899 6.14142L19.9899 13.1414C19.9196 13.6341 19.4977 14 19 14H6C5.44772 14 5 13.5523 5 13C5 12.4477 5.44772 12 6 12H18.1327L18.8583 6.921L5.92875 5.99746C5.37787 5.95811 4.96319 5.47963 5.00254 4.92875Z"/>
</svg>
