<svg width="24" height="24" viewBox="0 0 24 24" xmlns="http://www.w3.org/2000/svg">
<path fill-rule="evenodd" clip-rule="evenodd" d="M14.7544 5.53079C13.0387 4.80016 11.103 4.78104 9.37311 5.47762C8.8608 5.68392 8.27825 5.43585 8.07195 4.92354C7.86566 4.41123 8.11373 3.82869 8.62603 3.62239C10.8479 2.72767 13.3342 2.75224 15.538 3.69068C17.7418 4.62913 19.4825 6.40459 20.3772 8.62647C21.2719 10.8483 21.2473 13.3347 20.3089 15.5384C19.7296 16.8987 18.8314 18.0826 17.7062 19H19.9996C20.5519 19 20.9996 19.4477 20.9996 20C20.9996 20.5523 20.5519 21 19.9996 21H14.9996C14.4473 21 13.9996 20.5523 13.9996 20V19.4733C13.9992 19.4579 13.9992 19.4426 13.9996 19.4274V15C13.9996 14.4477 14.4473 14 14.9996 14C15.5519 14 15.9996 14.4477 15.9996 15V17.7828C17.0836 17.0329 17.9442 15.9868 18.4688 14.7548C19.1994 13.0391 19.2185 11.1034 18.522 9.37354C17.8254 7.6437 16.4701 6.26142 14.7544 5.53079ZM5.62957 6.16C6.18186 6.16 6.62957 6.60772 6.62957 7.16C6.62957 7.70871 6.18247 8.17 5.62957 8.17C5.07729 8.17 4.62957 7.72229 4.62957 7.17C4.62957 6.6213 5.07667 6.16 5.62957 6.16ZM4.05957 10C4.61247 10 5.05957 10.4613 5.05957 11.01C5.05957 11.5623 4.61186 12.01 4.05957 12.01C3.50729 12.01 3.05957 11.5623 3.05957 11.01C3.05957 10.4613 3.50667 10 4.05957 10ZM4.62957 14.1C5.18186 14.1 5.62957 14.5477 5.62957 15.1C5.62957 15.6487 5.18247 16.11 4.62957 16.11C4.07668 16.11 3.62957 15.6487 3.62957 15.1C3.62957 14.5477 4.07729 14.1 4.62957 14.1ZM7.15957 17.37C7.71246 17.37 8.15957 17.8313 8.15957 18.38C8.15957 18.9323 7.71185 19.38 7.15957 19.38C6.60729 19.38 6.15957 18.9323 6.15957 18.38C6.15957 17.8313 6.60668 17.37 7.15957 17.37ZM10.9996 18.94C11.5519 18.94 11.9996 19.3877 11.9996 19.94C11.9996 20.4887 11.5525 20.95 10.9996 20.95C10.4473 20.95 9.99957 20.5023 9.99957 19.95C9.99957 19.4013 10.4467 18.94 10.9996 18.94Z"/>
</svg>
