<svg width="24" height="24" viewBox="0 0 24 24" xmlns="http://www.w3.org/2000/svg">
<path fill-rule="evenodd" clip-rule="evenodd" d="M12 4C7.58172 4 4 7.58172 4 12C4 16.4183 7.58172 20 12 20C16.4183 20 20 16.4183 20 12C20 7.58172 16.4183 4 12 4ZM2 12C2 6.47715 6.47715 2 12 2C17.5228 2 22 6.47715 22 12C22 17.5228 17.5228 22 12 22C6.47715 22 2 17.5228 2 12ZM12.2581 8.02432C11.7926 7.94447 11.3138 8.03195 10.9066 8.27127C10.4994 8.51058 10.1901 8.88629 10.0333 9.33184C9.85006 9.85283 9.27915 10.1266 8.75816 9.94333C8.23717 9.76006 7.96339 9.18915 8.14667 8.66816C8.46014 7.77705 9.07887 7.02563 9.89327 6.547C10.7077 6.06837 11.6652 5.89341 12.5962 6.05311C13.5273 6.2128 14.3718 6.69686 14.9801 7.41953C15.5883 8.14205 15.9213 9.05648 15.92 10.0009C15.9195 11.5313 14.7849 12.5419 13.9747 13.0821C13.5391 13.3725 13.1106 13.586 12.7949 13.7263C12.6356 13.7971 12.5015 13.8508 12.4049 13.8876C12.3499 13.9085 12.2947 13.929 12.239 13.9478C11.7263 14.1197 11.1425 13.8297 10.9713 13.3162C10.771 12.7153 11.1549 12.2236 11.6929 12.0186C11.7603 11.9929 11.8606 11.9529 11.9826 11.8987C12.2294 11.789 12.5509 11.6275 12.8653 11.4179C13.5549 10.9582 13.92 10.4691 13.92 10C13.9203 9.52974 13.753 9.06747 13.4501 8.70753C13.1459 8.34619 12.7236 8.10417 12.2581 8.02432ZM11 17C11 16.4471 11.4513 16 12 16C12.5523 16 13 16.4477 13 17C13 17.5523 12.5523 18 12 18C11.4513 18 11 17.5529 11 17Z"/>
</svg>
