<svg width="24" height="24" viewBox="0 0 24 24" xmlns="http://www.w3.org/2000/svg">
<path fill-rule="evenodd" clip-rule="evenodd" d="M12 4C7.58172 4 4 7.58172 4 12C4 16.4183 7.58172 20 12 20C16.4183 20 20 16.4183 20 12C20 7.58172 16.4183 4 12 4ZM2 12C2 6.47715 6.47715 2 12 2C17.5228 2 22 6.47715 22 12C22 17.5228 17.5228 22 12 22C6.47715 22 2 17.5228 2 12ZM12 5C12.5523 5 13 5.44772 13 6V6.99962C13.5323 6.98768 14.0584 7.11762 14.5242 7.3764C14.9998 7.64062 15.3946 8.02921 15.6664 8.50057C15.9422 8.97904 15.7779 9.59052 15.2994 9.86635C14.821 10.1422 14.2095 9.97791 13.9336 9.49943C13.8431 9.34231 13.7115 9.21279 13.5529 9.12471C13.3944 9.03664 13.2149 8.99333 13.0336 8.99943C13.0224 8.99981 13.0112 9 13 9H11C10.7348 9 10.4804 9.10536 10.2929 9.29289C10.1054 9.48043 10 9.73478 10 10C10 10.2652 10.1054 10.5196 10.2929 10.7071C10.4804 10.8946 10.7348 11 11 11H13C13.7957 11 14.5587 11.3161 15.1213 11.8787C15.6839 12.4413 16 13.2043 16 14C16 14.7957 15.6839 15.5587 15.1213 16.1213C14.5587 16.6839 13.7957 17 13 17V18C13 18.5523 12.5523 19 12 19C11.4477 19 11 18.5523 11 18V17.0004C10.4677 17.0123 9.94157 16.8824 9.47578 16.6236C9.00017 16.3594 8.60538 15.9708 8.33365 15.4994C8.05782 15.021 8.22209 14.4095 8.70057 14.1336C9.17904 13.8578 9.79052 14.0221 10.0664 14.5006C10.1569 14.6577 10.2885 14.7872 10.4471 14.8753C10.6056 14.9634 10.7851 15.0067 10.9664 15.0006C10.9776 15.0002 10.9888 15 11 15H13C13.2652 15 13.5196 14.8946 13.7071 14.7071C13.8946 14.5196 14 14.2652 14 14C14 13.7348 13.8946 13.4804 13.7071 13.2929C13.5196 13.1054 13.2652 13 13 13H11C10.2043 13 9.44129 12.6839 8.87868 12.1213C8.31607 11.5587 8 10.7957 8 10C8 9.20435 8.31607 8.44129 8.87868 7.87868C9.44129 7.31607 10.2043 7 11 7V6C11 5.44772 11.4477 5 12 5Z"/>
</svg>
