<svg width="24" height="24" viewBox="0 0 24 24" xmlns="http://www.w3.org/2000/svg">
<path fill-rule="evenodd" clip-rule="evenodd" d="M5 5C5.55228 5 6 5.44772 6 6C6 6.54871 5.5529 7.01 5 7.01C4.44772 7.01 4 6.55228 4 6C4 5.45129 4.4471 5 5 5ZM8 6C8 5.44772 8.44772 5 9 5H20C20.5523 5 21 5.44772 21 6C21 6.55228 20.5523 7 20 7H9C8.44772 7 8 6.55228 8 6ZM5 11C5.5529 11 6 11.4513 6 12C6 12.5523 5.55228 13.01 5 13.01C4.44772 13.01 4 12.5523 4 12C4 11.4513 4.4471 11 5 11ZM8 12C8 11.4477 8.44772 11 9 11H20C20.5523 11 21 11.4477 21 12C21 12.5523 20.5523 13 20 13H9C8.44772 13 8 12.5523 8 12ZM5 17C5.5529 17 6 17.4513 6 18C6 18.5523 5.55228 19.01 5 19.01C4.44772 19.01 4 18.5523 4 18C4 17.4513 4.4471 17 5 17ZM8 18C8 17.4477 8.44772 17 9 17H20C20.5523 17 21 17.4477 21 18C21 18.5523 20.5523 19 20 19H9C8.44772 19 8 18.5523 8 18Z"/>
</svg>
