<svg width="24" height="24" viewBox="0 0 24 24" xmlns="http://www.w3.org/2000/svg">
<path fill-rule="evenodd" clip-rule="evenodd" d="M16.7929 2.79291C17.3783 2.20754 18.1722 1.87869 19 1.87869C19.8278 1.87869 20.6217 2.20754 21.2071 2.79291C21.7925 3.37827 22.1213 4.17219 22.1213 5.00001C22.1213 5.82784 21.7925 6.62176 21.2071 7.20712L12.7071 15.7071C12.5196 15.8947 12.2652 16 12 16H9C8.44772 16 8 15.5523 8 15V12C8 11.7348 8.10536 11.4804 8.29289 11.2929L15.2925 4.29327C15.2927 4.29315 15.2924 4.29339 15.2925 4.29327C15.2927 4.29315 15.2931 4.29266 15.2933 4.29254L16.7929 2.79291ZM16 6.41423L10 12.4142V14H11.5858L17.5858 8.00001L16 6.41423ZM19 6.5858L17.4142 5.00001L18.2071 4.20712C18.4174 3.99683 18.7026 3.87869 19 3.87869C19.2974 3.87869 19.5826 3.99683 19.7929 4.20712C20.0032 4.41741 20.1213 4.70262 20.1213 5.00001C20.1213 5.29741 20.0032 5.58262 19.7929 5.79291L19 6.5858ZM3.87868 6.87869C4.44129 6.31608 5.20435 6.00001 6 6.00001H9C9.55228 6.00001 10 6.44773 10 7.00001C10 7.5523 9.55228 8.00001 9 8.00001H6C5.73478 8.00001 5.48043 8.10537 5.29289 8.29291C5.10536 8.48044 5 8.7348 5 9.00001V18C5 18.2652 5.10536 18.5196 5.29289 18.7071C5.48043 18.8947 5.73478 19 6 19H15C15.2652 19 15.5196 18.8947 15.7071 18.7071C15.8946 18.5196 16 18.2652 16 18V15C16 14.4477 16.4477 14 17 14C17.5523 14 18 14.4477 18 15V18C18 18.7957 17.6839 19.5587 17.1213 20.1213C16.5587 20.6839 15.7957 21 15 21H6C5.20435 21 4.44129 20.6839 3.87868 20.1213C3.31607 19.5587 3 18.7957 3 18V9.00001C3 8.20436 3.31607 7.4413 3.87868 6.87869Z"/>
</svg>
