<svg width="24" height="24" viewBox="0 0 24 24" xmlns="http://www.w3.org/2000/svg">
<path fill-rule="evenodd" clip-rule="evenodd" d="M21 7L10 7C9.44772 7 9 6.55229 9 6C9 5.44772 9.44772 5 10 5L21 5C21.5523 5 22 5.44772 22 6C22 6.55228 21.5523 7 21 7ZM2 6C2 5.44772 2.44772 5 3 5H6C6.55228 5 7 5.44772 7 6C7 6.55229 6.55228 7 6 7H3C2.44772 7 2 6.55229 2 6ZM2 12C2 11.4477 2.44772 11 3 11H17C17.5523 11 18 11.4477 18 12C18 12.5523 17.5523 13 17 13H3C2.44772 13 2 12.5523 2 12ZM2 18C2 17.4477 2.44772 17 3 17H13C13.5523 17 14 17.4477 14 18C14 18.5523 13.5523 19 13 19H3C2.44772 19 2 18.5523 2 18Z"/>
</svg>
