<svg width="24" height="24" viewBox="0 0 24 24" xmlns="http://www.w3.org/2000/svg">
<path fill-rule="evenodd" clip-rule="evenodd" d="M7 2C7.55228 2 8 2.44772 8 3V4H14V3C14 2.44772 14.4477 2 15 2C15.5523 2 16 2.44772 16 3V4H17C17.7956 4 18.5587 4.31607 19.1213 4.87868C19.6839 5.44129 20 6.20435 20 7V11C20 11.5523 19.5523 12 19 12H4V19C4 19.2652 4.10536 19.5196 4.29289 19.7071C4.48043 19.8946 4.73478 20 5 20H11.795C12.3473 20 12.795 20.4477 12.795 21C12.795 21.5523 12.3473 22 11.795 22H5C4.20435 22 3.44129 21.6839 2.87868 21.1213C2.31607 20.5587 2 19.7957 2 19V7C2 6.20435 2.31607 5.44129 2.87868 4.87868C3.44129 4.31607 4.20435 4 5 4H6V3C6 2.44772 6.44772 2 7 2ZM6 6H5C4.73478 6 4.48043 6.10536 4.29289 6.29289C4.10536 6.48043 4 6.73478 4 7V10H18V7C18 6.73478 17.8946 6.48043 17.7071 6.29289C17.5196 6.10536 17.2652 6 17 6H16V7C16 7.55228 15.5523 8 15 8C14.4477 8 14 7.55228 14 7V6H8V7C8 7.55228 7.55228 8 7 8C6.44772 8 6 7.55228 6 7V6ZM18 15C16.3431 15 15 16.3431 15 18C15 19.6569 16.3431 21 18 21C19.6569 21 21 19.6569 21 18C21 16.3431 19.6569 15 18 15ZM13 18C13 15.2386 15.2386 13 18 13C20.7614 13 23 15.2386 23 18C23 20.7614 20.7614 23 18 23C15.2386 23 13 20.7614 13 18ZM18 15.496C18.5523 15.496 19 15.9437 19 16.496V17.5858L19.7071 18.2929C20.0976 18.6834 20.0976 19.3166 19.7071 19.7071C19.3166 20.0976 18.6834 20.0976 18.2929 19.7071L17.2929 18.7071C17.1054 18.5196 17 18.2652 17 18V16.496C17 15.9437 17.4477 15.496 18 15.496Z"/>
</svg>
