<svg width="24" height="24" viewBox="0 0 24 24" xmlns="http://www.w3.org/2000/svg">
<path fill-rule="evenodd" clip-rule="evenodd" d="M7.42509 4.23537C9.15344 3.23688 11.1621 2.83435 13.1418 3.08979C15.1214 3.34522 16.9621 4.24445 18.3804 5.64896C19.7987 7.05346 20.7159 8.88533 20.9906 10.8624C21.0666 11.4094 20.6848 11.9145 20.1378 11.9905C19.5907 12.0665 19.0857 11.6847 19.0096 11.1377C18.7953 9.59514 18.0797 8.16588 16.9731 7.07006C15.8665 5.97424 14.4304 5.27264 12.8858 5.07334C11.3413 4.87405 9.77405 5.18811 8.42556 5.96715C7.53828 6.47974 6.77809 7.17492 6.19127 8.00001H8.00012C8.55241 8.00001 9.00012 8.44773 9.00012 9.00001C9.00012 9.5523 8.55241 10 8.00012 10H4.52249C4.50734 10.0004 4.49216 10.0004 4.47695 10H4.00012C3.44784 10 3.00012 9.5523 3.00012 9.00001V5.00001C3.00012 4.44773 3.44784 4.00001 4.00012 4.00001C4.55241 4.00001 5.00012 4.44773 5.00012 5.00001V6.27287C5.67868 5.46249 6.49773 4.77112 7.42509 4.23537ZM3.86247 12.0095C4.4095 11.9335 4.91458 12.3153 4.9906 12.8624C5.20497 14.4049 5.92056 15.8341 7.02713 16.93C8.13371 18.0258 9.56988 18.7274 11.1144 18.9267C12.659 19.126 14.2262 18.8119 15.5747 18.0329C16.462 17.5203 17.2222 16.8251 17.809 16H16.0001C15.4478 16 15.0001 15.5523 15.0001 15C15.0001 14.4477 15.4478 14 16.0001 14H19.4778C19.4929 13.9997 19.5081 13.9997 19.5233 14H20.0001C20.5524 14 21.0001 14.4477 21.0001 15V19C21.0001 19.5523 20.5524 20 20.0001 20C19.4478 20 19.0001 19.5523 19.0001 19V17.7272C18.3216 18.5375 17.5025 19.2289 16.5752 19.7647C14.8468 20.7631 12.8381 21.1657 10.8585 20.9102C8.87885 20.6548 7.03812 19.7556 5.61984 18.3511C4.20155 16.9466 3.28439 15.1147 3.00964 13.1377C2.93362 12.5906 3.31545 12.0856 3.86247 12.0095Z"/>
</svg>
