<svg width="24" height="24" viewBox="0 0 24 24" xmlns="http://www.w3.org/2000/svg">
<path fill-rule="evenodd" clip-rule="evenodd" d="M2.87868 4.87868C3.44129 4.31607 4.20435 4 5 4H19C19.7957 4 20.5587 4.31607 21.1213 4.87868C21.6839 5.44129 22 6.20435 22 7V17C22 17.7957 21.6839 18.5587 21.1213 19.1213C20.5587 19.6839 19.7957 20 19 20H13C12.4477 20 12 19.5523 12 19C12 18.4477 12.4477 18 13 18H19C19.2652 18 19.5196 17.8946 19.7071 17.7071C19.8946 17.5196 20 17.2652 20 17V7C20 6.73478 19.8946 6.48043 19.7071 6.29289C19.5196 6.10536 19.2652 6 19 6H5C4.73478 6 4.48043 6.10536 4.29289 6.29289C4.10536 6.48043 4 6.73478 4 7V11C4 11.5523 3.55228 12 3 12C2.44772 12 2 11.5523 2 11V7C2 6.20435 2.31607 5.44129 2.87868 4.87868ZM16.2929 8.29289C16.6834 7.90237 17.3166 7.90237 17.7071 8.29289C18.0976 8.68342 18.0976 9.31658 17.7071 9.70711L15.4142 12H16C16.5523 12 17 12.4477 17 13C17 13.5523 16.5523 14 16 14H13C12.4477 14 12 13.5523 12 13V10C12 9.44772 12.4477 9 13 9C13.5523 9 14 9.44772 14 10V10.5858L16.2929 8.29289ZM2 15C2 13.8954 2.89543 13 4 13H9C10.1046 13 11 13.8954 11 15V18C11 19.1046 10.1046 20 9 20H4C2.89543 20 2 19.1046 2 18V15ZM9 15H4V18H9V15Z"/>
</svg>
