<svg width="24" height="24" viewBox="0 0 24 24" xmlns="http://www.w3.org/2000/svg">
<path fill-rule="evenodd" clip-rule="evenodd" d="M15.9547 3.00103C16.2354 2.9883 16.5085 3.09423 16.7072 3.29289L20.7072 7.29289C21.0977 7.68342 21.0977 8.31658 20.7072 8.70711C20.3166 9.09763 19.6835 9.09763 19.293 8.70711L16.0673 5.48141L11.7683 10.6402C11.4712 10.9967 10.9679 11.102 10.5528 10.8944L7.29931 9.26766L4.80006 12.6C4.46869 13.0418 3.84189 13.1314 3.40006 12.8C2.95823 12.4686 2.86869 11.8418 3.20006 11.4L6.20006 7.4C6.49003 7.01337 7.01501 6.88944 7.44727 7.10557L10.7389 8.75137L15.2318 3.35982C15.4117 3.14398 15.6741 3.01376 15.9547 3.00103ZM15.9448 9.00153C16.2288 8.9858 16.506 9.09176 16.7072 9.29289L20.7072 13.2929C20.8947 13.4804 21.0001 13.7348 21.0001 14V19C21.0001 19.5523 20.5523 20 20.0001 20H4.00006C3.63126 20 3.2924 19.797 3.11838 19.4719C2.94437 19.1467 2.96344 18.7522 3.16801 18.4453L7.16801 12.4453C7.44776 12.0257 7.99619 11.88 8.44727 12.1056L11.7242 13.744L15.2192 9.37531C15.3969 9.15319 15.6608 9.01726 15.9448 9.00153ZM16.083 11.4971L12.7809 15.6247C12.4864 15.9929 11.9746 16.1053 11.5528 15.8944L8.34243 14.2892L5.86858 18H19.0001V14.4142L16.083 11.4971Z"/>
</svg>
