<svg width="24" height="24" viewBox="0 0 24 24" xmlns="http://www.w3.org/2000/svg">
<path fill-rule="evenodd" clip-rule="evenodd" d="M11.2929 6.29289C11.6834 5.90237 12.3166 5.90237 12.7071 6.29289L15.7071 9.29289C16.0976 9.68342 16.0976 10.3166 15.7071 10.7071C15.3166 11.0976 14.6834 11.0976 14.2929 10.7071L12 8.41421L9.70711 10.7071C9.31658 11.0976 8.68342 11.0976 8.29289 10.7071C7.90237 10.3166 7.90237 9.68342 8.29289 9.29289L11.2929 6.29289ZM8.29289 13.2929C8.68342 12.9024 9.31658 12.9024 9.70711 13.2929L12 15.5858L14.2929 13.2929C14.6834 12.9024 15.3166 12.9024 15.7071 13.2929C16.0976 13.6834 16.0976 14.3166 15.7071 14.7071L12.7071 17.7071C12.3166 18.0976 11.6834 18.0976 11.2929 17.7071L8.29289 14.7071C7.90237 14.3166 7.90237 13.6834 8.29289 13.2929Z"/>
</svg>
