<svg width="24" height="24" viewBox="0 0 24 24" xmlns="http://www.w3.org/2000/svg">
<path fill-rule="evenodd" clip-rule="evenodd" d="M18 3.06351C17.478 3.06351 16.9651 3.1997 16.5119 3.45862C16.0586 3.71754 15.6808 4.09023 15.4157 4.53988C15.1506 4.98952 15.0074 5.50055 15.0003 6.02247C14.9934 6.52807 15.1144 7.02694 15.3516 7.47285L18 11.2562L20.6483 7.47285C20.8856 7.02694 21.0066 6.52807 20.9997 6.02247C20.9926 5.50055 20.8494 4.98952 20.5843 4.53988C20.3192 4.09023 19.9414 3.71754 19.4881 3.45862C19.0349 3.1997 18.522 3.06351 18 3.06351ZM15.5198 1.72203C16.2751 1.29049 17.13 1.06351 18 1.06351C18.87 1.06351 19.7249 1.29049 20.4802 1.72203C21.2356 2.15356 21.8653 2.77472 22.3071 3.52412C22.749 4.27353 22.9876 5.12524 22.9995 5.99512C23.0114 6.86499 22.7962 7.72291 22.375 8.48412C22.358 8.51486 22.3394 8.54468 22.3192 8.57346L18.8192 13.5735C18.6321 13.8408 18.3263 14 18 14C17.6737 14 17.3679 13.8408 17.1808 13.5735L13.6808 8.57346C13.6606 8.54468 13.642 8.51486 13.625 8.48412C13.2038 7.72291 12.9886 6.86499 13.0005 5.99512C13.0124 5.12524 13.251 4.27353 13.6929 3.52412C14.1347 2.77472 14.7644 2.15356 15.5198 1.72203ZM8.55279 3.10557C8.83431 2.96481 9.16569 2.96481 9.44721 3.10557L10.9472 3.85557C11.4412 4.10256 11.6414 4.70323 11.3944 5.19721C11.1474 5.69119 10.5468 5.89142 10.0528 5.64443L10 5.61803V16.382L14 18.382V15C14 14.4477 14.4477 14 15 14C15.5523 14 16 14.4477 16 15V18.382L20 16.382V15C20 14.4477 20.4477 14 21 14C21.5523 14 22 14.4477 22 15V17C22 17.3788 21.786 17.725 21.4472 17.8944L15.4472 20.8944C15.1657 21.0352 14.8343 21.0352 14.5528 20.8944L9 18.118L3.44721 20.8944C3.13722 21.0494 2.76909 21.0329 2.47427 20.8506C2.17945 20.6684 2 20.3466 2 20V7C2 6.62123 2.214 6.27496 2.55279 6.10557L8.55279 3.10557ZM8 16.382V5.61803L4 7.61803V18.382L8 16.382ZM18 5C18.5523 5 19 5.44771 19 6V6.01C19 6.56228 18.5523 7.01 18 7.01C17.4477 7.01 17 6.56228 17 6.01V6C17 5.44771 17.4477 5 18 5Z"/>
</svg>
