<svg width="24" height="24" viewBox="0 0 24 24" xmlns="http://www.w3.org/2000/svg">
<path fill-rule="evenodd" clip-rule="evenodd" d="M7.50464 3.06495C9.38367 2.11825 11.5134 1.78836 13.5908 2.12222C15.6682 2.45607 17.5874 3.43668 19.0751 4.92446C20.5629 6.41224 21.5435 8.33139 21.8774 10.4088C22.2112 12.4862 21.8813 14.6159 20.9346 16.4949C20.6861 16.9882 20.0849 17.1866 19.5916 16.9381C19.0984 16.6896 18.9 16.0883 19.1485 15.5951C19.9059 14.0918 20.1698 12.388 19.9027 10.7261C19.6356 9.06422 18.8511 7.52889 17.6609 6.33867C16.4707 5.14844 14.9354 4.36396 13.2735 4.09688C11.6116 3.82979 9.90775 4.09371 8.40453 4.85106C7.91131 5.09956 7.31003 4.90117 7.06153 4.40795C6.81303 3.91473 7.01142 3.31344 7.50464 3.06495ZM2.29248 2.2929C2.683 1.90237 3.31617 1.90237 3.70669 2.2929L6.30466 4.89087C6.31996 4.90463 6.33494 4.91895 6.34956 4.93382C6.36018 4.94462 6.37051 4.95559 6.38053 4.96674L21.7067 20.2929C22.0972 20.6834 22.0972 21.3166 21.7067 21.7071C21.3162 22.0976 20.683 22.0976 20.2925 21.7071L18.3329 19.7475C17.5787 20.3733 16.7352 20.886 15.8286 21.2678C14.6121 21.7802 13.3061 22.0466 11.986 22.0517C10.6659 22.0568 9.35794 21.8006 8.13743 21.2976C6.91691 20.7947 5.80806 20.0551 4.87481 19.1215C3.94156 18.1879 3.2024 17.0787 2.69995 15.858C2.19751 14.6373 1.94172 13.3292 1.94736 12.0091C1.95299 10.6891 2.21993 9.3832 2.73277 8.16682C3.11441 7.26165 3.6266 6.41936 4.25156 5.66619L2.29248 3.70711C1.90196 3.31659 1.90196 2.68342 2.29248 2.2929ZM5.67342 7.08805C5.22638 7.65308 4.85676 8.27713 4.57567 8.94382C4.16539 9.91692 3.95184 10.9616 3.94734 12.0177C3.94283 13.0737 4.14746 14.1202 4.54942 15.0968C4.95137 16.0733 5.5427 16.9607 6.2893 17.7075C7.0359 18.4544 7.92299 19.0461 8.89939 19.4485C9.8758 19.8508 10.9222 20.0558 11.9783 20.0517C13.0343 20.0477 14.0791 19.8345 15.0524 19.4246C15.7201 19.1434 16.3452 18.7733 16.911 18.3257L5.67342 7.08805Z"/>
</svg>
