<svg width="24" height="24" viewBox="0 0 24 24" xmlns="http://www.w3.org/2000/svg">
<path fill-rule="evenodd" clip-rule="evenodd" d="M12 10C10.8954 10 10 10.8954 10 12C10 13.1046 10.8954 14 12 14C13.1046 14 14 13.1046 14 12C14 10.8954 13.1046 10 12 10ZM8 12C8 9.79086 9.79086 8 12 8C14.2091 8 16 9.79086 16 12C16 14.2091 14.2091 16 12 16C9.79086 16 8 14.2091 8 12Z"/>
<path fill-rule="evenodd" clip-rule="evenodd" d="M9.32795 3.9319C10.1781 1.35603 13.8219 1.35603 14.672 3.9319C14.8285 4.40596 15.3697 4.63014 15.8156 4.40557C18.2382 3.18532 20.8147 5.76183 19.5944 8.18442C19.3699 8.63026 19.594 9.17149 20.0681 9.32795C22.644 10.1781 22.644 13.8219 20.0681 14.672C19.594 14.8285 19.3699 15.3697 19.5944 15.8156C20.8147 18.2382 18.2382 20.8147 15.8156 19.5944C15.3697 19.3699 14.8285 19.594 14.672 20.0681C13.8219 22.644 10.1781 22.644 9.32795 20.0681C9.17149 19.594 8.63026 19.3699 8.18442 19.5944C5.76183 20.8147 3.18532 18.2382 4.40557 15.8156C4.63014 15.3697 4.40596 14.8285 3.9319 14.672C1.35603 13.8219 1.35603 10.1781 3.9319 9.32795C4.40596 9.17149 4.63014 8.63026 4.40557 8.18442C3.18532 5.76183 5.76183 3.18532 8.18442 4.40557C8.63026 4.63014 9.17149 4.40596 9.32795 3.9319ZM12.776 4.55772C12.5291 3.8097 11.4709 3.8097 11.224 4.55772C10.6853 6.19015 8.82148 6.96215 7.28619 6.18883C6.58268 5.83448 5.83448 6.58269 6.18883 7.28619C6.96215 8.82148 6.19015 10.6853 4.55772 11.224C3.8097 11.4709 3.8097 12.5291 4.55772 12.776C6.19015 13.3147 6.96215 15.1785 6.18883 16.7138C5.83448 17.4173 6.58268 18.1655 7.28619 17.8112C8.82148 17.0378 10.6853 17.8098 11.224 19.4423C11.4709 20.1903 12.5291 20.1903 12.776 19.4423C13.3147 17.8099 15.1785 17.0378 16.7138 17.8112C17.4173 18.1655 18.1655 17.4173 17.8112 16.7138C17.0378 15.1785 17.8098 13.3147 19.4423 12.776C20.1903 12.5291 20.1903 11.4709 19.4423 11.224C17.8099 10.6853 17.0378 8.82148 17.8112 7.28619C18.1655 6.58268 17.4173 5.83448 16.7138 6.18883C15.1785 6.96215 13.3147 6.19015 12.776 4.55772Z"/>
</svg>
