<svg width="24" height="24" viewBox="0 0 24 24" xmlns="http://www.w3.org/2000/svg">
<path fill-rule="evenodd" clip-rule="evenodd" d="M6 5C5.73478 5 5.48043 5.10536 5.29289 5.29289C5.10536 5.48043 5 5.73478 5 6V14C4.99998 14.1758 5.04633 14.3487 5.13438 14.5009C5.22243 14.6531 5.34906 14.7795 5.5015 14.8671C5.98027 15.1424 6.1452 15.7537 5.86989 16.2325C5.59458 16.7113 4.98327 16.8762 4.5045 16.6009C4.04717 16.3379 3.66728 15.959 3.40314 15.5023C3.13902 15.0457 2.99996 14.5275 3 14C3 14 3 14 3 14V6C3 5.20435 3.31607 4.44129 3.87868 3.87868C4.44129 3.31607 5.20435 3 6 3H14C14.7956 3 15.5587 3.31607 16.1213 3.87868C16.6839 4.44129 17 5.20435 17 6V14C17 14.7957 16.6839 15.5587 16.1213 16.1213C15.5587 16.6839 14.7957 17 14 17H11C10.4477 17 10 16.5523 10 16C10 15.4477 10.4477 15 11 15H14C14.2652 15 14.5196 14.8946 14.7071 14.7071C14.8946 14.5196 15 14.2652 15 14V6C15 5.73478 14.8946 5.48043 14.7071 5.29289C14.5196 5.10536 14.2652 5 14 5H6ZM10 9C9.73478 9 9.48043 9.10536 9.29289 9.29289C9.10536 9.48043 9 9.73478 9 10V18C9 18.2652 9.10536 18.5196 9.29289 18.7071C9.48043 18.8946 9.73478 19 10 19H18C18.2652 19 18.5196 18.8946 18.7071 18.7071C18.8946 18.5196 19 18.2652 19 18V10C19 9.82449 18.9538 9.65205 18.866 9.50004C18.7783 9.34803 18.652 9.22179 18.5 9.13403C18.0217 8.85788 17.8578 8.24629 18.134 7.768C18.4101 7.28971 19.0217 7.12583 19.5 7.40197C19.956 7.66527 20.3348 8.04397 20.5981 8.50002C20.8614 8.95606 21 9.47338 21 10V18C21 18.7957 20.6839 19.5587 20.1213 20.1213C19.5587 20.6839 18.7957 21 18 21H10C9.20435 21 8.44129 20.6839 7.87868 20.1213C7.31607 19.5587 7 18.7957 7 18V10C7 9.20435 7.31607 8.44129 7.87868 7.87868C8.44129 7.31607 9.20435 7 10 7H13C13.5523 7 14 7.44772 14 8C14 8.55228 13.5523 9 13 9H10Z"/>
</svg>
