<svg width="24" height="24" viewBox="0 0 24 24" xmlns="http://www.w3.org/2000/svg">
<path fill-rule="evenodd" clip-rule="evenodd" d="M17 5.13505L12.6402 8.76823C12.4605 8.91799 12.2339 9.00001 12 9.00001H11V13H12C12.2339 13 12.4605 13.082 12.6402 13.2318L17 16.865V5.13505ZM19 9.26795V12.7321C19.1501 12.6454 19.2895 12.5389 19.4142 12.4142C19.7893 12.0392 20 11.5304 20 11C20 10.4696 19.7893 9.96087 19.4142 9.58579C19.2895 9.46112 19.1501 9.3546 19 9.26795ZM19 14.873C19.686 14.6959 20.3189 14.338 20.8284 13.8284C21.5786 13.0783 22 12.0609 22 11C22 9.93914 21.5786 8.92173 20.8284 8.17158C20.3189 7.66204 19.686 7.30417 19 7.12701V4.92252M19 14.873V17.0775C19 17.0777 19 17.0773 19 17.0775C19.0001 17.4385 18.8973 17.7926 18.7038 18.0973C18.5101 18.4021 18.2336 18.6455 17.9065 18.7988C17.5795 18.9521 17.2156 19.009 16.8574 18.9629C16.4992 18.9168 16.1615 18.7695 15.884 18.5384L11.638 15H11V19C11 19.5304 10.7893 20.0392 10.4142 20.4142C10.0391 20.7893 9.53043 21 9 21H8C7.46957 21 6.96086 20.7893 6.58579 20.4142C6.21071 20.0392 6 19.5304 6 19V15H4C3.46957 15 2.96086 14.7893 2.58579 14.4142C2.21071 14.0392 2 13.5304 2 13V9.00001C2 8.46958 2.21071 7.96087 2.58579 7.5858C2.96086 7.21072 3.46957 7.00001 4 7.00001H11.6379L15.8838 3.46179C16.1613 3.23064 16.4992 3.08322 16.8574 3.0371C17.2156 2.99098 17.5795 3.04791 17.9065 3.20123C18.2336 3.35455 18.5101 3.59789 18.7038 3.90275C18.8973 4.20747 19.0001 4.56153 19 4.92252M9 9.00001H4V13H9V9.00001ZM9 15H8V19H9V15Z"/>
</svg>
