<svg width="24" height="24" viewBox="0 0 24 24" xmlns="http://www.w3.org/2000/svg">
<path fill-rule="evenodd" clip-rule="evenodd" d="M5.16916 4.05635C5.27551 4.01905 5.3874 4 5.50011 4H18.5001C18.6128 4 18.7247 4.01905 18.8311 4.05635C19.1191 4.15737 19.3802 4.32297 19.5943 4.54048C19.8085 4.75799 19.97 5.02162 20.0665 5.31119C20.163 5.60076 20.192 5.90858 20.1512 6.21108C20.1104 6.51358 20.0009 6.80272 19.8311 7.05635C19.8036 7.09732 19.7732 7.13619 19.74 7.17267L15.0001 12.3866V20C15.0001 20.3788 14.7861 20.725 14.4473 20.8944C14.1085 21.0638 13.7031 21.0273 13.4001 20.8L9.40011 17.8C9.1483 17.6111 9.00011 17.3148 9.00011 17V12.3866L4.26017 7.17267C4.22701 7.1362 4.19659 7.09732 4.16916 7.05635C3.99934 6.80272 3.88983 6.51358 3.84902 6.21108C3.8082 5.90859 3.83716 5.60077 3.93369 5.31119C4.03021 5.02162 4.19174 4.75798 4.40588 4.54048C4.62003 4.32297 4.88112 4.15737 5.16916 4.05635ZM5.89702 6L10.74 11.3273C10.9074 11.5114 11.0001 11.7512 11.0001 12V16.5L13.0001 18V12C13.0001 11.7512 13.0928 11.5114 13.2602 11.3273L18.1032 6H5.89702Z"/>
<path d="M17.0001 13C17.0001 12.4477 17.4478 12 18.0001 12H21.0001C21.5524 12 22.0001 12.4477 22.0001 13C22.0001 13.5523 21.5524 14 21.0001 14H18.0001C17.4478 14 17.0001 13.5523 17.0001 13Z"/>
<path d="M17.0001 16C17.0001 15.4477 17.4478 15 18.0001 15H20.0001C20.5524 15 21.0001 15.4477 21.0001 16C21.0001 16.5523 20.5524 17 20.0001 17H18.0001C17.4478 17 17.0001 16.5523 17.0001 16Z"/>
</svg>
