<svg width="24" height="24" viewBox="0 0 24 24" xmlns="http://www.w3.org/2000/svg">
<path fill-rule="evenodd" clip-rule="evenodd" d="M7 5C5.89543 5 5 5.89543 5 7V12.5858L7.29289 10.2929C7.88147 9.71549 8.66577 9.33013 9.5 9.33013C10.3343 9.33013 11.1185 9.71551 11.7071 10.2929L14 12.5858L14.2929 12.2929C14.8815 11.7155 15.6658 11.3301 16.5 11.3301C17.3358 11.3301 18.091 11.6998 18.6934 12.2794L19 12.5858V7C19 5.89543 18.1046 5 17 5H7ZM21 14.999V7C21 4.79086 19.2091 3 17 3H7C4.79086 3 3 4.79086 3 7V14.9998V17C3 19.2091 4.79086 21 7 21H17C19.2091 21 21 19.2091 21 17V15.001V14.999ZM19 15.4142L17.3003 13.7146C16.9931 13.4213 16.7159 13.3301 16.5 13.3301C16.2841 13.3301 16.0069 13.4213 15.6997 13.7146L15.4142 14L16.7071 15.2929C17.0976 15.6834 17.0976 16.3166 16.7071 16.7071C16.3166 17.0976 15.6834 17.0976 15.2929 16.7071L10.3003 11.7146C9.99311 11.4213 9.71594 11.3301 9.5 11.3301C9.28406 11.3301 9.00689 11.4213 8.69966 11.7146L5 15.4142V17C5 18.1046 5.89543 19 7 19H17C18.1046 19 19 18.1046 19 17V15.4142ZM14 8C14 7.44772 14.4477 7 15 7C15.5487 7 16.01 7.4471 16.01 8C16.01 8.55228 15.5523 9 15 9C14.4513 9 14 8.5529 14 8Z"/>
</svg>
