<svg width="24" height="24" viewBox="0 0 24 24" xmlns="http://www.w3.org/2000/svg">
<path fill-rule="evenodd" clip-rule="evenodd" d="M13.2933 4.2929C14.1438 3.44233 15.2975 2.96448 16.5004 2.96448C17.7033 2.96448 18.8569 3.44233 19.7075 4.2929C20.5581 5.14348 21.0359 6.29711 21.0359 7.50001C21.0359 8.70291 20.5581 9.85654 19.7075 10.7071L15.7109 14.7037C15.2927 15.1295 14.7939 15.4679 14.2436 15.6991C13.6917 15.9311 13.0991 16.0505 12.5004 16.0505C11.9017 16.0505 11.309 15.9311 10.7571 15.6991C10.2052 15.4672 9.70508 15.1275 9.28609 14.6999C8.89957 14.3054 8.90603 13.6722 9.30052 13.2857C9.69501 12.8992 10.3281 12.9057 10.7147 13.3002C10.9474 13.5377 11.2253 13.7265 11.5319 13.8553C11.8385 13.9842 12.1678 14.0505 12.5004 14.0505C12.833 14.0505 13.1622 13.9842 13.4689 13.8553C13.7785 13.7252 14.0584 13.5326 14.2932 13.2929L18.2933 9.2929C18.7688 8.8174 19.0359 8.17248 19.0359 7.50001C19.0359 6.82755 18.7688 6.18262 18.2933 5.70712C17.8178 5.23161 17.1728 4.96448 16.5004 4.96448C15.8279 4.96448 15.183 5.23161 14.7075 5.70712L14.2075 6.20712C13.817 6.59764 13.1838 6.59764 12.7933 6.20712C12.4027 5.81659 12.4027 5.18343 12.7933 4.7929L13.2933 4.2929ZM9.75711 8.30088C10.309 8.06896 10.9017 7.9495 11.5004 7.9495C12.0991 7.9495 12.6917 8.06896 13.2436 8.30088C13.7956 8.53281 14.2957 8.87253 14.7147 9.30016C15.1012 9.69465 15.0947 10.3278 14.7002 10.7143C14.3057 11.1008 13.6726 11.0944 13.2861 10.6999C13.0533 10.4623 12.7755 10.2736 12.4689 10.1447C12.1622 10.0159 11.833 9.9495 11.5004 9.9495C11.1678 9.9495 10.8385 10.0159 10.5319 10.1447C10.2253 10.2736 9.94743 10.4623 9.71466 10.6999L5.70748 14.7071C5.23198 15.1826 4.96484 15.8275 4.96484 16.5C4.96484 17.1725 5.23198 17.8174 5.70748 18.2929C6.18299 18.7684 6.82791 19.0355 7.50038 19.0355C8.17284 19.0355 8.81777 18.7684 9.29327 18.2929L9.79327 17.7929C10.1838 17.4024 10.817 17.4024 11.2075 17.7929C11.598 18.1834 11.598 18.8166 11.2075 19.2071L10.7075 19.7071C9.85691 20.5577 8.70328 21.0355 7.50038 21.0355C6.29748 21.0355 5.14385 20.5577 4.29327 19.7071C3.44269 18.8565 2.96484 17.7029 2.96484 16.5C2.96484 15.2971 3.44269 14.1435 4.29327 13.2929L8.28985 9.29632C8.70807 8.8705 9.20683 8.53211 9.75711 8.30088Z"/>
</svg>
