<svg width="24" height="24" viewBox="0 0 24 24" xmlns="http://www.w3.org/2000/svg">
<path fill-rule="evenodd" clip-rule="evenodd" d="M5 5C4.44772 5 4 5.44772 4 6C4 6.55228 4.44772 7 5 7H19C19.5523 7 20 6.55228 20 6C20 5.44771 19.5523 5 19 5H5ZM2 6C2 4.34315 3.34315 3 5 3H19C20.6569 3 22 4.34315 22 6C22 7.30622 21.1652 8.41746 20 8.82929V18C20 18.7957 19.6839 19.5587 19.1213 20.1213C18.5587 20.6839 17.7957 21 17 21H7C6.20435 21 5.44129 20.6839 4.87868 20.1213C4.31607 19.5587 4 18.7956 4 18V8.82929C2.83481 8.41746 2 7.30622 2 6ZM6 9V18C6 18.2652 6.10536 18.5196 6.29289 18.7071C6.48043 18.8946 6.73478 19 7 19H17C17.2652 19 17.5196 18.8946 17.7071 18.7071C17.8946 18.5196 18 18.2652 18 18V9H6ZM9 12C9 11.4477 9.44772 11 10 11H14C14.5523 11 15 11.4477 15 12C15 12.5523 14.5523 13 14 13H10C9.44772 13 9 12.5523 9 12Z"/>
</svg>
