<svg width="24" height="24" viewBox="0 0 24 24" xmlns="http://www.w3.org/2000/svg">
<path fill-rule="evenodd" clip-rule="evenodd" d="M12 3C11.4696 3 10.9609 3.21071 10.5858 3.58579C10.3011 3.87051 10.111 4.23225 10.036 4.62204L14 8.58871V5C14 4.46957 13.7893 3.96086 13.4142 3.58579C13.0391 3.21071 12.5304 3 12 3ZM16 10C16 10.3948 15.9416 10.7875 15.8267 11.1652C15.7244 11.5013 15.4532 11.759 15.1124 11.8442C14.7715 11.9293 14.411 11.8294 14.1627 11.5809L8.29265 5.70687C8.10526 5.51935 8 5.2651 8 5C8 3.93913 8.42143 2.92172 9.17157 2.17157C9.92172 1.42143 10.9391 1 12 1C13.0609 1 14.0783 1.42143 14.8284 2.17157C15.5786 2.92172 16 3.93913 16 5V10ZM2.29289 2.29289C2.68342 1.90237 3.31658 1.90237 3.70711 2.29289L21.7071 20.2929C22.0976 20.6834 22.0976 21.3166 21.7071 21.7071C21.3166 22.0976 20.6834 22.0976 20.2929 21.7071L15.6868 17.101C14.8482 17.5365 13.9385 17.8202 13 17.9385V20H16C16.5523 20 17 20.4477 17 21C17 21.5523 16.5523 22 16 22H8C7.44772 22 7 21.5523 7 21C7 20.4477 7.44772 20 8 20H11V17.9385C10.0239 17.8155 9.07492 17.513 8.20225 17.0423C6.93148 16.3569 5.8699 15.3404 5.13007 14.1005C4.39024 12.8606 3.99975 11.4436 4 9.99983C4.0001 9.44754 4.44789 8.9999 5.00017 9C5.55246 9.0001 6.0001 9.44789 6 10.0002C5.99981 11.083 6.29268 12.1458 6.84755 13.0757C7.40243 14.0056 8.19861 14.768 9.15168 15.282C10.028 15.7547 10.9974 16 12 16C12.0878 16 12.174 15.9993 12.261 15.9955C12.9206 15.9668 13.5679 15.8296 14.1778 15.592L12.5506 13.9648C12.1414 14.0217 11.7245 14.015 11.315 13.9438C10.6996 13.8369 10.1178 13.5873 9.61623 13.215C9.11465 12.8428 8.70722 12.3583 8.42656 11.8003C8.14594 11.2424 7.99986 10.6245 8 10V9.41421L2.29289 3.70711C1.90237 3.31658 1.90237 2.68342 2.29289 2.29289ZM18.9982 9C19.5505 8.999 19.999 9.4459 20 9.99818C20.0028 11.5633 19.5447 13.0945 18.6826 14.4008C18.3785 14.8617 17.7582 14.9888 17.2972 14.6846C16.8363 14.3805 16.7092 13.7602 17.0134 13.2992C17.659 12.3209 18.0021 11.174 18 10.0018C17.999 9.44954 18.4459 9.00101 18.9982 9Z"/>
</svg>
