<svg width="24" height="24" viewBox="0 0 24 24" xmlns="http://www.w3.org/2000/svg">
<path fill-rule="evenodd" clip-rule="evenodd" d="M12 9C10.3431 9 9 10.3431 9 12C9 13.6569 10.3431 15 12 15C13.6569 15 15 13.6569 15 12C15 10.3431 13.6569 9 12 9ZM7 12C7 9.23857 9.23857 7 12 7C14.7614 7 17 9.23857 17 12C17 14.7614 14.7614 17 12 17C9.23857 17 7 14.7614 7 12Z"/>
<path fill-rule="evenodd" clip-rule="evenodd" d="M8.61493 2.5788C10.6368 1.85142 12.8393 1.79467 14.896 2.41695C16.9527 3.03923 18.7542 4.30744 20.0338 6.03372C21.3133 7.76 22.0028 9.85251 22 12.0013V13.5C22 14.4283 21.6312 15.3185 20.9749 15.9749C20.3185 16.6313 19.4283 17 18.5 17C17.5717 17 16.6815 16.6313 16.0251 15.9749C15.61 15.5598 15.369 14.961 15.2305 14.4875C15.0838 13.9858 15 13.441 15 13C15 12.4477 15.4477 12 16 12C16.5523 12 17 12.4477 17 13C17 13.2221 17.0479 13.5767 17.1501 13.926C17.2605 14.3033 17.3856 14.5069 17.4393 14.5607C17.7206 14.842 18.1022 15 18.5 15C18.8978 15 19.2794 14.842 19.5607 14.5607C19.842 14.2794 20 13.8978 20 13.5V11.9987C20.0022 10.2797 19.4506 8.60568 18.427 7.22466C17.4034 5.84364 15.9621 4.82907 14.3168 4.33125C12.6714 3.83342 10.9095 3.87882 9.29194 4.46073C7.67441 5.04263 6.28733 6.13008 5.33618 7.56198C4.38504 8.99389 3.92042 10.6941 4.01116 12.4107C4.10189 14.1273 4.74316 15.7691 5.83996 17.0927C6.93676 18.4164 8.43075 19.3515 10.1006 19.7597C11.7705 20.1678 13.5274 20.0272 15.1111 19.3587C15.6199 19.1439 16.2065 19.3823 16.4213 19.8911C16.6361 20.3999 16.3977 20.9865 15.8889 21.2013C13.9093 22.0369 11.7131 22.2127 9.62577 21.7025C7.53843 21.1923 5.67095 20.0234 4.29995 18.3688C2.92895 16.7142 2.12737 14.6621 2.01395 12.5163C1.90052 10.3705 2.4813 8.24525 3.67023 6.45537C4.85916 4.66549 6.59301 3.30618 8.61493 2.5788Z"/>
</svg>
