<svg width="24" height="24" viewBox="0 0 24 24" xmlns="http://www.w3.org/2000/svg">
<path fill-rule="evenodd" clip-rule="evenodd" d="M8.29302 5.29289C8.48056 5.10536 8.73491 5 9.00013 5H20.0001C20.5306 5 21.0393 5.21071 21.4143 5.58579C21.7894 5.96086 22.0001 6.46957 22.0001 7V17C22.0001 17.5304 21.7894 18.0391 21.4143 18.4142C21.0393 18.7893 20.5306 19 20.0001 19H9.00013C8.73491 19 8.48056 18.8946 8.29302 18.7071L3.29302 13.7071C3.2799 13.694 3.26715 13.6805 3.25477 13.6667C2.84481 13.2083 2.61816 12.6149 2.61816 12C2.61816 11.3851 2.84481 10.7917 3.25477 10.3333C3.26715 10.3195 3.2799 10.306 3.29302 10.2929L8.29302 5.29289ZM9.41434 7L4.7322 11.6821C4.65861 11.7715 4.61816 11.8838 4.61816 12C4.61816 12.1162 4.65861 12.2285 4.7322 12.3179L9.41434 17H20.0001V7H9.41434ZM11.293 9.29289C11.6835 8.90237 12.3167 8.90237 12.7072 9.29289L14.0001 10.5858L15.293 9.29289C15.6835 8.90237 16.3167 8.90237 16.7072 9.29289C17.0978 9.68342 17.0978 10.3166 16.7072 10.7071L15.4143 12L16.7072 13.2929C17.0978 13.6834 17.0978 14.3166 16.7072 14.7071C16.3167 15.0976 15.6835 15.0976 15.293 14.7071L14.0001 13.4142L12.7072 14.7071C12.3167 15.0976 11.6835 15.0976 11.293 14.7071C10.9025 14.3166 10.9025 13.6834 11.293 13.2929L12.5859 12L11.293 10.7071C10.9025 10.3166 10.9025 9.68342 11.293 9.29289Z"/>
</svg>
