<svg width="24" height="24" viewBox="0 0 24 24" xmlns="http://www.w3.org/2000/svg">
<path fill-rule="evenodd" clip-rule="evenodd" d="M7 6C6.46957 6 5.96086 6.21071 5.58579 6.58579C5.21071 6.96086 5 7.46957 5 8V14C5 14.5304 5.21071 15.0391 5.58579 15.4142C5.96086 15.7893 6.46957 16 7 16H9C9.26522 16 9.51957 16.1054 9.70711 16.2929L12 18.5858L14.2929 16.2929C14.4804 16.1054 14.7348 16 15 16H17C17.5304 16 18.0391 15.7893 18.4142 15.4142C18.7893 15.0391 19 14.5304 19 14V8C19 7.46957 18.7893 6.96086 18.4142 6.58579C18.0391 6.21071 17.5304 6 17 6H7ZM4.17157 5.17157C4.92172 4.42143 5.93913 4 7 4H17C18.0609 4 19.0783 4.42143 19.8284 5.17157C20.5786 5.92172 21 6.93913 21 8V14C21 15.0609 20.5786 16.0783 19.8284 16.8284C19.0783 17.5786 18.0609 18 17 18H15.4142L12.7071 20.7071C12.3166 21.0976 11.6834 21.0976 11.2929 20.7071L8.58579 18H7C5.93913 18 4.92172 17.5786 4.17157 16.8284C3.42143 16.0783 3 15.0609 3 14V8C3 6.93913 3.42143 5.92172 4.17157 5.17157ZM7 9C7 8.44772 7.44772 8 8 8H16C16.5523 8 17 8.44772 17 9C17 9.55228 16.5523 10 16 10H8C7.44772 10 7 9.55228 7 9ZM7 13C7 12.4477 7.44772 12 8 12H14C14.5523 12 15 12.4477 15 13C15 13.5523 14.5523 14 14 14H8C7.44772 14 7 13.5523 7 13Z"/>
</svg>
