<svg width="24" height="24" viewBox="0 0 24 24" xmlns="http://www.w3.org/2000/svg">
<path d="M6 9H12M6 9V15M6 9C6.06448 7.43039 6.71713 5.94231 7.82852 4.83092C8.93991 3.71953 10.4288 3.06602 12 3M12 9V15M12 9V3M12 9H18M12 15H6M12 15C11.9316 16.5707 11.2772 18.0585 10.1663 19.1695C9.05534 20.2804 7.56864 20.9336 6 21V15M12 15C13.5701 14.934 15.0582 14.2807 16.1695 13.1695C17.2807 12.0582 17.934 10.5701 18 9M12 3C13.5712 3.06602 15.0601 3.71953 16.1715 4.83092C17.2829 5.94231 17.9355 7.43039 18 9" stroke-width="2"/>
</svg>
