<svg xmlns="http://www.w3.org/2000/svg" viewBox="0 0 24 24">
	<circle fill-rule="evenodd" clip-rule="evenodd" fill="#0F1139" cx="12" cy="12" r="12"/>
	<path fill-rule="evenodd" clip-rule="evenodd" fill="#FFFFFF" d="M12,5.4l4.6,3.4c0.4,0.3,0.5,1,0.2,1.4c-0.3,0.4-1,0.5-1.4,0.2L12,7.9l-3.4,2.5c-0.4,0.3-1.1,0.2-1.4-0.2 C6.9,9.8,7,9.1,7.4,8.8L12,5.4z M12,9.4l4.6,3.4c0.4,0.3,0.5,1,0.2,1.4c-0.3,0.4-1,0.5-1.4,0.2L12,11.9l-3.4,2.5 c-0.4,0.3-1.1,0.2-1.4-0.2c-0.3-0.4-0.2-1.1,0.2-1.4L12,9.4z M12,13.4l4.6,3.4c0.4,0.3,0.5,1,0.2,1.4c-0.3,0.4-1,0.5-1.4,0.2 L12,15.9l-3.4,2.6c-0.4,0.3-1.1,0.2-1.4-0.2S7,17.2,7.4,16.9L12,13.4z"/>
</svg>
