<svg width="24" height="24" viewBox="0 0 24 24" xmlns="http://www.w3.org/2000/svg">
<path fill-rule="evenodd" clip-rule="evenodd" d="M11.6286 4.07152C11.867 3.97616 12.133 3.97616 12.3714 4.07152L22.3714 8.07152C22.751 8.22339 23 8.5911 23 9V15C23 15.5523 22.5523 16 22 16C21.4477 16 21 15.5523 21 15V10.477L19 11.277V16C19 17.3662 17.939 18.3912 16.6899 19.0157C15.3939 19.6637 13.7065 20 12 20C10.2935 20 8.60606 19.6637 7.31015 19.0157C6.06101 18.3912 5 17.3662 5 16V11.277L1.62861 9.92848C1.24895 9.77661 1 9.4089 1 9C1 8.5911 1.24895 8.22339 1.62861 8.07152L11.6286 4.07152ZM6.39244 9.67994C6.37838 9.67394 6.36415 9.66825 6.34977 9.66288L4.69258 9L12 6.07703L19.3074 9L17.6502 9.66288C17.6358 9.66825 17.6216 9.67394 17.6076 9.67994L12 11.923L6.39244 9.67994ZM7 12.077V16C7 16.2251 7.20327 16.7262 8.20457 17.2269C9.15909 17.7042 10.5239 18 12 18C13.4761 18 14.8409 17.7042 15.7954 17.2269C16.7967 16.7262 17 16.2251 17 16V12.077L12.3714 13.9285C12.133 14.0238 11.867 14.0238 11.6286 13.9285L7 12.077Z"/>
</svg>
