<svg width="16" height="16" viewBox="0 0 16 16" xmlns="http://www.w3.org/2000/svg">
<path fill-rule="evenodd" clip-rule="evenodd" d="M8 3C6.89543 3 6 3.89543 6 5C6 6.10457 6.89543 7 8 7C9.10457 7 10 6.10457 10 5C10 3.89543 9.10457 3 8 3ZM4 5C4 2.79086 5.79086 1 8 1C10.2091 1 12 2.79086 12 5C12 7.20914 10.2091 9 8 9C5.79086 9 4 7.20914 4 5ZM6.66667 12C6.22464 12 5.80072 12.1756 5.48816 12.4882C5.17559 12.8007 5 13.2246 5 13.6667V14C5 14.5523 4.55228 15 4 15C3.44772 15 3 14.5523 3 14V13.6667C3 12.6942 3.38631 11.7616 4.07394 11.0739C4.76157 10.3863 5.69421 10 6.66667 10H9.33333C10.3058 10 11.2384 10.3863 11.9261 11.0739C12.6137 11.7616 13 12.6942 13 13.6667V14C13 14.5523 12.5523 15 12 15C11.4477 15 11 14.5523 11 14V13.6667C11 13.2246 10.8244 12.8007 10.5118 12.4882C10.1993 12.1756 9.77536 12 9.33333 12H6.66667Z" />
</svg>
