<svg width="16" height="16" viewBox="0 0 16 16" xmlns="http://www.w3.org/2000/svg">
<path fill-rule="evenodd" clip-rule="evenodd" d="M8 13C10.7614 13 13 10.7614 13 8C13 5.23858 10.7614 3 8 3C5.23858 3 3 5.23858 3 8C3 10.7614 5.23858 13 8 13ZM15 8C15 11.866 11.866 15 8 15C4.13401 15 1 11.866 1 8C1 4.13401 4.13401 1 8 1C11.866 1 15 4.13401 15 8Z" />
<path fill-rule="evenodd" clip-rule="evenodd" d="M8 12C7.44772 12 7 11.5523 7 11L7 8C7 7.44772 7.44772 7 8 7C8.55228 7 9 7.44772 9 8V11C9 11.5523 8.55229 12 8 12Z" />
<path d="M7 5C7 4.44772 7.44771 4 8 4C8.55228 4 9 4.44772 9 5C9 5.55228 8.55228 6 8 6C7.44772 6 7 5.55228 7 5Z" />
</svg>
