<svg width="16" height="16" viewBox="0 0 16 16" xmlns="http://www.w3.org/2000/svg">
<path fill-rule="evenodd" clip-rule="evenodd" d="M3.29412 4C3.21611 4 3.1413 4.03099 3.08614 4.08614C3.03579 4.1365 3.00558 4.20324 3.0007 4.27383C3.14818 6.53905 4.11456 8.67386 5.72035 10.2797C7.32614 11.8854 9.46095 12.8518 11.7262 12.9993C11.7968 12.9944 11.8635 12.9642 11.9139 12.9139C11.969 12.8587 12 12.7839 12 12.7059V10.7947L10.184 10.0683L9.65161 10.9557C9.38385 11.4019 8.81856 11.5682 8.3518 11.338C6.74928 10.5477 5.4523 9.25072 4.66196 7.6482C4.43177 7.18144 4.59806 6.61615 5.04433 6.34839L5.93171 5.81596L5.20532 4H3.29412ZM1.67193 2.67193C2.10216 2.2417 2.68568 2 3.29412 2H5.88235C6.29126 2 6.65897 2.24895 6.81083 2.62861L8.10495 5.8639C8.28723 6.31962 8.11184 6.84026 7.69097 7.09279L6.92228 7.554C7.336 8.14802 7.85198 8.664 8.446 9.07772L8.90721 8.30903C9.15974 7.88816 9.68038 7.71277 10.1361 7.89505L13.3714 9.18917C13.751 9.34103 14 9.70874 14 10.1176V12.7059C14 13.3143 13.7583 13.8978 13.3281 14.3281C12.8978 14.7583 12.3143 15 11.7059 15C11.6856 15 11.6654 14.9994 11.6452 14.9982C8.87742 14.83 6.26688 13.6546 4.30614 11.6939C2.34539 9.73312 1.17004 7.12258 1.00184 4.35478C1.00061 4.33458 1 4.31435 1 4.29412C1 3.68568 1.2417 3.10216 1.67193 2.67193Z" />
</svg>
