<svg width="16" height="16" viewBox="0 0 16 16" xmlns="http://www.w3.org/2000/svg">
<path fill-rule="evenodd" clip-rule="evenodd" d="M8 3C5.79086 3 4 4.79086 4 7C4 8.29864 4.61886 9.45274 5.57776 10.1835C5.59327 10.1944 5.6084 10.2058 5.62316 10.2176C6.28768 10.7093 7.10989 11 8 11C8.89011 11 9.71232 10.7093 10.3768 10.2176C10.3916 10.2058 10.4067 10.1944 10.4222 10.1835C11.3811 9.45274 12 8.29864 12 7C12 4.79086 10.2091 3 8 3ZM12.1579 11.3257C13.2934 10.234 14 8.69954 14 7C14 3.68629 11.3137 1 8 1C4.68629 1 2 3.68629 2 7C2 8.69954 2.70662 10.234 3.84211 11.3257L3.15719 13.4276C3.05404 13.6678 3.00263 13.9254 3.0001 14.1802C2.99731 14.4607 3.05368 14.7453 3.17273 15.0075C3.29165 15.2694 3.47659 15.5153 3.72998 15.6996C3.98636 15.8861 4.30095 15.9997 4.64023 16L11.3588 16C11.6981 15.9997 12.0136 15.8861 12.27 15.6996C12.5234 15.5153 12.7083 15.2694 12.8273 15.0075C12.9463 14.7453 13.0027 14.4607 12.9999 14.1802C12.9974 13.9254 12.946 13.6678 12.8428 13.4276L12.1579 11.3257ZM10.4326 12.4864C9.68907 12.8165 8.86596 13 8 13C7.13404 13 6.31093 12.8165 5.56741 12.4864L5.07419 14H10.9258L10.4326 12.4864ZM8 6C7.44772 6 7 6.44772 7 7C7 7.55228 7.44772 8 8 8C8.55228 8 9 7.55228 9 7C9 6.44772 8.55228 6 8 6ZM5 7C5 5.34315 6.34315 4 8 4C9.65685 4 11 5.34315 11 7C11 8.65685 9.65685 10 8 10C6.34315 10 5 8.65685 5 7Z" />
</svg>
