<svg width="16" height="16" viewBox="0 0 16 16" xmlns="http://www.w3.org/2000/svg">
<path fill-rule="evenodd" clip-rule="evenodd" d="M7.62342 4C7.12969 4 6.68927 4.15885 6.39331 4.39576C6.10313 4.62804 6 4.8892 6 5.1C6 5.65228 5.55228 6.1 5 6.1C4.44772 6.1 4 5.65228 4 5.1C4 4.19689 4.44966 3.38976 5.14346 2.83439C5.83147 2.28365 6.7256 2 7.62342 2H8.37297C9.27079 2 10.1649 2.28365 10.8529 2.83439C11.5389 3.38346 11.9862 4.17861 11.9962 5.06931C12.0305 5.74752 11.8307 6.41218 11.4362 6.96479C11.0486 7.50783 10.4961 7.91135 9.86628 8.1308C9.65009 8.23496 9.42555 8.43958 9.25385 8.76029C9.07355 9.09705 8.97725 9.51741 8.99716 9.9545C9.02229 10.5062 8.59541 10.9738 8.0437 10.999C7.49198 11.0241 7.02436 10.5972 6.99923 10.0455C6.96394 9.27065 7.13019 8.48955 7.49065 7.81629C7.85118 7.14289 8.40243 6.58774 9.0962 6.28396C9.12534 6.2712 9.15507 6.25984 9.18529 6.24992C9.45145 6.16251 9.66699 6.00093 9.80844 5.80278C9.94891 5.606 10.0116 5.381 9.99823 5.16062C9.997 5.14044 9.99639 5.12022 9.99639 5.1C9.99639 4.8892 9.89326 4.62804 9.60308 4.39576C9.30712 4.15885 8.8667 4 8.37297 4H7.62342Z" />
<path d="M9 13C9 13.5523 8.55228 14 8 14C7.44772 14 7 13.5523 7 13C7 12.4477 7.44772 12 8 12C8.55228 12 9 12.4477 9 13Z" />
</svg>
