<svg width="16" height="16" viewBox="0 0 16 16" xmlns="http://www.w3.org/2000/svg">
<path fill-rule="evenodd" clip-rule="evenodd" d="M6.77109 1.37349C7.1343 1.13315 7.5591 1 8.00035 1C8.4416 1 8.86641 1.13315 9.22961 1.37349C9.58852 1.61098 9.87095 1.94169 10.0597 2.32069L14.7912 11.4827C14.8112 11.5215 14.8286 11.5615 14.8434 11.6025C14.9754 11.9686 15.0243 12.3611 14.9888 12.7478C14.9533 13.1345 14.8337 13.5121 14.6337 13.8476C14.4335 14.1833 14.1558 14.4714 13.816 14.6768C13.4723 14.8846 13.0771 14.9969 12.6755 15L3.33854 15C2.90607 15 2.47641 14.8718 2.1146 14.6351C1.79022 14.4229 1.52704 14.1342 1.33863 13.8019C1.15037 13.4699 1.03929 13.0992 1.0087 12.7207C0.978117 12.3423 1.02824 11.9591 1.15774 11.6013C1.17243 11.5607 1.18973 11.5211 1.20954 11.4827L5.94095 2.32072C6.12974 1.9417 6.41217 1.61098 6.77109 1.37349ZM3.30952 13.0004C3.31916 13.0001 3.32883 13 3.33854 13H12.6698C12.702 12.9994 12.7398 12.9903 12.7813 12.9652C12.8248 12.939 12.8739 12.8937 12.9158 12.8234C12.9578 12.7529 12.9881 12.6642 12.9972 12.565C13.0046 12.4836 12.9972 12.4027 12.9769 12.3284L8.27895 3.23113L8.27054 3.21445C8.22862 3.12942 8.17457 3.07357 8.12595 3.0414C8.07866 3.01011 8.03563 3 8.00035 3C7.96507 3 7.92204 3.01011 7.87475 3.0414C7.82613 3.07357 7.77208 3.12942 7.73016 3.21445L7.72175 3.23113L3.02339 12.3291C3.00356 12.4015 2.99578 12.4801 3.0022 12.5596C3.01006 12.6568 3.03823 12.7445 3.07843 12.8154C3.11848 12.8861 3.16633 12.9332 3.20959 12.9615C3.24625 12.9855 3.2802 12.9966 3.30952 13.0004ZM8 6C8.55228 6 9 6.44772 9 7V8.33111C9 8.8834 8.55228 9.33111 8 9.33111C7.44771 9.33111 7 8.8834 7 8.33111V7C7 6.44772 7.44771 6 8 6ZM8 9.99334C8.55228 9.99334 9 10.4411 9 10.9933V11C9 11.5523 8.55228 12 8 12C7.44771 12 7 11.5523 7 11V10.9933C7 10.4411 7.44771 9.99334 8 9.99334Z" />
</svg>
