<svg width="16" height="16" viewBox="0 0 16 16" xmlns="http://www.w3.org/2000/svg">
<path fill-rule="evenodd" clip-rule="evenodd" d="M6 0C6.55228 0 7 0.447715 7 1V2H9V1C9 0.447715 9.44771 0 10 0C10.5523 0 11 0.447715 11 1V2H11.75C12.9926 2 14 3.00736 14 4.25V5H15C15.5523 5 16 5.44772 16 6C16 6.55228 15.5523 7 15 7H14V8H15C15.5523 8 16 8.44772 16 9C16 9.55229 15.5523 10 15 10H14V11.75C14 12.9926 12.9926 14 11.75 14H11V15C11 15.5523 10.5523 16 10 16C9.44771 16 9 15.5523 9 15V14H7V15C7 15.5523 6.55228 16 6 16C5.44772 16 5 15.5523 5 15V14H4.25C3.00736 14 2 12.9926 2 11.75V10H1C0.447715 10 0 9.55229 0 9C0 8.44772 0.447715 8 1 8H2V7H1C0.447715 7 0 6.55228 0 6C0 5.44772 0.447715 5 1 5H2V4.25C2 3.00736 3.00736 2 4.25 2H5V1C5 0.447715 5.44772 0 6 0ZM4.25 4C4.11193 4 4 4.11193 4 4.25V11.75C4 11.8881 4.11193 12 4.25 12H11.75C11.8881 12 12 11.8881 12 11.75V4.25C12 4.11193 11.8881 4 11.75 4H4.25ZM5 6C5 5.44772 5.44772 5 6 5H10C10.5523 5 11 5.44772 11 6V10C11 10.5523 10.5523 11 10 11H6C5.44772 11 5 10.5523 5 10V6ZM7 7V9H9V7H7Z" />
</svg>
