<svg width="16" height="16" viewBox="0 0 16 16" xmlns="http://www.w3.org/2000/svg">
<path fill-rule="evenodd" clip-rule="evenodd" d="M4 1C4.55228 1 5 1.44772 5 2V3.33333C5 3.88562 4.55228 4.33333 4 4.33333C3.70411 4.33333 3.43823 4.20482 3.25514 4.00057C3.18923 4.00482 3.12686 4.0329 3.07988 4.07988C3.02873 4.13103 3 4.2004 3 4.27273V6.5C3 7.16304 3.26339 7.79893 3.73223 8.26777C4.20107 8.73661 4.83696 9 5.5 9C6.16304 9 6.79893 8.73661 7.26777 8.26777C7.73661 7.79893 8 7.16304 8 6.5V4.27273C8 4.2004 7.97127 4.13103 7.92012 4.07988C7.87313 4.03289 7.81077 4.00482 7.74486 4.00057C7.56177 4.20482 7.29589 4.33333 7 4.33333C6.44772 4.33333 6 3.88562 6 3.33333V2C6 1.44772 6.44772 1 7 1C7.55794 1 8 1.44897 8 2C8.50228 2.0607 8.97291 2.30424 9.33433 2.66567C9.76055 3.09188 10 3.66996 10 4.27273V6.5C10 7.69347 9.52589 8.83807 8.68198 9.68198C8.20321 10.1608 7.62766 10.5205 7.00131 10.7422C7.01083 11.0161 7.07209 11.2874 7.18344 11.5434C7.30508 11.8231 7.48478 12.0805 7.71478 12.2996C7.94488 12.5187 8.22067 12.695 8.52758 12.816C8.83454 12.9371 9.16511 13 9.5 13C9.83489 13 10.1655 12.9371 10.4724 12.816C10.7793 12.695 11.0551 12.5187 11.2852 12.2996C11.5152 12.0805 11.6949 11.8231 11.8166 11.5434C11.9381 11.2639 12 10.9661 12 10.6667V8.50018C11.3928 8.04408 11 7.31791 11 6.5C11 5.11929 12.1193 4 13.5 4C14.8807 4 16 5.11929 16 6.5C16 7.70948 15.1411 8.71836 14 8.94999V10.6667C14 11.2427 13.8808 11.8118 13.6506 12.3411C13.4205 12.8703 13.0845 13.3478 12.6645 13.7478C12.2446 14.1477 11.7487 14.4625 11.2064 14.6765C10.664 14.8904 10.0844 15 9.5 15C8.91564 15 8.33596 14.8904 7.79364 14.6765C7.25127 14.4625 6.75538 14.1477 6.33547 13.7478C5.91546 13.3478 5.57954 12.8703 5.3494 12.3411C5.16017 11.906 5.04595 11.444 5.01129 10.9734C3.99755 10.8627 3.04594 10.4099 2.31802 9.68198C1.47411 8.83807 1 7.69347 1 6.5V4.27273C1 3.66996 1.23945 3.09189 1.66567 2.66567C2.02709 2.30424 2.49772 2.07711 3 2.01641V2C3 1.44772 3.44772 1 4 1ZM13.5 6C13.2239 6 13 6.22386 13 6.5C13 6.77614 13.2239 7 13.5 7C13.7761 7 14 6.77614 14 6.5C14 6.22386 13.7761 6 13.5 6Z" />
</svg>
