<svg width="16" height="16" viewBox="0 0 16 16" xmlns="http://www.w3.org/2000/svg">
<path fill-rule="evenodd" clip-rule="evenodd" d="M10.9997 3.55463L8.6942 5.77991C8.50769 5.95992 8.25868 6.06039 7.99973 6.06039L7.99972 8.00001C8.25519 8.00001 8.50097 8.09778 8.68663 8.27326L10.9997 10.4595V3.55463ZM5.99973 8.00001V6.04031L2.99903 6.01012C2.99901 6.50562 2.9991 7.05764 2.99918 7.57734C2.99921 7.72134 2.99923 7.86286 2.99925 8.00001H5.99973ZM5.99973 10V12.9062C5.98856 12.92 5.97448 12.9353 5.95784 12.951C5.94029 12.9675 5.92213 12.9823 5.9049 12.9946C5.90219 12.9965 5.89957 12.9983 5.89706 13H5.10239C5.09988 12.9983 5.09726 12.9965 5.09455 12.9946C5.07732 12.9823 5.05917 12.9675 5.04161 12.951C5.02498 12.9353 5.01089 12.92 4.99973 12.9062V10H5.99973ZM2.99973 10V13C2.99973 13.6368 3.37887 14.1325 3.67061 14.4072C3.95343 14.6734 4.4389 15 4.99973 15H5.99973C6.56056 15 7.04602 14.6734 7.32884 14.4072C7.62058 14.1325 7.99973 13.6368 7.99973 13V10.376L10.3288 12.5774C10.3354 12.5836 10.342 12.5897 10.3487 12.5957C10.5799 12.8027 10.8696 12.9415 11.186 12.9853C11.5029 13.0291 11.8223 12.9742 12.1044 12.8321C12.3855 12.6904 12.6125 12.4711 12.767 12.2098C12.9212 11.949 12.9998 11.6527 12.9997 11.3548C12.9997 11.3547 12.9997 11.3545 12.9997 11.3544V9.82844C13.4176 9.68068 13.8016 9.44073 14.121 9.12133C14.6837 8.55872 14.9997 7.79565 14.9997 7.00001C14.9997 6.20436 14.6837 5.4413 14.121 4.87869C13.8016 4.55928 13.4176 4.31933 12.9997 4.17157V2.64566M12.9997 6.9961V7.00392C12.9997 7.00261 12.9997 7.00131 12.9997 7.00001C12.9997 6.9987 12.9997 6.9974 12.9997 6.9961ZM2.99973 10H1.9993C1.73406 10 1.47969 9.89463 1.29215 9.70707C1.10461 9.5195 0.999267 9.26511 0.999302 8.99987C0.999351 8.63007 0.99927 8.12277 0.999182 7.57972C0.999034 6.65615 0.998868 5.62917 0.999302 4.99932C0.999486 4.73248 1.10631 4.47678 1.29601 4.28911C1.4857 4.10144 1.74254 3.99737 2.00936 4.00006L7.60007 4.05632L10.3212 1.42985C10.3302 1.42116 10.3394 1.41264 10.3487 1.40429C10.5799 1.19733 10.8696 1.05851 11.186 1.01472C11.5029 0.97088 11.8223 1.02582 12.1044 1.16795C12.3855 1.3096 12.6125 1.52887 12.767 1.79024C12.9212 2.051 12.9998 2.34734 12.9997 2.64518" />
</svg>
