<svg width="16" height="16" viewBox="0 0 16 16" xmlns="http://www.w3.org/2000/svg">
<path fill-rule="evenodd" clip-rule="evenodd" d="M4.88612 1.10555C5.3801 0.858558 5.98077 1.05878 6.22776 1.55276L6.58708 2.2714C7.03228 2.09436 7.51005 1.99997 8 1.99997C8.48995 1.99997 8.96772 2.09436 9.41292 2.2714L9.77224 1.55276C10.0192 1.05878 10.6199 0.858558 11.1139 1.10555C11.6079 1.35254 11.8081 1.95321 11.5611 2.44719L11.0462 3.47695C11.6249 4.16128 12 4.9452 12 5.99997V11.3571C12 11.7714 11.847 12.1815 11.5553 12.494C11.3996 12.6608 11.2102 12.7929 11 12.8802V14C11 14.5523 10.5523 15 10 15C9.44772 15 9 14.5523 9 14V13H7V14C7 14.5523 6.55228 15 6 15C5.44772 15 5 14.5523 5 14V12.8802C4.78977 12.7929 4.60038 12.6608 4.44468 12.494C4.15297 12.1815 4 11.7714 4 11.3571V5.99997C4 4.9452 4.3751 4.16128 4.95379 3.47695L4.43891 2.44719C4.19192 1.95321 4.39214 1.35254 4.88612 1.10555ZM6 11H10V6.99997H6V11ZM6.30273 4.99997H9.69727C9.61436 4.87841 9.51271 4.75493 9.39027 4.62374C9.00902 4.21526 8.5073 3.99998 8 3.99998C7.4927 3.99998 6.99098 4.21526 6.60974 4.62374C6.48729 4.75493 6.38564 4.87841 6.30273 4.99997ZM2 5.99997C2.55228 5.99997 3 6.44769 3 6.99997V11C3 11.5523 2.55228 12 2 12C1.44772 12 1 11.5523 1 11V6.99997C1 6.44769 1.44772 5.99997 2 5.99997ZM14 5.99997C14.5523 5.99997 15 6.44769 15 6.99997V11C15 11.5523 14.5523 12 14 12C13.4477 12 13 11.5523 13 11V6.99997C13 6.44769 13.4477 5.99997 14 5.99997Z" />
</svg>
