<svg width="16" height="16" viewBox="0 0 16 16" xmlns="http://www.w3.org/2000/svg">
<path fill-rule="evenodd" clip-rule="evenodd" d="M8.00006 0.75L12.6001 4.2C13.0419 4.53137 13.1314 5.15817 12.8001 5.6C12.4687 6.04183 11.8419 6.13137 11.4001 5.8L8.00006 3.25L4.60006 5.8C4.15823 6.13137 3.53143 6.04183 3.20006 5.6C2.86869 5.15817 2.95823 4.53137 3.40006 4.2L8.00006 0.75ZM8.00006 4.75L12.6001 8.2C13.0419 8.53137 13.1314 9.15817 12.8001 9.6C12.4687 10.0418 11.8419 10.1314 11.4001 9.8L8.00006 7.25L4.60006 9.8C4.15823 10.1314 3.53143 10.0418 3.20006 9.6C2.86869 9.15817 2.95823 8.53137 3.40006 8.2L8.00006 4.75ZM8.00006 8.75L12.6001 12.2C13.0419 12.5314 13.1314 13.1582 12.8001 13.6C12.4687 14.0418 11.8419 14.1314 11.4001 13.8L8.00006 11.25L4.60006 13.8C4.15823 14.1314 3.53143 14.0418 3.20006 13.6C2.86869 13.1582 2.95823 12.5314 3.40006 12.2L8.00006 8.75Z" />
</svg>
