<svg width="16" height="16" viewBox="0 0 16 16" xmlns="http://www.w3.org/2000/svg">
<path fill-rule="evenodd" clip-rule="evenodd" d="M9.14291 2.83334C9.67649 2.29976 10.4002 2 11.1548 2C11.9094 2 12.6331 2.29976 13.1667 2.83334C13.7002 3.36693 14 4.09062 14 4.84522C14 5.59981 13.7002 6.32351 13.1667 6.85709L6.31664 13.7071C6.1291 13.8946 5.87475 14 5.60953 14H3C2.44772 14 2 13.5523 2 13V10.3905C2 10.1253 2.10536 9.8709 2.29289 9.68336L9.14291 2.83334ZM10.6048 4.20344C10.6404 4.23055 10.6746 4.26037 10.7071 4.29289L11.7071 5.29289C11.7396 5.32542 11.7694 5.35963 11.7966 5.39524C11.9274 5.24261 12 5.04766 12 4.84522C12 4.62105 11.911 4.40607 11.7524 4.24756C11.5939 4.08905 11.3789 4 11.1548 4C10.9523 4 10.7574 4.07262 10.6048 4.20344ZM10.3972 6.79808C10.3609 6.77057 10.326 6.74024 10.2929 6.70711L9.29289 5.70711C9.25976 5.67397 9.22944 5.63909 9.20192 5.60276L4 10.8047V12H5.19532L10.3972 6.79808Z" />
</svg>
