<svg width="16" height="16" viewBox="0 0 16 16" xmlns="http://www.w3.org/2000/svg">
<path fill-rule="evenodd" clip-rule="evenodd" d="M8 2.58582L12.7071 7.29292C13.0976 7.68345 13.0976 8.31661 12.7071 8.70714C12.3166 9.09766 11.6834 9.09766 11.2929 8.70714L8 5.41424L4.70711 8.70714C4.31658 9.09766 3.68342 9.09766 3.29289 8.70714C2.90237 8.31661 2.90237 7.68345 3.29289 7.29292L8 2.58582ZM8 6.58582L12.7071 11.2929C13.0976 11.6834 13.0976 12.3166 12.7071 12.7071C12.3166 13.0977 11.6834 13.0977 11.2929 12.7071L8 9.41424L4.70711 12.7071C4.31658 13.0977 3.68342 13.0977 3.29289 12.7071C2.90237 12.3166 2.90237 11.6834 3.29289 11.2929L8 6.58582Z" />
</svg>
