<svg width="16" height="16" viewBox="0 0 16 16" xmlns="http://www.w3.org/2000/svg">
<path fill-rule="evenodd" clip-rule="evenodd" d="M6 3C4.89543 3 4 3.89543 4 5C4 6.10457 4.89543 7 6 7C7.10457 7 8 6.10457 8 5C8 3.89543 7.10457 3 6 3ZM2 5C2 2.79086 3.79086 1 6 1C8.20914 1 10 2.79086 10 5C10 7.20914 8.20914 9 6 9C3.79086 9 2 7.20914 2 5ZM13 5C13.5523 5 14 5.44772 14 6V7H15C15.5523 7 16 7.44772 16 8C16 8.55228 15.5523 9 15 9H14V10C14 10.5523 13.5523 11 13 11C12.4477 11 12 10.5523 12 10V9H11C10.4477 9 10 8.55228 10 8C10 7.44772 10.4477 7 11 7H12V6C12 5.44772 12.4477 5 13 5ZM4.66667 12C4.22464 12 3.80072 12.1756 3.48816 12.4882C3.17559 12.8007 3 13.2246 3 13.6667V14C3 14.5523 2.55228 15 2 15C1.44772 15 1 14.5523 1 14V13.6667C1 12.6942 1.38631 11.7616 2.07394 11.0739C2.76157 10.3863 3.69421 10 4.66667 10H7.33333C8.30579 10 9.23842 10.3863 9.92606 11.0739C10.6137 11.7616 11 12.6942 11 13.6667V14C11 14.5523 10.5523 15 10 15C9.44772 15 9 14.5523 9 14V13.6667C9 13.2246 8.82441 12.8007 8.51184 12.4882C8.19928 12.1756 7.77536 12 7.33333 12H4.66667Z" />
</svg>
