<svg width="16" height="16" viewBox="0 0 16 16" xmlns="http://www.w3.org/2000/svg">
<path fill-rule="evenodd" clip-rule="evenodd" d="M2.00024 1C2.55253 1.00003 3.00022 1.44776 3.0002 2.00005L3.00014 3.11627C3.42306 2.63385 3.91089 2.20534 4.46125 1.90189C5.80152 1.16289 7.35454 0.866987 8.88268 1.05518C10.411 1.24339 11.8391 1.90664 12.9446 2.9515C14.0508 3.99708 14.7731 5.36789 14.9898 6.85591C15.0693 7.40243 14.6908 7.90999 14.1443 7.98956C13.5978 8.06914 13.0902 7.69061 13.0106 7.14409C12.8605 6.11276 12.3582 5.14921 11.5708 4.40502C10.7827 3.66012 9.75305 3.17748 8.63822 3.04018C7.52323 2.90287 6.3943 3.11992 5.42694 3.6533C4.93622 3.92387 4.46793 4.41823 4.06596 5H6C6.55228 5 7 5.44772 7 6C7 6.55228 6.55228 7 6 7H2.39693C2.382 7.00034 2.36704 7.00034 2.35205 7H2.00003L2.00003 6.92704C2.00002 6.92704 2.00004 6.92705 2.00003 6.92704L2.00003 7C1.7348 7 1.48041 6.89464 1.29288 6.70709C1.10534 6.51954 0.999987 6.26518 1 5.99995L1.0002 1.99995C1.00022 1.44767 1.44796 0.999973 2.00024 1ZM1.85611 8.01044C2.40263 7.93086 2.91018 8.30939 2.98976 8.85591C3.13993 9.88724 3.64223 10.8508 4.42961 11.595C5.21774 12.3399 6.24734 12.8225 7.36217 12.9598C8.47716 13.0971 9.60609 12.8801 10.5734 12.3467C11.0642 12.0761 11.5324 11.5818 11.9343 11H10.0002C9.44791 11 9.0002 10.5523 9.0002 10C9.0002 9.44772 9.44791 9 10.0002 9H13.6033C13.6182 8.99966 13.6332 8.99966 13.6481 9H14.0002C14.5525 9 15.0002 9.44772 15.0002 10V14C15.0002 14.5523 14.5525 15 14.0002 15C13.4479 15 13.0002 14.5523 13.0002 14V12.8837C12.5773 13.3661 12.0895 13.7947 11.5391 14.0981C10.1989 14.8371 8.64586 15.133 7.11772 14.9448C5.58942 14.7566 4.16134 14.0934 3.05582 13.0485C1.94956 12.0029 1.2273 10.6321 1.01063 9.14409C0.931053 8.59757 1.30959 8.09001 1.85611 8.01044Z" />
</svg>
