<svg width="16" height="16" viewBox="0 0 16 16" xmlns="http://www.w3.org/2000/svg">
<g clip-path="url(#clip0)">
<path fill-rule="evenodd" clip-rule="evenodd" d="M5.20365 1.39517C5.39274 1.14621 5.68737 1 6 1H8C8.35126 1 8.67677 1.1843 8.8575 1.4855L11.3662 5.66667H13.6C14.2212 5.66667 14.8262 5.90123 15.2796 6.33305C15.7347 6.76645 16 7.36498 16 8C16 8.63502 15.7347 9.23355 15.2796 9.66695C14.8262 10.0988 14.2212 10.3333 13.6 10.3333H11.3662L8.8575 14.5145C8.67677 14.8157 8.35126 15 8 15H6C5.68737 15 5.39274 14.8538 5.20365 14.6048C5.01456 14.3559 4.95279 14.0328 5.03668 13.7316L5.98335 10.3333H4.94536L3.7433 11.669C3.55365 11.8797 3.28349 12 3 12H1C0.658228 12 0.340124 11.8255 0.156531 11.5372C-0.0270612 11.2489 -0.0507124 10.8868 0.093819 10.5771L1.29647 8L0.093819 5.42289C-0.0507124 5.11318 -0.0270612 4.7511 0.156531 4.46282C0.340124 4.17455 0.658228 4 1 4H3C3.28349 4 3.55365 4.12032 3.7433 4.33104L4.94536 5.66667H5.98335L5.03668 2.26835C4.95279 1.96719 5.01456 1.64413 5.20365 1.39517ZM7.31665 3L8.26332 6.39831C8.34722 6.69947 8.28544 7.02254 8.09635 7.2715C7.90727 7.52046 7.61263 7.66667 7.3 7.66667H4.5C4.21652 7.66667 3.94635 7.54635 3.75671 7.33563L2.58695 6.0359L3.30619 7.57711C3.43127 7.84516 3.43127 8.15484 3.30619 8.42289L2.58695 9.9641L3.75671 8.66437C3.94635 8.45365 4.21652 8.33333 4.5 8.33333H7.3C7.61263 8.33333 7.90727 8.47954 8.09635 8.7285C8.28544 8.97746 8.34722 9.30053 8.26332 9.60169L7.31665 13H7.43381L9.94251 8.81884C10.1232 8.51763 10.4487 8.33333 10.8 8.33333H13.6C13.7214 8.33333 13.8286 8.28695 13.9003 8.21867C13.9703 8.15197 14 8.07222 14 8C14 7.92778 13.9703 7.84803 13.9003 7.78133C13.8286 7.71305 13.7214 7.66667 13.6 7.66667H10.8C10.4487 7.66667 10.1232 7.48237 9.94251 7.18116L7.43381 3H7.31665Z" />
</g>
<defs>
<clipPath id="clip0">
<rect width="16" height="16" fill="white"/>
</clipPath>
</defs>
</svg>
