<svg width="40" height="40" viewBox="0 0 40 40" xmlns="http://www.w3.org/2000/svg">
<path fill-rule="evenodd" clip-rule="evenodd" d="M8.29412 8C7.68568 8 7.10216 8.2417 6.67193 8.67193C6.24828 9.09558 6.00744 9.66786 6.00017 10.2662C6.38305 16.435 9.00626 22.2519 13.3772 26.6228C17.7481 30.9937 23.565 33.6169 29.7338 33.9998C30.3322 33.9926 30.9044 33.7517 31.3281 33.3281C31.7583 32.8978 32 32.3143 32 31.7059V25.7947L25.184 23.0683L23.1516 26.4557C22.8838 26.9019 22.3186 27.0682 21.8518 26.838C18.0778 24.9767 15.0233 21.9222 13.162 18.1482C12.9318 17.6814 13.0981 17.1161 13.5443 16.8484L16.9317 14.816L14.2053 8H8.29412ZM5.25772 7.25772C6.06302 6.45241 7.15525 6 8.29412 6H14.8824C15.2913 6 15.659 6.24895 15.8108 6.62861L19.1049 14.8639C19.2872 15.3196 19.1118 15.8403 18.691 16.0928L15.3843 18.0768C16.9226 20.8149 19.1851 23.0774 21.9232 24.6157L23.9072 21.309C24.1597 20.8882 24.6804 20.7128 25.1361 20.8951L33.3714 24.1892C33.751 24.341 34 24.7087 34 25.1176V31.7059C34 32.8448 33.5476 33.937 32.7423 34.7423C31.937 35.5476 30.8448 36 29.7059 36C29.6856 36 29.6654 35.9994 29.6452 35.9982C22.9767 35.5929 16.687 32.7611 11.963 28.037C7.2389 23.313 4.40709 17.0233 4.00184 10.3548C4.00061 10.3346 4 10.3144 4 10.2941C4 9.15525 4.45241 8.06302 5.25772 7.25772ZM32.2929 6.29289C32.6834 5.90237 33.3166 5.90237 33.7071 6.29289C34.0976 6.68342 34.0976 7.31658 33.7071 7.70711L27.4142 14H31.6667C32.219 14 32.6667 14.4477 32.6667 15C32.6667 15.5523 32.219 16 31.6667 16H25C24.4477 16 24 15.5523 24 15V8.33333C24 7.78105 24.4477 7.33333 25 7.33333C25.5523 7.33333 26 7.78105 26 8.33333V12.5858L32.2929 6.29289Z" />
</svg>
