<svg width="40" height="40" viewBox="0 0 40 40" xmlns="http://www.w3.org/2000/svg">
<path fill-rule="evenodd" clip-rule="evenodd" d="M12.8576 5.48553C13.1418 5.95911 12.9882 6.57337 12.5146 6.85752L7.51465 9.85752C7.04107 10.1417 6.42681 9.9881 6.14266 9.51452C5.85851 9.04094 6.01208 8.42668 6.48566 8.14254L11.4857 5.14254C11.9592 4.85839 12.5735 5.01195 12.8576 5.48553ZM27.1427 5.48553C27.4268 5.01195 28.0411 4.85839 28.5146 5.14254L33.5146 8.14254C33.9882 8.42668 34.1418 9.04094 33.8576 9.51452C33.5735 9.9881 32.9592 10.1417 32.4857 9.85752L27.4857 6.85752C27.0121 6.57337 26.8585 5.95911 27.1427 5.48553ZM20.0002 11C13.925 11 9.00015 15.9249 9.00015 22C9.00015 28.0752 13.925 33 20.0002 33C26.0753 33 31.0002 28.0752 31.0002 22C31.0002 15.9249 26.0753 11 20.0002 11ZM7.00015 22C7.00015 14.8203 12.8204 9.00003 20.0002 9.00003C27.1799 9.00003 33.0002 14.8203 33.0002 22C33.0002 29.1797 27.1799 35 20.0002 35C12.8204 35 7.00015 29.1797 7.00015 22ZM20.0002 16C20.5524 16 21.0002 16.4477 21.0002 17V21H23.3335C23.8858 21 24.3335 21.4477 24.3335 22C24.3335 22.5523 23.8858 23 23.3335 23H20.0002C19.4479 23 19.0002 22.5523 19.0002 22V17C19.0002 16.4477 19.4479 16 20.0002 16Z" />
</svg>
