<svg width="40" height="40" viewBox="0 0 40 40" xmlns="http://www.w3.org/2000/svg">
<path fill-rule="evenodd" clip-rule="evenodd" d="M19 5C19 4.44772 19.4477 4 20 4C23.1645 4 26.2579 4.93838 28.8891 6.69649C31.5203 8.45459 33.5711 10.9534 34.7821 13.8771C35.9931 16.8007 36.3099 20.0177 35.6926 23.1214C35.0752 26.2251 33.5513 29.0761 31.3137 31.3137C29.0761 33.5513 26.2251 35.0752 23.1214 35.6926C20.0177 36.3099 16.8007 35.9931 13.8771 34.7821C10.9534 33.5711 8.45459 31.5203 6.69649 28.8891C4.93838 26.2579 4 23.1645 4 20C4 19.4477 4.44772 19 5 19C5.55228 19 6 19.4477 6 20C6 22.7689 6.82109 25.4757 8.35942 27.778C9.89776 30.0803 12.0843 31.8747 14.6424 32.9343C17.2006 33.9939 20.0155 34.2712 22.7313 33.731C25.447 33.1908 27.9416 31.8574 29.8995 29.8995C31.8574 27.9416 33.1908 25.447 33.731 22.7313C34.2712 20.0155 33.9939 17.2006 32.9343 14.6424C31.8747 12.0843 30.0803 9.89776 27.778 8.35942C25.4757 6.82109 22.7689 6 20 6C19.4477 6 19 5.55228 19 5ZM16.7799 11.6108C18.4492 10.9667 20.2731 10.8284 22.0213 11.2131C23.7695 11.5978 25.3646 12.4886 26.6044 13.774C27.8442 15.0595 28.673 16.6819 28.9846 18.4364C29.0812 18.9802 28.7186 19.4993 28.1749 19.5959C27.6311 19.6925 27.112 19.33 27.0154 18.7862C26.7735 17.4242 26.1299 16.163 25.1649 15.1624C24.1997 14.1618 22.9563 13.4667 21.5915 13.1664C20.2265 12.866 18.8026 12.9741 17.4999 13.4767C16.1973 13.9794 15.0753 14.8536 14.2751 15.9876C13.475 17.1216 13.0321 18.4647 13.0017 19.8472C12.9712 21.2296 13.3545 22.5905 14.1038 23.758C14.8532 24.9255 15.9355 25.8474 17.2145 26.406C18.4937 26.9646 19.9115 27.1344 21.2884 26.8935C21.8324 26.7983 22.3506 27.1621 22.4458 27.7062C22.541 28.2502 22.1771 28.7684 21.6331 28.8635C19.8697 29.1721 18.0536 28.9548 16.4141 28.2388C14.7746 27.5228 13.3845 26.3398 12.4207 24.8383C11.4569 23.3367 10.9629 21.5844 11.0022 19.8031C11.0414 18.0218 11.6121 16.2927 12.641 14.8345C13.6699 13.3764 15.1105 12.255 16.7799 11.6108ZM20 19C19.4477 19 19 19.4477 19 20C19 20.5523 19.4477 21 20 21C20.5523 21 21 20.5523 21 20C21 19.4477 20.5523 19 20 19ZM17 20C17 18.3431 18.3431 17 20 17C21.6569 17 23 18.3431 23 20C23 21.6569 21.6569 23 20 23C18.3431 23 17 21.6569 17 20Z" />
</svg>
