<svg width="40" height="40" viewBox="0 0 40 40" xmlns="http://www.w3.org/2000/svg">
<path fill-rule="evenodd" clip-rule="evenodd" d="M11.4286 6C10.7755 6 10.1547 6.25248 9.70129 6.69331C9.24882 7.1332 9 7.72373 9 8.33333L9 31.6682C8.99939 32.0728 9.10839 32.4721 9.31828 32.8262C9.42802 33.0113 9.64089 33.3018 9.89144 33.5818C10.1562 33.8778 10.3771 34.0649 10.4895 34.128C10.9711 34.3983 11.1423 35.0079 10.872 35.4895C10.6017 35.9711 9.99213 36.1423 9.51053 35.872C9.10094 35.6421 8.70133 35.2511 8.4009 34.9153C8.08622 34.5636 7.78911 34.1686 7.59788 33.8461C7.20597 33.185 6.99898 32.4329 7 31.6659V8.33333C7 7.17483 7.47363 6.06966 8.30713 5.25932C9.13967 4.4499 10.263 4 11.4286 4H23.4286C23.6889 4 23.939 4.10153 24.1257 4.28301L32.6971 12.6163C32.8907 12.8046 33 13.0632 33 13.3333V31.6667C33 32.8252 32.5264 33.9303 31.6929 34.7407C30.8603 35.5501 29.737 36 28.5714 36H27C26.4477 36 26 35.5523 26 35C26 34.4477 26.4477 34 27 34H28.5714C29.2245 34 29.8453 33.7475 30.2987 33.3067C30.7512 32.8668 31 32.2763 31 31.6667V13.7558L23.0226 6H11.4286ZM16 10C16 9.44772 16.4477 9 17 9H18C18.5523 9 19 9.44772 19 10C19 10.5523 18.5523 11 18 11H17C16.4477 11 16 10.5523 16 10ZM19 13C19 12.4477 19.4477 12 20 12H22C22.5523 12 23 12.4477 23 13C23 13.5523 22.5523 14 22 14H20C19.4477 14 19 13.5523 19 13ZM16 16C16 15.4477 16.4477 15 17 15H18C18.5523 15 19 15.4477 19 16C19 16.5523 18.5523 17 18 17H17C16.4477 17 16 16.5523 16 16ZM19 19C19 18.4477 19.4477 18 20 18H22C22.5523 18 23 18.4477 23 19C23 19.5523 22.5523 20 22 20H20C19.4477 20 19 19.5523 19 19ZM16 22C16 21.4477 16.4477 21 17 21H18C18.5523 21 19 21.4477 19 22C19 22.5523 18.5523 23 18 23H17C16.4477 23 16 22.5523 16 22ZM19 25C19 24.4477 19.4477 24 20 24H22C22.5523 24 23 24.4477 23 25C23 25.5523 22.5523 26 22 26H20C19.4477 26 19 25.5523 19 25ZM18.5 30C17.8095 30 17.1633 30.2516 16.6999 30.6753C16.2395 31.0962 16 31.6469 16 32.2V35.4C16 35.5287 16.0551 35.6725 16.1873 35.7933C16.3225 35.9169 16.5236 36 16.75 36H20.25C20.4764 36 20.6775 35.9169 20.8127 35.7933C20.9449 35.6725 21 35.5287 21 35.4V32.2C21 31.6469 20.7605 31.0962 20.3001 30.6753C19.8367 30.2516 19.1905 30 18.5 30ZM15.3504 29.1992C16.1997 28.4227 17.334 28 18.5 28C19.666 28 20.8003 28.4227 21.6496 29.1992C22.502 29.9785 23 31.0557 23 32.2V35.4C23 36.1199 22.6864 36.7902 22.1622 37.2694C21.641 37.7459 20.9519 38 20.25 38H16.75C16.0481 38 15.359 37.7459 14.8378 37.2694C14.3136 36.7902 14 36.1199 14 35.4V32.2C14 31.0557 14.498 29.9785 15.3504 29.1992Z" />
</svg>
