<svg width="40" height="40" viewBox="0 0 40 40" xmlns="http://www.w3.org/2000/svg">
<path fill-rule="evenodd" clip-rule="evenodd" d="M22.5339 4.15444C22.824 4.33765 23 4.65684 23 5V11.4606L32.5492 17.7357C32.8306 17.9206 33 18.2347 33 18.5714V34H35C35.5523 34 36 34.4477 36 35C36 35.5523 35.5523 36 35 36H5C4.44772 36 4 35.5523 4 35C4 34.4477 4.44772 34 5 34H7V11.6667C7 11.281 7.22183 10.9296 7.57007 10.7638L21.5701 4.09714C21.8799 3.94961 22.2437 3.97124 22.5339 4.15444ZM9 34H21V12.0141C20.9999 12.0041 20.9999 11.9941 21 11.9841V6.58378L9 12.2981V34ZM23 13.8537V34H31V19.1109L23 13.8537ZM15 14C15.5523 14 16 14.4477 16 15V15.0167C16 15.569 15.5523 16.0167 15 16.0167C14.4477 16.0167 14 15.569 14 15.0167V15C14 14.4477 14.4477 14 15 14ZM15 19C15.5523 19 16 19.4477 16 20V20.0167C16 20.569 15.5523 21.0167 15 21.0167C14.4477 21.0167 14 20.569 14 20.0167V20C14 19.4477 14.4477 19 15 19ZM15 24C15.5523 24 16 24.4477 16 25V25.0167C16 25.569 15.5523 26.0167 15 26.0167C14.4477 26.0167 14 25.569 14 25.0167V25C14 24.4477 14.4477 24 15 24ZM15 29C15.5523 29 16 29.4477 16 30V30.0167C16 30.569 15.5523 31.0167 15 31.0167C14.4477 31.0167 14 30.569 14 30.0167V30C14 29.4477 14.4477 29 15 29Z" />
</svg>
