<svg width="40" height="40" viewBox="0 0 40 40" xmlns="http://www.w3.org/2000/svg">
<path fill-rule="evenodd" clip-rule="evenodd" d="M20 6C12.268 6 6 12.268 6 20C6 27.732 12.268 34 20 34C27.732 34 34 27.732 34 20C34 12.268 27.732 6 20 6ZM4 20C4 11.1634 11.1634 4 20 4C28.8366 4 36 11.1634 36 20C36 28.8366 28.8366 36 20 36C11.1634 36 4 28.8366 4 20ZM20 8C20.5523 8 21 8.44771 21 9V12.002H21.6502C22.4392 11.9777 23.2172 12.1775 23.9014 12.5765C24.5906 12.9784 25.1563 13.5657 25.5432 14.2701C25.809 14.7542 25.6321 15.3622 25.148 15.628C24.6639 15.8939 24.056 15.7169 23.7901 15.2329C23.5732 14.8378 23.2616 14.5186 22.8939 14.3042C22.5266 14.09 22.1149 13.9868 21.702 14.0014C21.6902 14.0018 21.6784 14.002 21.6667 14.002H18.3333C17.7306 14.002 17.1421 14.2529 16.7004 14.7166C16.257 15.1819 16 15.823 16 16.501C16 17.179 16.257 17.8201 16.7004 18.2854C17.1421 18.7491 17.7306 19 18.3333 19H21.6667C22.832 19 23.9392 19.4864 24.7477 20.3351C25.5547 21.1821 26 22.321 26 23.499C26 24.677 25.5547 25.8159 24.7477 26.6629C23.9392 27.5116 22.832 27.998 21.6667 27.998H21V31C21 31.5523 20.5523 32 20 32C19.4477 32 19 31.5523 19 31L19 27.998H18.3498C17.5608 28.0223 16.7828 27.8225 16.0986 27.4235C15.4094 27.0216 14.8437 26.4343 14.4568 25.7299C14.191 25.2458 14.3679 24.6378 14.852 24.372C15.3361 24.1061 15.944 24.2831 16.2099 24.7671C16.4268 25.1622 16.7384 25.4814 17.1061 25.6958C17.4734 25.91 17.8851 26.0132 18.298 25.9986C18.3098 25.9982 18.3216 25.998 18.3333 25.998H21.6667C22.2694 25.998 22.8579 25.7471 23.2996 25.2834C23.743 24.8181 24 24.177 24 23.499C24 22.821 23.743 22.1799 23.2996 21.7146C22.8579 21.2509 22.2694 21 21.6667 21H18.3333C17.168 21 16.0608 20.5136 15.2523 19.6649C14.4453 18.8179 14 17.679 14 16.501C14 15.323 14.4453 14.1841 15.2523 13.3371C16.0608 12.4884 17.168 12.002 18.3333 12.002H19V9C19 8.44771 19.4477 8 20 8Z" />
</svg>
