<svg width="40" height="40" viewBox="0 0 40 40" xmlns="http://www.w3.org/2000/svg">
<path fill-rule="evenodd" clip-rule="evenodd" d="M11.4286 6C10.7755 6 10.1547 6.25248 9.70128 6.69331C9.24882 7.1332 9 7.72373 9 8.33333V31.6667C9 32.2763 9.24882 32.8668 9.70128 33.3067C10.1547 33.7475 10.7755 34 11.4286 34H28.5714C29.2245 34 29.8453 33.7475 30.2987 33.3067C30.7512 32.8668 31 32.2763 31 31.6667V15H24.8C24.0574 15 23.3452 14.705 22.8201 14.1799C22.295 13.6548 22 12.9426 22 12.2V6H11.4286ZM11.4286 4C10.263 4 9.13967 4.4499 8.30713 5.25932C7.47363 6.06966 7 7.17483 7 8.33333V31.6667C7 32.8252 7.47363 33.9303 8.30713 34.7407C9.13967 35.5501 10.263 36 11.4286 36H28.5714C29.737 36 30.8603 35.5501 31.6929 34.7407C32.5264 33.9303 33 32.8252 33 31.6667V13.3333C33 13.0632 32.8907 12.8046 32.6971 12.6163L24.1257 4.28301C23.939 4.10153 23.6889 4 23.4286 4H11.4286ZM24 6.95027L30.2226 13H24.8C24.5878 13 24.3843 12.9157 24.2343 12.7657C24.0843 12.6157 24 12.4122 24 12.2V6.95027ZM20 17C20.5523 17 21 17.4477 21 18V23C21 23.5523 20.5523 24 20 24C19.4477 24 19 23.5523 19 23V18C19 17.4477 19.4477 17 20 17ZM19 28C19 27.4477 19.4477 27 20 27H20.0167C20.569 27 21.0167 27.4477 21.0167 28C21.0167 28.5523 20.569 29 20.0167 29H20C19.4477 29 19 28.5523 19 28Z" />
</svg>
