<svg width="40" height="40" viewBox="0 0 40 40" xmlns="http://www.w3.org/2000/svg">
<path fill-rule="evenodd" clip-rule="evenodd" d="M20 7C16.8197 7 13.7682 8.27215 11.5172 10.5389C9.26596 12.8058 8 15.882 8 19.0909V20.5351C8.58835 20.1948 9.27143 20 10 20C12.2091 20 14 21.7909 14 24V27C14 29.2091 12.2091 31 10 31C7.79086 31 6 29.2091 6 27V19.0909C6 15.356 7.47332 11.7727 10.098 9.1296C12.723 6.48628 16.2847 5 20 5C23.7153 5 27.277 6.48628 29.902 9.1296C32.5267 11.7727 34 15.356 34 19.0909V27C34 28.905 32.6683 30.499 30.885 30.9018C30.5007 32.3846 29.1902 33.594 27.5183 34.43C25.4722 35.453 22.7674 36 20 36C19.4477 36 19 35.5523 19 35C19 34.4477 19.4477 34 20 34C22.5369 34 24.9192 33.4934 26.6239 32.6411C27.8014 32.0523 28.4697 31.4029 28.7811 30.8109C27.168 30.2954 26 28.7841 26 27V24C26 21.7909 27.7909 20 30 20C30.7286 20 31.4117 20.1948 32 20.5351V19.0909C32 15.882 30.734 12.8058 28.4828 10.5389C26.2318 8.27215 23.1803 7 20 7ZM32 24C32 22.8954 31.1046 22 30 22C28.8954 22 28 22.8954 28 24V27C28 28.1046 28.8954 29 30 29C31.1046 29 32 28.1046 32 27V24ZM8 24V27C8 28.1046 8.89543 29 10 29C11.1046 29 12 28.1046 12 27V24C12 22.8954 11.1046 22 10 22C8.89543 22 8 22.8954 8 24Z" />
</svg>
