<svg width="40" height="40" viewBox="0 0 40 40" xmlns="http://www.w3.org/2000/svg">
<path fill-rule="evenodd" clip-rule="evenodd" d="M26.0366 4.73195C26.1846 4.19988 26.736 3.88856 27.2681 4.03661C28.93 4.49902 30.3859 5.54453 31.417 6.98811C32.4473 8.43051 33 10.1939 33 12C33 13.8062 32.4473 15.5695 31.417 17.0119C30.3859 18.4555 28.93 19.501 27.2681 19.9634C26.736 20.1115 26.1846 19.8001 26.0366 19.2681C25.8886 18.736 26.1999 18.1847 26.7319 18.0366C27.9306 17.7031 29.0101 16.9407 29.7896 15.8494C30.5699 14.757 31 13.4027 31 12C31 10.5973 30.5699 9.24303 29.7896 8.15058C29.0101 7.05931 27.9306 6.29693 26.7319 5.96341C26.1999 5.81537 25.8886 5.26402 26.0366 4.73195ZM15 6.00001C11.6863 6.00001 9 8.6863 9 12C9 15.3137 11.6863 18 15 18C18.3137 18 21 15.3137 21 12C21 8.6863 18.3137 6.00001 15 6.00001ZM7 12C7 7.58173 10.5817 4.00001 15 4.00001C19.4183 4.00001 23 7.58173 23 12C23 16.4183 19.4183 20 15 20C10.5817 20 7 16.4183 7 12ZM29.0333 24.744C29.1747 24.2101 29.7221 23.892 30.256 24.0333C31.8994 24.4685 33.3513 25.4478 34.3884 26.8128C35.4251 28.1775 35.9903 29.8521 36 31.5756L36 31.5812L36 35C36 35.5523 35.5523 36 35 36C34.4477 36 34 35.5523 34 35V31.5842C33.9922 30.2903 33.5674 29.0383 32.7959 28.0227C32.0241 27.0069 30.95 26.286 29.744 25.9667C29.2101 25.8253 28.8919 25.2779 29.0333 24.744ZM11.6667 26C10.1638 26 8.72243 26.597 7.65973 27.6597C6.59702 28.7224 6 30.1638 6 31.6667V35C6 35.5523 5.55228 36 5 36C4.44772 36 4 35.5523 4 35V31.6667C4 29.6333 4.80774 27.6833 6.24551 26.2455C7.68329 24.8077 9.63334 24 11.6667 24H18.3333C20.3667 24 22.3167 24.8077 23.7545 26.2455C25.1923 27.6833 26 29.6333 26 31.6667V35C26 35.5523 25.5523 36 25 36C24.4477 36 24 35.5523 24 35V31.6667C24 30.1638 23.403 28.7224 22.3403 27.6597C21.2776 26.597 19.8362 26 18.3333 26H11.6667Z" />
</svg>
