<svg width="40" height="40" viewBox="0 0 40 40" xmlns="http://www.w3.org/2000/svg">
<path fill-rule="evenodd" clip-rule="evenodd" d="M20 6C13.9249 6 9 10.9249 9 17C9 23.0751 13.9249 28 20 28C26.0751 28 31 23.0751 31 17C31 10.9249 26.0751 6 20 6ZM7 17C7 9.8203 12.8203 4 20 4C27.1797 4 33 9.8203 33 17C33 21.4309 30.7833 25.344 27.3983 27.6909L30.6288 33.0622C30.8658 33.4567 30.9941 33.9075 30.9998 34.3678C31.0055 34.8281 30.8887 35.2815 30.6615 35.6818C30.4343 36.0821 30.105 36.4147 29.7073 36.6462C29.3097 36.8776 28.8578 36.9996 28.3977 37H11.603C11.143 36.9996 10.6903 36.8776 10.2927 36.6462C9.89501 36.4147 9.56566 36.0821 9.33847 35.6818C9.11128 35.2815 8.99449 34.8281 9.0002 34.3678C9.00591 33.9075 9.13393 33.4571 9.37097 33.0626L12.6017 27.6909C9.21675 25.344 7 21.4309 7 17ZM14.3282 28.7008L11.0853 34.0926C11.0309 34.1834 11.0014 34.2872 11 34.3926C10.9987 34.4982 11.0255 34.6024 11.0778 34.6946C11.1302 34.7868 11.2063 34.8638 11.2987 34.9176C11.3911 34.9714 11.4964 34.9999 11.6038 35H28.3962C28.5036 34.9999 28.6089 34.9714 28.7013 34.9176C28.7937 34.8638 28.8698 34.7868 28.9222 34.6946C28.9745 34.6024 29.0013 34.4982 29 34.3926C28.9986 34.2872 28.9694 34.1838 28.9149 34.093L25.6718 28.7008C23.9578 29.5331 22.0334 30 20 30C17.9666 30 16.0422 29.5331 14.3282 28.7008ZM20 13C17.7909 13 16 14.7909 16 17C16 19.2091 17.7909 21 20 21C22.2091 21 24 19.2091 24 17C24 14.7909 22.2091 13 20 13ZM14 17C14 13.6863 16.6863 11 20 11C23.3137 11 26 13.6863 26 17C26 20.3137 23.3137 23 20 23C16.6863 23 14 20.3137 14 17Z" />
</svg>
