<svg width="40" height="40" viewBox="0 0 40 40" xmlns="http://www.w3.org/2000/svg">
<path fill-rule="evenodd" clip-rule="evenodd" d="M11.4286 6C10.7755 6 10.1547 6.25248 9.70128 6.69331C9.24882 7.1332 9 7.72373 9 8.33333V31.6667C9 32.2763 9.24882 32.8668 9.70128 33.3067C10.1547 33.7475 10.7755 34 11.4286 34H28.5714C29.2245 34 29.8453 33.7475 30.2987 33.3067C30.7512 32.8668 31 32.2763 31 31.6667V15H24.8C24.0574 15 23.3452 14.705 22.8201 14.1799C22.295 13.6548 22 12.9426 22 12.2V6H11.4286ZM11.4286 4C10.263 4 9.13967 4.4499 8.30713 5.25932C7.47363 6.06966 7 7.17483 7 8.33333V31.6667C7 32.8252 7.47363 33.9303 8.30713 34.7407C9.13967 35.5501 10.263 36 11.4286 36H28.5714C29.737 36 30.8603 35.5501 31.6929 34.7407C32.5264 33.9303 33 32.8252 33 31.6667V13.3333C33 13.0632 32.8907 12.8046 32.6971 12.6163L24.1257 4.28301C23.939 4.10153 23.6889 4 23.4286 4H11.4286ZM24 6.95027L30.2226 13H24.8C24.5878 13 24.3843 12.9157 24.2343 12.7657C24.0843 12.6157 24 12.4122 24 12.2V6.95027ZM14 16C14 15.4477 14.4477 15 15 15H16.6667C17.219 15 17.6667 15.4477 17.6667 16C17.6667 16.5523 17.219 17 16.6667 17H15C14.4477 17 14 16.5523 14 16ZM14 22C14 21.4477 14.4477 21 15 21H25C25.5523 21 26 21.4477 26 22C26 22.5523 25.5523 23 25 23H15C14.4477 23 14 22.5523 14 22ZM14 28C14 27.4477 14.4477 27 15 27H25C25.5523 27 26 27.4477 26 28C26 28.5523 25.5523 29 25 29H15C14.4477 29 14 28.5523 14 28Z" />
</svg>
