<svg width="40" height="40" viewBox="0 0 40 40" xmlns="http://www.w3.org/2000/svg">
<path fill-rule="evenodd" clip-rule="evenodd" d="M11.4286 6C10.7756 6 10.1547 6.25248 9.70133 6.69331C9.24887 7.1332 9.00005 7.72373 9.00005 8.33333V13C9.00005 13.5523 8.55233 14 8.00005 14C7.44776 14 7.00005 13.5523 7.00005 13V8.33333C7.00005 7.17483 7.47367 6.06966 8.30717 5.25932C9.13972 4.4499 10.263 4 11.4286 4H23.4286C23.6819 4 23.9258 4.09612 24.1109 4.26894L32.6824 12.2689C32.885 12.4581 33 12.7228 33 13V31.6667C33 32.8252 32.5264 33.9303 31.6929 34.7407C30.8604 35.5501 29.7371 36 28.5715 36H20C19.4478 36 19 35.5523 19 35C19 34.4477 19.4478 34 20 34H28.5715C29.2245 34 29.8453 33.7475 30.2988 33.3067C30.7512 32.8668 31 32.2763 31 31.6667V14H24.8C24.093 14 23.3946 13.7514 22.8629 13.2788C22.3274 12.8028 22 12.1301 22 11.4V6H11.4286ZM24 6.90122V11.4C24 11.5186 24.052 11.6599 24.1916 11.784C24.3351 11.9115 24.5523 12 24.8 12H29.463L24 6.90122ZM10 19C7.79091 19 6.00005 20.7909 6.00005 23C6.00005 25.2091 7.79091 27 10 27C12.2092 27 14 25.2091 14 23C14 20.7909 12.2092 19 10 19ZM4.00005 23C4.00005 19.6863 6.68634 17 10 17C13.3138 17 16 19.6863 16 23C16 25.0065 15.0151 26.7829 13.5024 27.8722L15.9636 36.7324C16.0709 37.1187 15.9371 37.5317 15.6236 37.7818C15.3102 38.0318 14.8777 38.0704 14.5249 37.8799L10 35.4365L5.47519 37.8799C5.1224 38.0704 4.68992 38.0318 4.37647 37.7818C4.06302 37.5317 3.92922 37.1187 4.03653 36.7324L6.49767 27.8722C4.98495 26.7829 4.00005 25.0065 4.00005 23ZM8.32588 28.7633L6.59246 35.0036L9.5249 33.4201C9.82143 33.26 10.1787 33.26 10.4752 33.4201L13.4076 35.0036L11.6742 28.7633C11.1428 28.9174 10.5811 29 10 29C9.419 29 8.85724 28.9174 8.32588 28.7633Z" />
</svg>
