<svg width="40" height="40" viewBox="0 0 40 40" xmlns="http://www.w3.org/2000/svg">
<path fill-rule="evenodd" clip-rule="evenodd" d="M13 3C13.5523 3 14 3.44772 14 4V6H25V4C25 3.44772 25.4477 3 26 3C26.5523 3 27 3.44772 27 4V6H29.625C30.7853 6 31.8981 6.46094 32.7186 7.28141C33.5391 8.10188 34 9.21468 34 10.375V17C34 17.5523 33.5523 18 33 18H7V30.625C7 31.2549 7.25022 31.859 7.69562 32.3044C8.14102 32.7498 8.74511 33 9.375 33H21C21.5523 33 22 33.4477 22 34C22 34.5523 21.5523 35 21 35H9.375C8.21468 35 7.10188 34.5391 6.28141 33.7186C5.46094 32.8981 5 31.7853 5 30.625V10.375C5 9.21468 5.46094 8.10188 6.28141 7.28141C7.10188 6.46094 8.21468 6 9.375 6H12V4C12 3.44772 12.4477 3 13 3ZM12 8H9.375C8.74511 8 8.14102 8.25022 7.69562 8.69562C7.25022 9.14102 7 9.74511 7 10.375V16H32V10.375C32 9.74511 31.7498 9.14102 31.3044 8.69562C30.859 8.25022 30.2549 8 29.625 8H27V11C27 11.5523 26.5523 12 26 12C25.4477 12 25 11.5523 25 11V8H14V11C14 11.5523 13.5523 12 13 12C12.4477 12 12 11.5523 12 11V8ZM30 23.083C27.1623 23.559 25 26.027 25 29C25 32.3137 27.6863 35 31 35C33.973 35 36.441 32.8377 36.917 30H31C30.4477 30 30 29.5523 30 29V23.083ZM32 23.083V28H36.917C36.4955 25.4875 34.5125 23.5045 32 23.083ZM23 29C23 24.5817 26.5817 21 31 21C35.4183 21 39 24.5817 39 29C39 33.4183 35.4183 37 31 37C26.5817 37 23 33.4183 23 29Z" />
</svg>
