<svg width="40" height="40" viewBox="0 0 40 40" xmlns="http://www.w3.org/2000/svg">
<path d="M20 23C20.5523 23 21 22.5523 21 22C21 21.4477 20.5523 21 20 21C19.4477 21 19 21.4477 19 22C19 22.5523 19.4477 23 20 23Z" />
<path fill-rule="evenodd" clip-rule="evenodd" d="M27.0002 10V12H30.8891C33.1492 12 35.0002 13.8149 35.0002 16.0769V22.9773C35.0006 22.9921 35.0006 23.0068 35.0002 23.0215V29.9231C35.0002 32.1851 33.1492 34 30.8891 34H9.11136C6.8513 34 5.00024 32.1851 5.00024 29.9231V23.0215C4.99992 23.0068 4.99992 22.9921 5.00024 22.9773V16.0769C5.00024 13.8149 6.8513 12 9.11136 12H13.0002V10C13.0002 8.93913 13.4217 7.92172 14.1718 7.17157C14.922 6.42143 15.9394 6 17.0002 6H23.0002C24.0611 6 25.0785 6.42143 25.8287 7.17157C26.5788 7.92172 27.0002 8.93913 27.0002 10ZM15.586 8.58579C15.9611 8.21071 16.4698 8 17.0002 8H23.0002C23.5307 8 24.0394 8.21071 24.4145 8.58579C24.7895 8.96086 25.0002 9.46957 25.0002 10V12H15.0002V10C15.0002 9.46957 15.211 8.96086 15.586 8.58579ZM7.00024 16.0769C7.00024 14.9403 7.93498 14 9.11136 14H30.8891C32.0655 14 33.0002 14.9403 33.0002 16.0769V22.3488C28.9465 24.092 24.5048 25 20.0002 25C15.4957 25 11.054 24.092 7.00024 22.3488V16.0769ZM20.0002 27C24.4814 27 28.9094 26.152 33.0002 24.5141V29.9231C33.0002 31.0597 32.0655 32 30.8891 32H9.11136C7.93498 32 7.00024 31.0597 7.00024 29.9231V24.5141C11.0911 26.152 15.5191 27 20.0002 27Z" />
</svg>
