<svg width="40" height="40" viewBox="0 0 40 40" xmlns="http://www.w3.org/2000/svg">
<path fill-rule="evenodd" clip-rule="evenodd" d="M20 12.8338L25.5145 16.1425C25.9881 16.4267 26.1416 17.0409 25.8575 17.5145C25.5733 17.9881 24.9591 18.1417 24.4855 17.8575L20 15.1662L15.5145 17.8575C15.0409 18.1417 14.4267 17.9881 14.1425 17.5145C13.8584 17.0409 14.0119 16.4267 14.4855 16.1425L20 12.8338Z" />
<path fill-rule="evenodd" clip-rule="evenodd" d="M20 16.8338L25.5145 20.1425C25.9881 20.4267 26.1416 21.0409 25.8575 21.5145C25.5733 21.9881 24.9591 22.1417 24.4855 21.8575L20 19.1662L15.5145 21.8575C15.0409 22.1417 14.4267 21.9881 14.1425 21.5145C13.8584 21.0409 14.0119 20.4267 14.4855 20.1425L20 16.8338Z" />
<path fill-rule="evenodd" clip-rule="evenodd" d="M20 20.8338L25.5145 24.1425C25.9881 24.4267 26.1416 25.0409 25.8575 25.5145C25.5733 25.9881 24.9591 26.1417 24.4855 25.8575L20 23.1662L15.5145 25.8575C15.0409 26.1417 14.4267 25.9881 14.1425 25.5145C13.8584 25.0409 14.0119 24.4267 14.4855 24.1425L20 20.8338Z" />
<path d="M16.2947 34.5352C16.1583 35.0704 16.4812 35.6181 17.0238 35.7208C20.109 36.3049 23.3062 35.9694 26.2134 34.7443C29.4285 33.3894 32.1126 31.0208 33.8569 27.9992C35.6012 24.9776 36.31 21.4687 35.8754 18.007C35.4408 14.5452 33.8866 11.3204 31.4495 8.82377C29.0125 6.32713 25.8261 4.69549 22.3759 4.17741C18.9257 3.65933 15.4007 4.28319 12.3378 5.95398C9.275 7.62477 6.84223 10.2509 5.4101 13.4323C4.11513 16.309 3.70249 19.4972 4.21193 22.5956C4.30153 23.1406 4.84128 23.4766 5.37959 23.3532C5.9179 23.2297 6.25044 22.6935 6.1657 22.1477C5.75081 19.4755 6.11793 16.7322 7.23383 14.2533C8.48695 11.4695 10.6156 9.17167 13.2956 7.70974C15.9756 6.2478 19.06 5.70191 22.0789 6.15524C25.0979 6.60856 27.8859 8.03624 30.0183 10.2208C32.1508 12.4054 33.5107 15.2271 33.891 18.2561C34.2712 21.2851 33.651 24.3554 32.1248 26.9993C30.5985 29.6432 28.2499 31.7157 25.4367 32.9013C22.9316 33.957 20.1803 34.2577 17.5188 33.7784C16.9753 33.6805 16.4311 34 16.2947 34.5352Z" />
<path fill-rule="evenodd" clip-rule="evenodd" d="M9 35C11.2091 35 13 33.2092 13 31C13 28.7909 11.2091 27 9 27C6.79086 27 5 28.7909 5 31C5 33.2092 6.79086 35 9 35ZM9 37C12.3137 37 15 34.3137 15 31C15 27.6863 12.3137 25 9 25C5.68629 25 3 27.6863 3 31C3 34.3137 5.68629 37 9 37Z" />
<path d="M8 30C8 29.4477 8.44772 29 9 29C9.55228 29 10 29.4477 10 30V32C10 32.5523 9.55228 33 9 33C8.44772 33 8 32.5523 8 32V30Z" />
</svg>
