<svg width="40" height="40" viewBox="0 0 40 40" xmlns="http://www.w3.org/2000/svg">
<path fill-rule="evenodd" clip-rule="evenodd" d="M20 2.99915L20.042 3.00091C23.1728 3.13246 26.1399 4.4347 28.3548 6.64961C30.5698 8.86455 31.8706 11.8304 31.9992 14.959L32.0009 15.0005L31.9991 15.042C31.8676 18.1711 30.5657 21.1366 28.3511 23.3511C26.347 25.3553 23.7277 26.612 20.9288 26.9302C20.6069 29.7292 19.3488 32.3477 17.3453 34.3512C15.1315 36.565 12.1687 37.8669 9.04227 37.9991L8 38.0432V14.9795L8.00084 14.959C8.12936 11.8304 9.43024 8.86455 11.6452 6.64961C13.8601 4.4347 16.8272 3.13246 19.958 3.00091L20 2.99915ZM21 24.9049C23.2386 24.5855 25.3247 23.5491 26.9369 21.9369C28.5491 20.3248 29.5854 18.2387 29.9049 16H21V24.9049ZM21 14H29.9059C29.5884 11.7622 28.553 9.67624 26.9406 8.06382C25.3281 6.4513 23.2406 5.41454 21 5.09507V14ZM19 5.09507V14H10.0941C10.4116 11.7622 11.447 9.67624 13.0594 8.06382C14.6719 6.4513 16.7594 5.41454 19 5.09507ZM10 16H19V25H10V16ZM10 27V35.9045C12.2358 35.5845 14.3195 34.5485 15.9311 32.937C17.5428 31.3253 18.5806 29.2395 18.9033 27H10Z" />
</svg>
