<svg width="40" height="40" viewBox="0 0 40 40" xmlns="http://www.w3.org/2000/svg">
<path fill-rule="evenodd" clip-rule="evenodd" d="M23 3C23.5523 3 24 3.44772 24 4V11.4C24 11.5186 24.052 11.6599 24.1916 11.784C24.335 11.9115 24.5523 12 24.8 12H32C32.5523 12 33 12.4477 33 13C33 13.5523 32.5523 14 32 14H24.8C24.0929 14 23.3945 13.7514 22.8628 13.2788C22.3273 12.8028 22 12.1301 22 11.4V4C22 3.44772 22.4477 3 23 3Z" />
<path fill-rule="evenodd" clip-rule="evenodd" d="M11.4286 5C10.7788 5 10.1592 5.25375 9.70503 5.69992C9.25149 6.14551 9 6.74604 9 7.36842V20.8421C9 21.3944 8.55228 21.8421 8 21.8421C7.44772 21.8421 7 21.3944 7 20.8421V7.36842C7 6.20408 7.47096 5.09107 8.30338 4.27325C9.13521 3.45602 10.2597 3 11.4286 3H23.5C23.7652 3 24.0196 3.10536 24.2071 3.29289L32.7071 11.7929C32.8946 11.9804 33 12.2348 33 12.5V30.5C33 31.6247 32.56 32.8692 31.7008 33.7133C30.8602 34.5392 29.6562 35 28.5 35H19C18.4477 35 18 34.5523 18 34C18 33.4477 18.4477 33 19 33H28.5C29.1624 33 29.8538 32.7242 30.2992 32.2867C30.7259 31.8674 31 31.162 31 30.5V12.9142L23.0858 5H11.4286Z" />
<path fill-rule="evenodd" clip-rule="evenodd" d="M9.5 35C11.433 35 13 33.433 13 31.5C13 29.567 11.433 28 9.5 28C7.567 28 6 29.567 6 31.5C6 33.433 7.567 35 9.5 35ZM9.5 37C12.5376 37 15 34.5376 15 31.5C15 28.4624 12.5376 26 9.5 26C6.46243 26 4 28.4624 4 31.5C4 34.5376 6.46243 37 9.5 37Z" />
<path d="M11 31.5C11 32.3284 10.3284 33 9.5 33C8.67157 33 8 32.3284 8 31.5C8 30.6716 8.67157 30 9.5 30C10.3284 30 11 30.6716 11 31.5Z" />
<path d="M17 18C17 17.4477 17.4477 17 18 17C18.5523 17 19 17.4477 19 18V24C19 24.5523 18.5523 25 18 25C17.4477 25 17 24.5523 17 24V18Z" />
<path d="M21 18C21 17.4477 21.4477 17 22 17C22.5523 17 23 17.4477 23 18V24C23 24.5523 22.5523 25 22 25C21.4477 25 21 24.5523 21 24V18Z" />
</svg>
