<svg width="40" height="40" viewBox="0 0 40 40" xmlns="http://www.w3.org/2000/svg">
<path fill-rule="evenodd" clip-rule="evenodd" d="M20 4C20.5523 4 21 4.44772 21 5V7.1802L30.1961 9.01942C30.4987 9.07994 30.7564 9.27677 30.8944 9.55279L35.8944 19.5528C35.9639 19.6916 36 19.8448 36 20C36 21.5913 35.3679 23.1174 34.2426 24.2426C33.1174 25.3679 31.5913 26 30 26C28.4087 26 26.8826 25.3679 25.7574 24.2426C24.6321 23.1174 24 21.5913 24 20C24 19.8448 24.0361 19.6916 24.1056 19.5528L28.5201 10.7238L21 9.2198V34H28C28.5523 34 29 34.4477 29 35C29 35.5523 28.5523 36 28 36H12C11.4477 36 11 35.5523 11 35C11 34.4477 11.4477 34 12 34H19V9.2198L11.4799 10.7238L15.8944 19.5528C15.9639 19.6916 16 19.8448 16 20C16 21.5913 15.3679 23.1174 14.2426 24.2426C13.1174 25.3679 11.5913 26 10 26C8.4087 26 6.88258 25.3679 5.75736 24.2426C4.63214 23.1174 4 21.5913 4 20C4 19.8448 4.03615 19.6916 4.10557 19.5528L9.10557 9.55279C9.24358 9.27677 9.50129 9.07994 9.80388 9.01942L19 7.1802V5C19 4.44772 19.4477 4 20 4ZM10 12.2361L13.9938 20.2236C13.939 21.2029 13.5257 22.1311 12.8284 22.8284C12.0783 23.5786 11.0609 24 10 24C8.93913 24 7.92172 23.5786 7.17157 22.8284C6.4743 22.1311 6.06103 21.2029 6.00625 20.2236L10 12.2361ZM30 12.2361L26.0062 20.2236C26.061 21.2029 26.4743 22.1312 27.1716 22.8284C27.9217 23.5786 28.9391 24 30 24C31.0609 24 32.0783 23.5786 32.8284 22.8284C33.5257 22.1311 33.939 21.2029 33.9938 20.2236L30 12.2361Z" />
</svg>
