<svg width="40" height="40" viewBox="0 0 40 40" xmlns="http://www.w3.org/2000/svg">
<path fill-rule="evenodd" clip-rule="evenodd" d="M20 5C20.5523 5 21 5.44772 21 6V23.3698L27.2526 16.3356C27.6195 15.9229 28.2516 15.8857 28.6644 16.2526C29.0771 16.6195 29.1143 17.2516 28.7474 17.6644L20.7474 26.6644C20.5576 26.8779 20.2856 27 20 27C19.7144 27 19.4424 26.8779 19.2526 26.6644L11.2526 17.6644C10.8857 17.2516 10.9229 16.6195 11.3356 16.2526C11.7484 15.8857 12.3805 15.9229 12.7474 16.3356L19 23.3698V6C19 5.44772 19.4477 5 20 5ZM7 26C7.55228 26 8 26.4477 8 27V30.5C8 31.186 8.25372 31.8303 8.6847 32.2944C9.11335 32.756 9.67818 33 10.25 33H29.75C30.3218 33 30.8867 32.756 31.3153 32.2944C31.7463 31.8303 32 31.186 32 30.5V27C32 26.4477 32.4477 26 33 26C33.5523 26 34 26.4477 34 27V30.5C34 31.6705 33.5689 32.8067 32.7809 33.6553C31.9906 34.5065 30.9021 35 29.75 35H10.25C9.09791 35 8.00944 34.5065 7.21911 33.6553C6.4311 32.8067 6 31.6705 6 30.5V27C6 26.4477 6.44772 26 7 26Z" />
</svg>
