<svg width="40" height="40" viewBox="0 0 40 40" xmlns="http://www.w3.org/2000/svg">
<path fill-rule="evenodd" clip-rule="evenodd" d="M23 3C23.5523 3 24 3.44772 24 4V11.4C24 11.5186 24.052 11.6599 24.1916 11.784C24.335 11.9115 24.5523 12 24.8 12H32C32.5523 12 33 12.4477 33 13C33 13.5523 32.5523 14 32 14H24.8C24.0929 14 23.3945 13.7514 22.8628 13.2788C22.3273 12.8028 22 12.1301 22 11.4V4C22 3.44772 22.4477 3 23 3Z" />
<path fill-rule="evenodd" clip-rule="evenodd" d="M11.4286 5C10.7788 5 10.1592 5.25375 9.70503 5.69992C9.25149 6.14551 9 6.74604 9 7.36842V20.8421C9 21.3944 8.55228 21.8421 8 21.8421C7.44772 21.8421 7 21.3944 7 20.8421V7.36842C7 6.20408 7.47096 5.09107 8.30338 4.27325C9.13521 3.45602 10.2597 3 11.4286 3H23.5C23.7652 3 24.0196 3.10536 24.2071 3.29289L32.7071 11.7929C32.8946 11.9804 33 12.2348 33 12.5V30.5C33 31.6247 32.56 32.8692 31.7008 33.7133C30.8602 34.5392 29.6562 35 28.5 35H19C18.4477 35 18 34.5523 18 34C18 33.4477 18.4477 33 19 33H28.5C29.1624 33 29.8538 32.7242 30.2992 32.2867C30.7259 31.8674 31 31.162 31 30.5V12.9142L23.0858 5H11.4286ZM9.28916 25.2966C9.67761 24.9041 10.3108 24.9007 10.7034 25.2892L15.7034 30.2365C15.8919 30.4231 15.9986 30.6769 16 30.9421C16.0014 31.2073 15.8974 31.4622 15.7108 31.6508L10.7108 36.7034C10.3223 37.096 9.68917 37.0993 9.29661 36.7108C8.90404 36.3223 8.90073 35.6892 9.2892 35.2966L12.6035 31.9474H3C2.44772 31.9474 2 31.4997 2 30.9474C2 30.3951 2.44772 29.9474 3 29.9474H12.5676L9.29664 26.7108C8.90406 26.3224 8.90071 25.6892 9.28916 25.2966Z" />
<path d="M15 19C15 18.4477 15.4477 18 16 18H24C24.5523 18 25 18.4477 25 19C25 19.5523 24.5523 20 24 20H16C15.4477 20 15 19.5523 15 19Z" />
<path d="M15 23C15 22.4477 15.4477 22 16 22H21C21.5523 22 22 22.4477 22 23C22 23.5523 21.5523 24 21 24H16C15.4477 24 15 23.5523 15 23Z" />
</svg>
