<svg width="40" height="40" viewBox="0 0 40 40" xmlns="http://www.w3.org/2000/svg">
<path fill-rule="evenodd" clip-rule="evenodd" d="M20 10.6667C20.5523 10.6667 21 11.1144 21 11.6667V19.5858L25.7071 24.2929C26.0976 24.6834 26.0976 25.3166 25.7071 25.7071C25.3166 26.0976 24.6834 26.0976 24.2929 25.7071L19.2929 20.7071C19.1054 20.5196 19 20.2652 19 20V11.6667C19 11.1144 19.4477 10.6667 20 10.6667Z" />
<path fill-rule="evenodd" clip-rule="evenodd" d="M9 35C11.2091 35 13 33.2092 13 31C13 28.7909 11.2091 27 9 27C6.79086 27 5 28.7909 5 31C5 33.2092 6.79086 35 9 35ZM9 37C12.3137 37 15 34.3137 15 31C15 27.6863 12.3137 25 9 25C5.68629 25 3 27.6863 3 31C3 34.3137 5.68629 37 9 37Z" />
<path d="M8 27C8 26.4477 8.44772 26 9 26C9.55228 26 10 26.4477 10 27V31C10 31.5523 9.55228 32 9 32C8.44772 32 8 31.5523 8 31V27Z" />
<path d="M13 30C13.5523 30 14 30.4477 14 31C14 31.5523 13.5523 32 13 32H9C8.44772 32 8 31.5523 8 31C8 30.4477 8.44772 30 9 30H13Z" />
<path fill-rule="evenodd" clip-rule="evenodd" d="M13.1479 5.54149C16.192 4.09885 19.6138 3.6538 22.9256 4.26977C26.2375 4.88573 29.2704 6.53128 31.5923 8.97192C33.9141 11.4126 35.4064 14.5238 35.8565 17.8622C36.3066 21.2006 35.6916 24.596 34.099 27.5644C32.5064 30.5328 30.0175 32.9228 26.987 34.3938C24.2571 35.719 21.2132 36.2375 18.2113 35.8997C17.6624 35.838 17.2994 35.316 17.3953 34.7721C17.4912 34.2282 18.0098 33.8688 18.5591 33.9257C21.1455 34.1933 23.7627 33.7358 26.1136 32.5946C28.7653 31.3074 30.9431 29.2162 32.3366 26.6188C33.7301 24.0215 34.2683 21.0506 33.8745 18.1294C33.4806 15.2083 32.1749 12.486 30.1432 10.3504C28.1116 8.21487 25.4578 6.77502 22.5599 6.23605C19.6621 5.69708 16.668 6.0865 14.0044 7.3488C11.3408 8.61111 9.14362 10.6819 7.72586 13.2661C6.46887 15.5573 5.88145 18.1484 6.01982 20.7449C6.04921 21.2964 5.6644 21.7964 5.1164 21.8651C4.5684 21.9338 4.0652 21.5451 4.03089 20.9939C3.8432 17.9788 4.51283 14.9646 5.97241 12.3041C7.59271 9.35075 10.1038 6.98413 13.1479 5.54149Z" />
</svg>
