<svg width="40" height="40" viewBox="0 0 40 40" xmlns="http://www.w3.org/2000/svg">
<path fill-rule="evenodd" clip-rule="evenodd" d="M28.7162 8.04752C28.629 8.00712 28.5313 7.99185 28.4347 8.00414C28.3425 8.01588 28.2565 8.05211 28.1855 8.1076L20.6618 14.7497C20.4791 14.911 20.2437 15 20 15H18V22H20C20.2437 22 20.4791 22.089 20.6618 22.2503L28.1855 28.8924C28.2565 28.9479 28.3425 28.9841 28.4347 28.9959C28.5313 29.0082 28.629 28.9929 28.7162 28.9525C28.8032 28.9121 28.8752 28.8489 28.9248 28.7716C28.9744 28.6945 29 28.606 29 28.5166V8.4839C29 8.39447 28.9744 8.30553 28.9248 8.2284C28.8752 8.15114 28.8032 8.08788 28.7162 8.04752ZM31 14.127V21.873C31.686 21.6958 32.3189 21.338 32.8284 20.8284C33.5786 20.0783 34 19.0609 34 18C34 16.9391 33.5786 15.9217 32.8284 15.1716C32.3189 14.662 31.686 14.3042 31 14.127ZM31 23.9161C32.2203 23.7098 33.3559 23.1293 34.2426 22.2426C35.3679 21.1174 36 19.5913 36 18C36 16.4087 35.3679 14.8826 34.2426 13.7574C33.3559 12.8707 32.2203 12.2902 31 12.0839V8.48442M31 23.9161V28.5156C31 28.5158 31 28.5154 31 28.5156C31.0001 28.9898 30.8636 29.454 30.6075 29.8527C30.3513 30.2514 29.9866 30.568 29.5573 30.767C29.1281 30.966 28.6512 31.0396 28.1822 30.9799C27.7131 30.9201 27.2697 30.7293 26.9043 30.4284C26.8955 30.4211 26.8868 30.4137 26.8782 30.4061L19.6217 24H18V31.3333C18 32.0406 17.719 32.7189 17.219 33.219C16.7189 33.719 16.0406 34 15.3333 34H13.6667C12.9594 34 12.2811 33.719 11.781 33.219C11.281 32.7189 11 32.0406 11 31.3333V24H6.66667C5.96305 24 5.286 23.7237 4.78506 23.2284C4.28373 22.7327 4 22.058 4 21.3521V15.6479C4 14.942 4.28373 14.2673 4.78506 13.7716C5.286 13.2763 5.96305 13 6.66667 13H19.6217L26.8782 6.59387C26.8868 6.5863 26.8955 6.57888 26.9043 6.57161C27.2697 6.27067 27.7131 6.07987 28.1822 6.02015C28.6512 5.96044 29.1281 6.03405 29.5573 6.233C29.9866 6.432 30.3513 6.74864 30.6075 7.14734C30.8636 7.546 31.0001 8.01017 31 8.48442M16 15H6.66667C6.48623 15 6.31543 15.071 6.19125 15.1938C6.06746 15.3162 6 15.4798 6 15.6479V21.3521C6 21.5202 6.06746 21.6838 6.19125 21.8062C6.31543 21.929 6.48623 22 6.66667 22H16V15ZM16 24H13V31.3333C13 31.5101 13.0702 31.6797 13.1953 31.8047C13.3203 31.9298 13.4899 32 13.6667 32H15.3333C15.5101 32 15.6797 31.9298 15.8047 31.8047C15.9298 31.6797 16 31.5101 16 31.3333V24Z" />
</svg>
