<svg width="40" height="40" viewBox="0 0 40 40" xmlns="http://www.w3.org/2000/svg">
<path fill-rule="evenodd" clip-rule="evenodd" d="M12.8901 7.83814C15.5776 6.33347 18.6979 5.7283 21.7714 6.11262C24.845 6.49696 27.7078 7.85046 29.9171 9.97068C32.1269 12.0914 33.5604 14.8621 33.99 17.858C34.0684 18.4047 33.6888 18.9115 33.1421 18.9899C32.5954 19.0683 32.0887 18.6886 32.0103 18.1419C31.6451 15.5953 30.4254 13.2305 28.5323 11.4137C26.6386 9.5964 24.1764 8.42893 21.5233 8.09717C18.87 7.76539 16.1794 8.28869 13.8671 9.58326C12.0339 10.6096 10.5052 12.1856 9.43884 14.0058L12.9985 14C13.5508 13.9991 13.9992 14.4461 14.0001 14.9984C14.001 15.5506 13.5541 15.9991 13.0018 16L7.87 16.0084C7.83274 16.0106 7.79521 16.0107 7.7576 16.0086L7.00177 16.0099C6.73627 16.0103 6.48149 15.9051 6.2936 15.7175C6.10571 15.53 6.00013 15.2754 6.00013 15.0099V9C6.00013 8.44771 6.44784 8 7.00013 8C7.55241 8 8.00013 8.44771 8.00013 9V12.5255C9.21444 10.6191 10.8843 8.96109 12.8901 7.83814Z" />
<path fill-rule="evenodd" clip-rule="evenodd" d="M6.85818 21.0101C7.40487 20.9317 7.91161 21.3114 7.99 21.858C8.35519 24.4047 9.57489 26.7695 11.468 28.5863C13.3616 30.4036 15.8238 31.5711 18.477 31.9028C21.1303 32.2346 23.8209 31.7113 26.1332 30.4167C27.9678 29.3896 29.4973 27.812 30.5638 25.9901H27.0001C26.4478 25.9901 26.0001 25.5424 26.0001 24.9901C26.0001 24.4379 26.4478 23.9901 27.0001 23.9901H32.1656C32.1806 23.9898 32.1956 23.9898 32.2107 23.9901H33.0001C33.5524 23.9901 34.0001 24.4379 34.0001 24.9901V31C34.0001 31.5523 33.5524 32 33.0001 32C32.4478 32 32.0001 31.5523 32.0001 31V27.4745C30.7858 29.3809 29.1159 31.0389 27.1102 32.1619C24.4226 33.6665 21.3023 34.2717 18.2288 33.8874C15.1552 33.503 12.2925 32.1495 10.0832 30.0293C7.87339 27.9086 6.43988 25.1379 6.01025 22.1419C5.93186 21.5953 6.31149 21.0885 6.85818 21.0101Z" />
<path fill-rule="evenodd" clip-rule="evenodd" d="M20.0001 14C20.5524 14 21.0001 14.4477 21.0001 15V20C21.0001 20.5523 20.5524 21 20.0001 21C19.4478 21 19.0001 20.5523 19.0001 20V15C19.0001 14.4477 19.4478 14 20.0001 14Z" />
<path d="M21.0001 25C21.0001 25.5523 20.5524 26 20.0001 26C19.4478 26 19.0001 25.5523 19.0001 25C19.0001 24.4477 19.4478 24 20.0001 24C20.5524 24 21.0001 24.4477 21.0001 25Z" />
</svg>
