<svg width="40" height="40" viewBox="0 0 40 40" xmlns="http://www.w3.org/2000/svg">
<path fill-rule="evenodd" clip-rule="evenodd" d="M22.9575 7.20181C21.5455 7.94933 21 8.81029 21 9.5C21 10.1897 21.5455 11.0507 22.9575 11.7982C24.3247 12.522 26.2826 13 28.5 13C30.7174 13 32.6753 12.522 34.0425 11.7982C35.4545 11.0507 36 10.1897 36 9.5C36 8.81029 35.4545 7.94933 34.0425 7.20181C32.6753 6.47798 30.7174 6 28.5 6C26.2826 6 24.3247 6.47798 22.9575 7.20181ZM22.0217 5.43423C23.7309 4.52938 26.023 4 28.5 4C30.977 4 33.2691 4.52938 34.9783 5.43423C36.6427 6.31539 38 7.70443 38 9.5C38 9.61019 37.9949 9.71885 37.9849 9.82596C37.9948 9.88248 38 9.94064 38 10V16.2857C38 16.4458 37.9899 16.6028 37.9702 16.7569C37.9897 16.8347 38 16.9162 38 17V29.8571C38 31.7626 36.728 33.3207 35.0278 34.3494C33.3088 35.3893 30.9984 36 28.5 36C26.0016 36 23.6912 35.3893 21.9722 34.3494C20.272 33.3207 19 31.7626 19 29.8571V17C19 16.9162 19.0103 16.8347 19.0298 16.7569C19.0101 16.6028 19 16.4458 19 16.2857V10C19 9.94064 19.0052 9.88248 19.0151 9.82596C19.0051 9.71885 19 9.61019 19 9.5C19 7.70442 20.3573 6.31539 22.0217 5.43423ZM21 12.9271V16.2857C21 17.0587 21.5769 17.9695 22.9748 18.7448C24.3385 19.501 26.2901 20 28.5 20C30.7099 20 32.6615 19.501 34.0252 18.7448C35.4231 17.9695 36 17.0587 36 16.2857V12.9271C35.6806 13.1629 35.3366 13.3761 34.9783 13.5658C33.2691 14.4706 30.977 15 28.5 15C26.023 15 23.7309 14.4706 22.0217 13.5658C21.6634 13.3761 21.3194 13.1629 21 12.9271ZM21 19.8381V23.2857C21 24.0586 21.5769 24.9695 22.9748 25.7448C24.3385 26.501 26.2901 27 28.5 27C30.7099 27 32.6615 26.501 34.0252 25.7448C35.4231 24.9695 36 24.0586 36 23.2857V19.8381C35.6868 20.0787 35.3488 20.2977 34.9951 20.4938C33.2822 21.4437 30.9838 22 28.5 22C26.0162 22 23.7178 21.4437 22.0049 20.4938C21.6512 20.2977 21.3132 20.0787 21 19.8381ZM36 26.8381C35.6868 27.0787 35.3488 27.2977 34.9951 27.4938C33.2822 28.4437 30.9838 29 28.5 29C26.0162 29 23.7178 28.4437 22.0049 27.4938C21.6512 27.2977 21.3132 27.0787 21 26.8381V29.8571C21 30.7923 21.6312 31.8055 23.0075 32.6382C24.3651 33.4595 26.3047 34 28.5 34C30.6953 34 32.6349 33.4595 33.9925 32.6382C35.3688 31.8055 36 30.7923 36 29.8571V26.8381ZM5.49747 16.9196C4.33702 17.4998 4 18.1163 4 18.5C4 18.8837 4.33702 19.5002 5.49747 20.0804C6.5981 20.6308 8.18859 21 10 21C11.8114 21 13.4019 20.6308 14.5025 20.0804C15.663 19.5002 16 18.8837 16 18.5C16 18.1163 15.663 17.4998 14.5025 16.9196C13.4019 16.3692 11.8114 16 10 16C8.18859 16 6.5981 16.3692 5.49747 16.9196ZM4.60304 15.1307C6.03591 14.4143 7.94542 14 10 14C12.0546 14 13.9641 14.4143 15.397 15.1307C16.77 15.8172 18 16.9507 18 18.5C18 18.6068 17.9942 18.7116 17.9828 18.8145C17.9941 18.8746 18 18.9366 18 19V24.1429C18 24.3321 17.9837 24.5161 17.9526 24.6949C17.9834 24.7911 18 24.8936 18 25V30.1429C18 31.7404 16.8374 32.9719 15.4321 33.7462C13.9912 34.5401 12.0686 35 10 35C7.93137 35 6.00884 34.5401 4.5679 33.7462C3.1626 32.9719 2 31.7404 2 30.1429V25C2 24.8936 2.01662 24.7911 2.0474 24.6949C2.01631 24.5161 2 24.3321 2 24.1429V19C2 18.9366 2.0059 18.8746 2.01718 18.8145C2.00584 18.7116 2 18.6068 2 18.5C2 16.9507 3.22998 15.8172 4.60304 15.1307ZM4 21.5312V24.1429C4 24.6757 4.4047 25.3728 5.53305 25.9945C6.62576 26.5965 8.20323 27 10 27C11.7968 27 13.3742 26.5965 14.467 25.9945C15.5953 25.3728 16 24.6757 16 24.1429V21.5312C15.8046 21.6539 15.6024 21.7666 15.397 21.8693C13.9641 22.5857 12.0546 23 10 23C7.94542 23 6.03591 22.5857 4.60304 21.8693C4.39761 21.7666 4.19538 21.6539 4 21.5312ZM4 27.3981V30.1429C4 30.6757 4.4047 31.3728 5.53305 31.9945C6.62576 32.5965 8.20323 33 10 33C11.7968 33 13.3742 32.5965 14.467 31.9945C15.5953 31.3728 16 30.6757 16 30.1429V27.3981C15.817 27.5228 15.6269 27.6389 15.4321 27.7462C13.9912 28.5401 12.0686 29 10 29C7.93137 29 6.00884 28.5401 4.5679 27.7462C4.37312 27.6389 4.18301 27.5228 4 27.3981Z" />
</svg>
