<svg width="40" height="40" viewBox="0 0 40 40" xmlns="http://www.w3.org/2000/svg">
<path fill-rule="evenodd" clip-rule="evenodd" d="M10 9C7.81723 9 6 10.8281 6 13.1429V16H34V13.1429C34 10.8281 32.1828 9 30 9H10ZM36 13.1429C36 9.77699 33.3401 7 30 7H10C6.65992 7 4 9.77699 4 13.1429V26.8571C4 30.223 6.65992 33 10 33H30C33.3401 33 36 30.223 36 26.8571V13.1429ZM34 18H6V26.8571C6 29.1719 7.81723 31 10 31H30C32.1828 31 34 29.1719 34 26.8571V18ZM11 25C11 24.4477 11.4477 24 12 24H13C13.5523 24 14 24.4477 14 25C14 25.5523 13.5523 26 13 26H12C11.4477 26 11 25.5523 11 25ZM17.0003 25C17.0003 24.4477 17.448 24 18.0003 24H22.0003C22.5526 24 23.0003 24.4477 23.0003 25C23.0003 25.5523 22.5526 26 22.0003 26H18.0003C17.448 26 17.0003 25.5523 17.0003 25Z" />
</svg>
