<svg width="40" height="40" viewBox="0 0 40 40" xmlns="http://www.w3.org/2000/svg">
<path fill-rule="evenodd" clip-rule="evenodd" d="M26.9738 6.00035C27.248 5.99313 27.5132 6.09891 27.7072 6.29289L34.7072 13.2929C35.0977 13.6834 35.0977 14.3166 34.7072 14.7071C34.3167 15.0976 33.6835 15.0976 33.293 14.7071L27.0383 8.45241L18.7434 17.669C18.4569 17.9872 17.9997 18.0878 17.6062 17.9191L11.346 15.2362L6.81381 21.5812C6.4928 22.0307 5.86825 22.1347 5.41884 21.8137C4.96943 21.4927 4.86534 20.8682 5.18634 20.4188L10.1863 13.4188C10.4595 13.0364 10.9621 12.8957 11.394 13.0809L17.7358 15.7988L26.2568 6.33104C26.4403 6.12712 26.6995 6.00756 26.9738 6.00035ZM26.9567 17.0009C27.2367 16.9888 27.509 17.0947 27.7072 17.2929L34.7072 24.2929C34.8947 24.4804 35.0001 24.7348 35.0001 25V33C35.0001 33.5523 34.5524 34 34.0001 34H6.00008C5.6272 34 5.2853 33.7925 5.1131 33.4618C4.9409 33.1311 4.96702 32.732 5.18085 32.4265L12.1808 22.4265C12.4609 22.0264 12.9891 21.8872 13.43 22.0971L19.7318 25.098L26.2344 17.3568C26.4146 17.1422 26.6767 17.0131 26.9567 17.0009ZM27.0642 19.4784L20.7658 26.9765C20.4729 27.3252 19.9813 27.432 19.5701 27.2362L13.3341 24.2666L7.92073 32H33.0001V25.4142L27.0642 19.4784Z" />
</svg>
