<svg width="40" height="40" viewBox="0 0 40 40" xmlns="http://www.w3.org/2000/svg">
<path fill-rule="evenodd" clip-rule="evenodd" d="M29 7H11L11 33H29V7ZM11 5C9.89543 5 9 5.89543 9 7V33C9 34.1046 9.89543 35 11 35H29C30.1046 35 31 34.1046 31 33V7C31 5.89543 30.1046 5 29 5H11Z" />
<path d="M5 34C5 33.4477 5.44772 33 6 33H34C34.5523 33 35 33.4477 35 34C35 34.5523 34.5523 35 34 35H6C5.44772 35 5 34.5523 5 34Z" />
<path d="M27 21C27 21.5523 26.5523 22 26 22C25.4477 22 25 21.5523 25 21C25 20.4477 25.4477 20 26 20C26.5523 20 27 20.4477 27 21Z" />
</svg>
