<svg width="40" height="40" viewBox="0 0 40 40" xmlns="http://www.w3.org/2000/svg">
<path fill-rule="evenodd" clip-rule="evenodd" d="M20 6C12.268 6 6 12.268 6 20C6 27.732 12.268 34 20 34C27.732 34 34 27.732 34 20C34 12.268 27.732 6 20 6ZM4 20C4 11.1634 11.1634 4 20 4C28.8366 4 36 11.1634 36 20C36 28.8366 28.8366 36 20 36C11.1634 36 4 28.8366 4 20ZM25.6805 16.2672C26.0852 16.643 26.1086 17.2757 25.7328 17.6804L19.2328 24.6804C19.0401 24.888 18.7684 25.0041 18.4852 24.9999C18.202 24.9957 17.9339 24.8716 17.7474 24.6585L14.2474 20.6585C13.8837 20.2429 13.9259 19.6111 14.3415 19.2474C14.7571 18.8837 15.3889 18.9259 15.7526 19.3415L18.5221 22.5066L24.2672 16.3195C24.643 15.9148 25.2757 15.8914 25.6805 16.2672Z" />
</svg>
