<svg width="40" height="40" viewBox="0 0 40 40" xmlns="http://www.w3.org/2000/svg">
<path fill-rule="evenodd" clip-rule="evenodd" d="M20 6C12.268 6 6 12.268 6 20C6 27.732 12.268 34 20 34C27.732 34 34 27.732 34 20C34 12.268 27.732 6 20 6ZM4 20C4 11.1634 11.1634 4 20 4C28.8366 4 36 11.1634 36 20C36 28.8366 28.8366 36 20 36C11.1634 36 4 28.8366 4 20Z" />
<path fill-rule="evenodd" clip-rule="evenodd" d="M18.5858 20L15 16.4142C14.6095 16.0237 14.6095 15.3905 15 15C15.3905 14.6095 16.0237 14.6095 16.4142 15L20 18.5858L23.5858 15C23.9763 14.6095 24.6095 14.6095 25 15C25.3905 15.3905 25.3905 16.0237 25 16.4142L21.4142 20L25 23.5858C25.3905 23.9763 25.3905 24.6095 25 25C24.6095 25.3905 23.9763 25.3905 23.5858 25L20 21.4142L16.4142 25C16.0237 25.3905 15.3905 25.3905 15 25C14.6095 24.6095 14.6095 23.9763 15 23.5858L18.5858 20Z" />
</svg>
