<svg width="40" height="40" viewBox="0 0 40 40" xmlns="http://www.w3.org/2000/svg">
<path fill-rule="evenodd" clip-rule="evenodd" d="M15 6C11.6863 6 9 8.68629 9 12C9 15.3137 11.6863 18 15 18C18.3137 18 21 15.3137 21 12C21 8.68629 18.3137 6 15 6ZM7 12C7 7.58172 10.5817 4 15 4C19.4183 4 23 7.58172 23 12C23 16.4183 19.4183 20 15 20C10.5817 20 7 16.4183 7 12ZM37.6508 14.2407C38.0701 14.6002 38.1187 15.2315 37.7593 15.6508L31.7593 22.6508C31.4163 23.0509 30.8216 23.1162 30.4 22.8L26.4 19.8C25.9582 19.4686 25.8686 18.8418 26.2 18.4C26.5314 17.9582 27.1582 17.8686 27.6 18.2L30.8505 20.6379L36.2407 14.3492C36.6002 13.9299 37.2315 13.8813 37.6508 14.2407ZM11.6667 26C10.1638 26 8.72243 26.597 7.65973 27.6597C6.59702 28.7224 6 30.1638 6 31.6667V35C6 35.5523 5.55228 36 5 36C4.44772 36 4 35.5523 4 35V31.6667C4 29.6333 4.80774 27.6833 6.24551 26.2455C7.68329 24.8077 9.63334 24 11.6667 24H18.3333C20.3667 24 22.3167 24.8077 23.7545 26.2455C25.1923 27.6833 26 29.6333 26 31.6667V35C26 35.5523 25.5523 36 25 36C24.4477 36 24 35.5523 24 35V31.6667C24 30.1638 23.403 28.7224 22.3403 27.6597C21.2776 26.597 19.8362 26 18.3333 26H11.6667Z" />
</svg>
