<svg width="40" height="40" viewBox="0 0 40 40" xmlns="http://www.w3.org/2000/svg">
<path fill-rule="evenodd" clip-rule="evenodd" d="M27 10.375C27 8.04501 28.6587 6 31 6C33.3413 6 35 8.04501 35 10.375V30.625C35 30.8699 34.9101 31.1063 34.7474 31.2894L31.7474 34.6644C31.5576 34.8779 31.2856 35 31 35H9.33333C8.16788 35 7.06065 34.5134 6.25217 33.6645C5.44528 32.8173 5 31.6782 5 30.5C5 29.3218 5.44528 28.1827 6.25217 27.3355C7.06065 26.4866 8.16788 26 9.33333 26H15.6667C16.2693 26 16.8578 25.7491 17.2996 25.2852C17.7429 24.8197 18 24.1784 18 23.5C18 22.8216 17.7429 22.1803 17.2996 21.7148C16.8578 21.2509 16.2693 21 15.6667 21H11C10.4477 21 10 20.5523 10 20C10 19.4477 10.4477 19 11 19H15.6667C16.8321 19 17.9394 19.4866 18.7478 20.3355C19.5547 21.1827 20 22.3218 20 23.5C20 24.6782 19.5547 25.8173 18.7478 26.6645C17.9394 27.5134 16.8321 28 15.6667 28H9.33333C8.73067 28 8.14222 28.2509 7.70045 28.7148C7.2571 29.1803 7 29.8216 7 30.5C7 31.1784 7.2571 31.8197 7.70045 32.2852C8.14222 32.7491 8.73067 33 9.33333 33H28.7732L27.2526 31.2894C27.0899 31.1063 27 30.8699 27 30.625V10.375ZM29 15V30.2448L31 32.4948L33 30.2448V15H29ZM33 13H29V10.375C29 8.92162 29.9783 8 31 8C32.0217 8 33 8.92162 33 10.375V13Z" />
</svg>
