<svg width="40" height="40" viewBox="0 0 40 40" xmlns="http://www.w3.org/2000/svg">
<path fill-rule="evenodd" clip-rule="evenodd" d="M16 4C16.5523 4 17 4.44772 17 5V8H23V5C23 4.44772 23.4477 4 24 4C24.5523 4 25 4.44772 25 5V8H28.25C30.3211 8 32 9.67893 32 11.75V15H35C35.5523 15 36 15.4477 36 16C36 16.5523 35.5523 17 35 17H32V22H35C35.5523 22 36 22.4477 36 23C36 23.5523 35.5523 24 35 24H32V28.25C32 30.3211 30.3211 32 28.25 32H25V35C25 35.5523 24.5523 36 24 36C23.4477 36 23 35.5523 23 35V32H17V35C17 35.5523 16.5523 36 16 36C15.4477 36 15 35.5523 15 35V32H11.75C9.67893 32 8 30.3211 8 28.25V24H5C4.44772 24 4 23.5523 4 23C4 22.4477 4.44772 22 5 22H8V17H5C4.44772 17 4 16.5523 4 16C4 15.4477 4.44772 15 5 15H8V11.75C8 9.67893 9.67893 8 11.75 8H15V5C15 4.44772 15.4477 4 16 4ZM11.75 10C10.7835 10 10 10.7835 10 11.75V28.25C10 29.2165 10.7835 30 11.75 30H28.25C29.2165 30 30 29.2165 30 28.25V11.75C30 10.7835 29.2165 10 28.25 10H11.75ZM15 16C15 15.4477 15.4477 15 16 15H24C24.5523 15 25 15.4477 25 16V24C25 24.5523 24.5523 25 24 25H16C15.4477 25 15 24.5523 15 24V16ZM17 17V23H23V17H17Z" />
</svg>
