<svg width="40" height="40" viewBox="0 0 40 40" xmlns="http://www.w3.org/2000/svg">
<path fill-rule="evenodd" clip-rule="evenodd" d="M21.8627 8.1524C20.764 7.95227 19.6316 7.94921 18.5315 8.14343C17.4315 8.33764 16.389 8.72461 15.4633 9.27871C13.5932 10.3981 12.3239 12.1213 11.8926 14.0462C11.7902 14.5029 11.3848 14.8276 10.9168 14.8276C9.06889 14.8276 7.30483 15.5314 6.01064 16.7716C4.7179 18.0103 4 19.6811 4 21.4138C4 23.1465 4.7179 24.8173 6.01064 26.056C7.29734 27.289 9.14134 28 11 28C11.5523 28 12 28.4477 12 29C12 29.5523 11.5523 30 11 30C8.65935 30 6.30955 29.1125 4.62689 27.5001C2.95027 25.8935 2 23.7051 2 21.4138C2 19.1225 2.95027 16.9341 4.62689 15.3275C6.11758 13.8991 8.07395 13.0333 10.1437 12.8599C10.8388 10.6768 12.3666 8.80134 14.4361 7.56263C15.5765 6.88003 16.8501 6.40934 18.1838 6.17389C19.5175 5.93844 20.8889 5.94212 22.2211 6.18477C23.5532 6.42742 24.8238 6.90501 25.9599 7.59384C27.0961 8.28276 28.0775 9.17089 28.844 10.2119C29.6107 11.2532 30.1466 12.4263 30.4157 13.6653C30.5972 14.5009 30.6543 15.3532 30.5873 16.1992H31.1102C32.9381 16.1992 34.6907 16.9267 35.9827 18.2209C37.2746 19.5152 38 21.2701 38 23.0996C38 24.9291 37.2746 26.6841 35.9827 27.9783C34.6907 29.2726 32.9381 30 31.1102 30H29C28.4477 30 28 29.5523 28 29C28 28.4477 28.4477 28 29 28H31.1102C32.4065 28 33.65 27.4841 34.5672 26.5653C35.4844 25.6465 36 24.3999 36 23.0996C36 21.7994 35.4844 20.5527 34.5672 19.6339C33.65 18.7151 32.4065 18.1992 31.1102 18.1992H29.4274C29.1238 18.1992 28.8366 18.0613 28.6469 17.8243C28.4571 17.5873 28.3853 17.2769 28.4516 16.9806C28.6654 16.0265 28.6687 15.0448 28.4612 14.0897C28.2537 13.1343 27.8384 12.2193 27.2335 11.3977C26.6283 10.5758 25.8446 9.86291 24.9229 9.30402C24.0011 8.74506 22.9614 8.35252 21.8627 8.1524ZM19.2929 18.2929C19.6834 17.9024 20.3166 17.9024 20.7071 18.2929L25.7071 23.2929C26.0976 23.6834 26.0976 24.3166 25.7071 24.7071C25.3166 25.0976 24.6834 25.0976 24.2929 24.7071L21 21.4142V34C21 34.5523 20.5523 35 20 35C19.4477 35 19 34.5523 19 34V21.4142L15.7071 24.7071C15.3166 25.0976 14.6834 25.0976 14.2929 24.7071C13.9024 24.3166 13.9024 23.6834 14.2929 23.2929L19.2929 18.2929Z" />
</svg>
