<svg width="40" height="40" viewBox="0 0 40 40" xmlns="http://www.w3.org/2000/svg">
<path fill-rule="evenodd" clip-rule="evenodd" d="M12.684 7.27047C13.0869 7.6482 13.1073 8.28103 12.7295 8.68394L8.97955 12.6839C8.60888 13.0793 7.99071 13.1075 7.58565 12.7474L5.33565 10.7474C4.92286 10.3805 4.88568 9.74842 5.2526 9.33564C5.61952 8.92286 6.25159 8.88568 6.66437 9.25259L8.18652 10.6056L11.2705 7.31606C11.6482 6.91315 12.281 6.89274 12.684 7.27047ZM17 10C17 9.44772 17.4477 9 18 9H33C33.5523 9 34 9.44772 34 10C34 10.5523 33.5523 11 33 11H18C17.4477 11 17 10.5523 17 10ZM12.684 17.2705C13.0869 17.6482 13.1073 18.281 12.7295 18.6839L8.97955 22.6839C8.60888 23.0793 7.99071 23.1075 7.58565 22.7474L5.33565 20.7474C4.92286 20.3805 4.88568 19.7484 5.2526 19.3356C5.61952 18.9229 6.25159 18.8857 6.66437 19.2526L8.18652 20.6056L11.2705 17.3161C11.6482 16.9131 12.281 16.8927 12.684 17.2705ZM17 20C17 19.4477 17.4477 19 18 19H33C33.5523 19 34 19.4477 34 20C34 20.5523 33.5523 21 33 21H18C17.4477 21 17 20.5523 17 20ZM12.684 27.2705C13.0869 27.6482 13.1073 28.281 12.7295 28.6839L8.97955 32.6839C8.60888 33.0793 7.99071 33.1075 7.58565 32.7474L5.33565 30.7474C4.92286 30.3805 4.88568 29.7484 5.2526 29.3356C5.61952 28.9229 6.25159 28.8857 6.66437 29.2526L8.18652 30.6056L11.2705 27.3161C11.6482 26.9132 12.281 26.8927 12.684 27.2705ZM17 30C17 29.4477 17.4477 29 18 29H33C33.5523 29 34 29.4477 34 30C34 30.5523 33.5523 31 33 31H18C17.4477 31 17 30.5523 17 30Z" />
</svg>
