<svg width="40" height="40" viewBox="0 0 40 40" xmlns="http://www.w3.org/2000/svg">
<path fill-rule="evenodd" clip-rule="evenodd" d="M9.41853 10.8327C7.28882 13.2889 6 16.4939 6 20C6 23.5061 7.28882 26.7111 9.41853 29.1673L13.9178 24.668C12.9241 23.3752 12.3333 21.7566 12.3333 20C12.3333 18.2434 12.9241 16.6248 13.9178 15.332L9.41853 10.8327ZM10.8327 9.41853L15.332 13.9178C16.6248 12.9241 18.2434 12.3333 20 12.3333C21.7566 12.3333 23.3752 12.9241 24.668 13.9178L29.1673 9.41853C26.7111 7.28882 23.5061 6 20 6C16.4939 6 13.2889 7.28882 10.8327 9.41853ZM30.5815 10.8327L26.0822 15.332C27.0759 16.6248 27.6667 18.2434 27.6667 20C27.6667 21.7566 27.0759 23.3752 26.0822 24.668L30.5815 29.1673C32.7112 26.7111 34 23.5061 34 20C34 16.4939 32.7112 13.2889 30.5815 10.8327ZM29.1673 30.5815L24.668 26.0822C23.3752 27.0759 21.7566 27.6667 20 27.6667C18.2434 27.6667 16.6248 27.0759 15.332 26.0822L10.8327 30.5815C13.2889 32.7112 16.4939 34 20 34C23.5061 34 26.7111 32.7112 29.1673 30.5815ZM4 20C4 11.1634 11.1634 4 20 4C28.8366 4 36 11.1634 36 20C36 28.8366 28.8366 36 20 36C11.1634 36 4 28.8366 4 20ZM20 14.3333C16.8704 14.3333 14.3333 16.8704 14.3333 20C14.3333 23.1296 16.8704 25.6667 20 25.6667C23.1296 25.6667 25.6667 23.1296 25.6667 20C25.6667 16.8704 23.1296 14.3333 20 14.3333Z" />
</svg>
