<svg width="40" height="40" viewBox="0 0 40 40" xmlns="http://www.w3.org/2000/svg">
<path fill-rule="evenodd" clip-rule="evenodd" d="M24.4221 5.18388C24.6869 4.99641 25.0261 4.94903 25.3321 5.05677C27.5509 5.83804 29.5662 7.10708 31.2296 8.77043C32.8929 10.4338 34.162 12.4491 34.9432 14.6679C35.051 14.9739 35.0036 15.3131 34.8161 15.5779C34.6287 15.8426 34.3244 16 34 16H26.6364C26.3438 16 26.0659 15.8719 25.8759 15.6494C25.4083 15.1017 24.8983 14.5917 24.3506 14.1241C24.1281 13.9341 24 13.6562 24 13.3636V6.00001C24 5.6756 24.1574 5.37135 24.4221 5.18388ZM16.2558 5.01683C16.5803 4.97876 16.9092 5.00546 17.2233 5.0954C17.5374 5.18535 17.8306 5.33674 18.0858 5.54082C18.3409 5.7449 18.5531 5.99761 18.7099 6.28432C18.8667 6.57102 18.9649 6.886 18.999 7.21099C19.0027 7.24565 19.0045 7.28047 19.0045 7.31532V13.8418C19.0045 14.2972 18.6968 14.6951 18.2561 14.8097C17.2857 15.062 16.3991 15.5661 15.6862 16.2709C14.9733 16.9758 14.4594 17.8563 14.1963 18.8234C13.9333 19.7906 13.9305 20.81 14.1882 21.7786C14.4459 22.7471 14.955 23.6305 15.664 24.3392C16.373 25.048 17.2567 25.557 18.2258 25.8146C19.1948 26.0723 20.2148 26.0695 21.1824 25.8065C22.15 25.5435 23.031 25.0296 23.736 24.317C24.4411 23.6043 24.9453 22.7182 25.1977 21.7482C25.3123 21.3076 25.7102 21 26.1655 21H32.3678C33.0658 21 33.7353 21.2772 34.2289 21.7707C34.7226 22.2642 35 22.9336 35 23.6316C35 23.7077 34.9913 23.7835 34.9741 23.8575C34.3419 26.5838 32.9916 29.0912 31.0632 31.1198C29.1349 33.1484 26.6987 34.6243 24.0075 35.3944C21.3163 36.1645 18.468 36.2008 15.758 35.4995C13.048 34.7983 10.575 33.385 8.59554 31.4062C6.61607 29.4274 5.20222 26.9552 4.50067 24.246C3.79912 21.5368 3.83544 18.6892 4.60586 15.9988C5.37628 13.3083 6.85273 10.873 8.88203 8.94529C10.9113 7.0176 13.4196 5.6678 16.1465 5.03583C16.1826 5.02748 16.219 5.02114 16.2558 5.01683ZM16.5298 7.00021C14.1767 7.55822 12.0131 8.72951 10.2595 10.3953C8.48889 12.0773 7.20074 14.2021 6.52858 16.5494C5.85643 18.8967 5.82474 21.381 6.43681 23.7446C7.04887 26.1083 8.28241 28.2652 10.0095 29.9917C11.7366 31.7182 13.8944 32.9514 16.259 33.5633C18.6237 34.1752 21.109 34.1435 23.4573 33.4716C25.8055 32.7996 27.9312 31.5118 29.6137 29.7419C31.264 28.0057 32.4291 25.8676 32.9936 23.5418C32.9743 23.4076 32.9121 23.2822 32.815 23.1851C32.6964 23.0666 32.5356 23 32.3678 23H26.8972C26.518 24.018 25.9261 24.9471 25.1578 25.7236C24.2049 26.6867 23.0145 27.3811 21.707 27.7365C20.3995 28.0918 19.0213 28.0956 17.7118 27.7475C16.4024 27.3993 15.2082 26.7115 14.25 25.7537C13.2918 24.7959 12.6037 23.602 12.2554 22.2928C11.9071 20.9837 11.9109 19.6057 12.2664 18.2985C12.622 16.9913 13.3166 15.8012 14.2801 14.8487C15.0569 14.0807 15.9862 13.489 17.0045 13.1099V7.38226C16.9954 7.33391 16.9788 7.28721 16.9551 7.2439C16.9254 7.1895 16.8851 7.14153 16.8366 7.10277C16.7882 7.06401 16.7325 7.03524 16.6728 7.01814C16.6262 7.00482 16.578 6.9988 16.5298 7.00021ZM26 7.49247V12.9117C26.3803 13.2565 26.7435 13.6197 27.0883 14H32.5075C31.8361 12.587 30.9266 11.2958 29.8154 10.1846C28.7042 9.07345 27.413 8.16386 26 7.49247Z" />
</svg>
